<?xml version="1.0" encoding="utf-8"?>
<!-- Generator: Adobe Illustrator 19.1.0, SVG Export Plug-In . SVG Version: 6.00 Build 0)  -->
<svg version="1.1" id="Layer_1" xmlns="http://www.w3.org/2000/svg" xmlns:xlink="http://www.w3.org/1999/xlink" x="0px" y="0px"
	 viewBox="-207 355.9 179.3 131" style="enable-background:new -207 355.9 179.3 131;" xml:space="preserve">
<style type="text/css">
	.st0{display:none;fill:#FFFFFF;}
	.st1{fill:#FFFFFF;}
	.st2{fill:#488DCD;}
	.st3{fill:#6B6CAE;}
	.st4{fill:#AF424C;}
	.st5{fill:#D97043;}
	.st6{fill:#ECB144;}
	.st7{fill:#6DB460;}
</style>
<g>
	<polygon class="st0" points="-212,329.1 -19.2,329.1 -19.2,521.8 -212,521.8 	"/>
	<path class="st1" d="M-172.7,467.1c-0.6-3.1-3.2-4-6.1-4.3c-9.3-0.9-11,6.1-11,9.1c0,5,1.5,9.2,10.6,9.2c1.7,0,6.3-1.7,6.3-4.6
		h13.2c-0.5,8.4-14.6,10.4-20.7,10.4c-12.7,0-23.6-2.4-23.1-14.9c0.4-9,8.8-15.2,25.6-14.9c9.4,0.2,18.4,3.1,18.4,9.9h-13.2V467.1z"
		/>
	<path class="st1" d="M-41,467.1c-0.6-3.1-3.2-4-6.1-4.3c-9.3-0.9-11,6.1-11,9.1c0,5,1.5,9.2,10.6,9.2c1.7,0,6.3-1.7,6.3-4.6H-28
		c-0.5,8.4-14.6,10.4-20.7,10.4c-12.7,0-23.6-2.4-23.1-14.9c0.4-9,8.8-15.2,25.6-14.9c9.4,0.2,18.4,3.1,18.4,9.9H-41V467.1z"/>
	<polygon class="st1" points="-157.1,457.7 -140,457.7 -125.5,478.2 -125.4,478.2 -125.4,457.7 -114.4,457.7 -114.4,486.2 
		-130.8,486.2 -146.1,465.7 -146.2,465.7 -146.2,486.2 -157.1,486.2 	"/>
	<path class="st1" d="M-111,457.7h20.7c10,0,15.8,2.8,15.8,7c0,2.5-2.5,5.6-7.9,6.5v0.1c6.6,0.4,9,4.6,9,7.1c0,5-5.7,7.8-16.9,7.8
		H-111V457.7L-111,457.7L-111,457.7z M-99,468.8h3.4c5.3,0,8.1-0.4,8.1-2.6c0-2.4-2.3-3.1-7.1-3.1H-99V468.8L-99,468.8L-99,468.8z
		 M-99,480.2h3.4c6.4,0,8.7-0.7,8.7-2.9c0-2.4-3-3.2-7.7-3.2H-99V480.2L-99,480.2z"/>
	<path class="st1" d="M-42.6,453.1c-2.8,1.2-5.9,1.8-9.2,1.8l-132.2-0.1c-7.5-0.6-14.8-6.7-16.9-14.1c-2.2-7.4-0.1-15,4.8-20.4
		c4.7-4.9,10.8-6.9,17.5-6.1c-6.3-4.3-9-11.4-8.1-19.1c0.8-6.6,5.7-13.1,11.8-15.8c7-3.2,15.9-1.4,21.4,3.9
		c-1.1-3.9-1.8-9.5-0.2-13.5c1.9-6.3,8-11.9,14.2-13.2c8.5-1.8,16.4,1.4,21.2,8.5c0.9,1.3,1.4,2.9,2.2,4.3
		c2.4-6.8,9.3-12.5,16.3-13.2c7.2-0.9,14.1,2.2,18.6,8.3c3.5,5.1,4.7,12.6,2.5,18.7h0.3c5.2-4.7,13.2-6.4,20-3.8
		c6.5,2.1,11.9,9,12.8,15.8c1,7.5-1.6,14.1-7.3,18.9c8.6-0.5,16.8,4.1,20.3,12.1c3.1,7,2.2,16.4-3.1,22
		C-37.8,450.2-40.1,452-42.6,453.1L-42.6,453.1z"/>
	<path class="st2" d="M-56.6,414.2l-48.9,32.7l16.5-39.2l7.8-18.2c3.2-5.9,9.1-9.6,15.6-9.7c6.2,0,11.7,3,15.2,8.4
		c3.6,5.4,3.8,14.2,0.2,19.6C-51.8,410.3-54.2,412.6-56.6,414.2L-56.6,414.2z"/>
	<path class="st3" d="M-81,383.3l-24.2,57.1l-1.1-6.2l-7.3-46.8c-0.3-2.9,0.9-5.3,3.2-6.9l3.5-2.1c0.2-0.7-0.8-1-1.3-1.2l-6.8-0.1
		c-0.4-6.8,2.5-12.9,8.2-16.6c4.4-2.9,11.2-3.7,16.2-1.3c6.4,2.6,10.9,9.5,11,16.5C-79.5,378.3-80,381-81,383.3L-81,383.3z"/>
	<path class="st4" d="M-127.4,440.7l-23.8-57.3c-2.6-6.1-1.5-14.2,2.9-19.2c4.7-5.2,11.3-7.4,18.1-5.6c5.8,1.4,11.1,6.9,12.6,12.8
		c0.7,2.2,0.6,4.9,0.4,7.3L-127.4,440.7L-127.4,440.7z"/>
	<path class="st5" d="M-178.2,412.1c-4.9-4.2-7.1-9.9-6.4-16.4c0.7-6.6,5.9-13.1,12.2-15.1c6.4-2,13.4-0.4,18,4.4
		c2,1.9,3.2,4.1,4.2,6.3l23,55.7L-178.2,412.1L-178.2,412.1z"/>
	<path class="st6" d="M-183.5,452.8c-6.4-0.7-11.3-4.1-14.3-10s-2.2-14.3,1.9-19.5c4.4-5.3,10.9-8,17.3-6.7c2.6,0.4,4.8,1.6,6.9,2.9
		l49.5,33.3H-183.5L-183.5,452.8z"/>
	<path class="st7" d="M-49.1,452.8c6.4-0.7,11.3-4.1,14.3-10s2.2-14.2-1.8-19.5c-4.4-5.3-10.9-8-17.3-6.7c-2.6,0.4-4.8,1.6-6.9,2.9
		l-49.6,33.3H-49.1L-49.1,452.8z"/>
</g>
</svg>
