<?xml version="1.0" encoding="utf-8"?>
<!-- Generator: Adobe Illustrator 19.1.0, SVG Export Plug-In . SVG Version: 6.00 Build 0)  -->
<svg version="1.1" id="Layer_1" xmlns="http://www.w3.org/2000/svg" xmlns:xlink="http://www.w3.org/1999/xlink" x="0px" y="0px"
	 viewBox="0 0 289.7 66.7" style="enable-background:new 0 0 289.7 66.7;" xml:space="preserve">
<style type="text/css">
	.st0{fill:#5A72B4;}
</style>
<path class="st0" d="M154.6,32.5c-2.5,0-4.3,0.8-6.1,1.6v18.7c1.7,0.2,2.7,0.2,4.4,0.2c6,0,6.8-2.7,6.8-6.5v-8.9
	C159.7,34.8,158.7,32.5,154.6,32.5 M115.1,31.5c-4.1,0-5.1,2.3-5.1,5.1v1.6h10.1v-1.6C120.1,33.7,119.2,31.5,115.1,31.5 M38.5,51
	c0,2.2,1,3.4,3.4,3.4c2.5,0,3.9-0.8,5.8-1.6v-4.4h-5.4C39.6,48.3,38.5,48.7,38.5,51 M193.1,32.5c-4.1,0-5.6,2.3-5.6,5.1v10.2
	c0,2.8,1.4,5.1,5.6,5.1c4.1,0,5.6-2.3,5.6-5.1V37.6C198.6,34.8,197.2,32.5,193.1,32.5 M18.2,62.4H6.1V33.1H0V22.9h6.1v-6.1
	c0-8.3,3.4-13.2,13.2-13.2h8.1v10.1h-5.1c-3.8,0-4,1.4-4,4.1l0,5.1h9.2l-1.1,10.1h-8.1V62.4z M59.8,62.5H49.7L49.2,60
	c-4.6,2.6-8.8,3-11.5,3c-7.4,0-11.4-5-11.4-11.8c0-8.1,4.6-11,12.9-11h8.4v-1.7c0-4.1-0.5-5.3-6.8-5.3H30.4l1-10.1h11.4
	c14,0,17,4.4,17,15.6V62.5z M94.3,33.8c-6.3-1.1-8.1-1.3-11.2-1.3c-5.5,0-7.1,1.2-7.1,5.8V47c0,4.6,1.6,5.8,7.1,5.8
	c3,0,4.8-0.2,11.2-1.3v9.9c-5.5,1.2-9.1,1.6-12.2,1.6C69,63,63.8,56.1,63.8,46.2v-7.1c0-9.9,5.2-16.8,18.2-16.8
	c3,0,6.6,0.3,12.2,1.6V33.8z M132.3,46.2H110V47c0,4.6,1.6,5.8,7.1,5.8c4.9,0,7.9-0.2,14.2-1.3v9.9c-6.1,1.2-9.2,1.6-15.2,1.6
	c-13.1,0-18.2-6.9-18.2-16.8v-8.1c0-8.7,3.9-15.8,17.2-15.8c13.4,0,17.2,7,17.2,15.8V46.2z M171.8,46.4c0,9.6-2.7,16.6-19.3,16.6
	c-6,0-9.5-0.5-16.1-1.5V6.7l12.2-2v19.1c2.6-1,6-1.5,9.1-1.5c12.2,0,14.2,5.4,14.2,14.2V46.4z M210.8,46.6c0,8.3-3.4,16.3-17.7,16.3
	c-14.3,0-17.8-8-17.8-16.3v-8c0-8.3,3.5-16.3,17.8-16.3c14.3,0,17.7,8,17.7,16.3V46.6z M249.7,46.6c0,8.3-3.4,16.3-17.7,16.3
	c-14.3,0-17.8-8-17.8-16.3v-8c0-8.3,3.5-16.3,17.8-16.3c14.3,0,17.7,8,17.7,16.3V46.6z M289.7,62.4h-13.2l-11.1-18.6v18.6h-12.2V6.7
	l12.2-2v35.9l11.1-17.6h13.2l-12.2,19.3L289.7,62.4z M232,32.5c-4.1,0-5.6,2.3-5.6,5.1v10.2c0,2.8,1.4,5.1,5.6,5.1
	c4.1,0,5.6-2.3,5.6-5.1V37.6C237.6,34.8,236.1,32.5,232,32.5"/>
</svg>
