<?xml version="1.0" encoding="utf-8"?>
<!-- Generator: Adobe Illustrator 19.1.0, SVG Export Plug-In . SVG Version: 6.00 Build 0)  -->
<svg version="1.1" id="_xF233__1_" xmlns="http://www.w3.org/2000/svg" xmlns:xlink="http://www.w3.org/1999/xlink" x="0px" y="0px"
	 viewBox="0 0 37 37" style="enable-background:new 0 0 37 37;" xml:space="preserve">
<style type="text/css">
	.st0{fill:#FFFFFF;}
</style>
<g id="_xF233_">
	<g>
		<path class="st0" d="M30.7,5.4C27.2,1.8,23,0,18,0S8.8,1.8,5.2,5.4C1.7,9,0,13.4,0,18.5c0,4.1,1.1,7.7,3.4,10.9
			c2.3,3.2,5.2,5.4,8.9,6.6h0.3c0.6,0,0.9-0.3,0.9-0.9V32c-0.4,0.1-1,0.2-1.8,0.2c-1,0-1.9-0.2-2.6-0.7c-0.7-0.5-1.2-0.9-1.3-1.2
			c-0.2-0.3-0.3-0.5-0.3-0.8c-0.5-1.4-1.2-2.3-2-2.7c-1.1-0.7-1-1.1,0.1-1.1c1.2,0.1,2.1,0.8,2.8,1.9c0.7,1.3,1.8,2,3.1,2
			c0.7,0,1.4-0.2,2.1-0.5c0.2-1.1,0.5-1.9,1.1-2.5c-2.5-0.3-4.4-1.1-5.9-2.4c-1.5-1.3-2.3-3.5-2.3-6.7c0-1.9,0.6-3.6,1.8-5
			C7.8,11,7.9,9.3,8.5,7.6h0.4c1.2,0,2.8,0.6,4.6,1.9C15,9.1,16.5,8.9,18,8.9c1.4,0,2.9,0.2,4.5,0.6c1.8-1.3,3.3-1.9,4.6-1.9h0.4
			c0.6,1.7,0.7,3.3,0.2,4.9c1.2,1.4,1.8,3.1,1.8,5c0,3.2-0.8,5.5-2.3,6.7c-1.5,1.3-3.5,2-6,2.4c0.9,0.8,1.3,1.9,1.3,3.5
			c0,1,0,2,0,3.2c0,1.2,0,1.8,0,1.8c0,0.6,0.3,1,1,1h0.3c3.6-1.2,6.5-3.5,8.8-6.7c2.3-3.2,3.5-6.8,3.5-10.8C36,13.4,34.2,9,30.7,5.4
			z"/>
	</g>
</g>
</svg>
