<?xml version="1.0" encoding="utf-8"?>
<!-- Generator: Adobe Illustrator 19.1.0, SVG Export Plug-In . SVG Version: 6.00 Build 0)  -->
<svg version="1.1" id="Layer_1" xmlns="http://www.w3.org/2000/svg" xmlns:xlink="http://www.w3.org/1999/xlink" x="0px" y="0px"
	 viewBox="-170 379.2 254.3 83.7" style="enable-background:new -170 379.2 254.3 83.7;" xml:space="preserve">
<style type="text/css">
	.st0{display:none;fill:#5A72B4;}
	.st1{fill:#4285F4;}
	.st2{fill:#EA4335;}
	.st3{fill:#FBBC05;}
	.st4{fill:#34A853;}
</style>
<path class="st0" d="M-15.4,411.7c-2.5,0-4.3,0.8-6.1,1.6V432c1.7,0.2,2.7,0.2,4.4,0.2c6,0,6.8-2.7,6.8-6.5v-8.9
	C-10.3,414-11.3,411.7-15.4,411.7 M-54.9,410.7c-4.1,0-5.1,2.3-5.1,5.1v1.6h10.1v-1.6C-49.9,412.9-50.8,410.7-54.9,410.7
	 M-131.5,430.2c0,2.2,1,3.4,3.4,3.4c2.5,0,3.9-0.8,5.8-1.6v-4.4h-5.4C-130.4,427.5-131.5,427.9-131.5,430.2 M23.1,411.7
	c-4.1,0-5.6,2.3-5.6,5.1V427c0,2.8,1.4,5.1,5.6,5.1c4.1,0,5.6-2.3,5.6-5.1v-10.2C28.6,414,27.2,411.7,23.1,411.7 M-151.8,441.6
	h-12.1v-29.3h-6.1v-10.2h6.1V396c0-8.3,3.4-13.2,13.2-13.2h8.1v10.1h-5.1c-3.8,0-4,1.4-4,4.1v5.1h9.2l-1.1,10.1h-8.1v29.4H-151.8z
	 M-110.2,441.7h-10.1l-0.5-2.5c-4.6,2.6-8.8,3-11.5,3c-7.4,0-11.4-5-11.4-11.8c0-8.1,4.6-11,12.9-11h8.4v-1.7c0-4.1-0.5-5.3-6.8-5.3
	h-10.4l1-10.1h11.4c14,0,17,4.4,17,15.6V441.7z M-75.7,413c-6.3-1.1-8.1-1.3-11.2-1.3c-5.5,0-7.1,1.2-7.1,5.8v8.7
	c0,4.6,1.6,5.8,7.1,5.8c3,0,4.8-0.2,11.2-1.3v9.9c-5.5,1.2-9.1,1.6-12.2,1.6c-13.1,0-18.3-6.9-18.3-16.8v-7.1
	c0-9.9,5.2-16.8,18.2-16.8c3,0,6.6,0.3,12.2,1.6v9.9H-75.7z M-37.7,425.4H-60v0.8c0,4.6,1.6,5.8,7.1,5.8c4.9,0,7.9-0.2,14.2-1.3v9.9
	c-6.1,1.2-9.2,1.6-15.2,1.6c-13.1,0-18.2-6.9-18.2-16.8v-8.1c0-8.7,3.9-15.8,17.2-15.8c13.4,0,17.2,7,17.2,15.8V425.4z M1.8,425.6
	c0,9.6-2.7,16.6-19.3,16.6c-6,0-9.5-0.5-16.1-1.5v-54.8l12.2-2V403c2.6-1,6-1.5,9.1-1.5c12.2,0,14.2,5.4,14.2,14.2L1.8,425.6
	L1.8,425.6z M40.8,425.8c0,8.3-3.4,16.3-17.7,16.3s-17.8-8-17.8-16.3v-8c0-8.3,3.5-16.3,17.8-16.3s17.7,8,17.7,16.3V425.8z
	 M79.7,425.8c0,8.3-3.4,16.3-17.7,16.3s-17.8-8-17.8-16.3v-8c0-8.3,3.5-16.3,17.8-16.3s17.7,8,17.7,16.3V425.8z M119.7,441.6h-13.2
	L95.4,423v18.6H83.2v-55.7l12.2-2v35.9l11.1-17.6h13.2l-12.2,19.3L119.7,441.6z M62,411.7c-4.1,0-5.6,2.3-5.6,5.1V427
	c0,2.8,1.4,5.1,5.6,5.1c4.1,0,5.6-2.3,5.6-5.1v-10.2C67.6,414,66.1,411.7,62,411.7"/>
<g>
	<path id="path2998" class="st1" d="M-107.5,408.9h-29.6v8.8h21c-1,12.3-11.3,17.6-21,17.6c-12.4,0-23.2-9.8-23.2-23.4
		c0-13.3,10.3-23.6,23.2-23.6c10,0,15.9,6.4,15.9,6.4l6.2-6.4c0,0-7.9-8.8-22.3-8.8c-18.5,0-32.7,15.5-32.7,32.2
		c0,16.5,13.4,32.5,33.1,32.5c17.3,0,30-11.9,30-29.4C-106.9,411.1-107.5,408.9-107.5,408.9L-107.5,408.9z"/>
	<path id="path3000" class="st2" d="M-83.2,402.5c-12.2,0-20.9,9.5-20.9,20.6c0,11.3,8.5,21,21,21c11.4,0,20.7-8.7,20.7-20.7
		C-62.3,409.6-73.1,402.5-83.2,402.5L-83.2,402.5z M-83,410.7c6,0,11.7,4.8,11.7,12.6c0,7.6-5.7,12.6-11.7,12.6
		c-6.6,0-11.9-5.3-11.9-12.7C-94.9,416.1-89.8,410.7-83,410.7L-83,410.7z"/>
	<path id="path3005" class="st3" d="M-37.7,402.5c-12.2,0-20.9,9.5-20.9,20.6c0,11.3,8.5,21,21,21c11.4,0,20.7-8.7,20.7-20.7
		C-16.8,409.6-27.7,402.5-37.7,402.5L-37.7,402.5z M-37.6,410.7c6,0,11.7,4.8,11.7,12.6c0,7.6-5.7,12.6-11.7,12.6
		c-6.6,0-11.9-5.3-11.9-12.7C-49.5,416.1-44.3,410.7-37.6,410.7L-37.6,410.7z"/>
	<path id="path3007" class="st1" d="M6.9,402.6c-11.2,0-20,9.8-20,20.8c0,12.5,10.2,20.8,19.8,20.8c5.9,0,9.1-2.4,11.4-5.1v4.1
		c0,7.2-4.4,11.5-10.9,11.5c-6.4,0-9.5-4.7-10.6-7.4l-8,3.3c2.8,6,8.5,12.2,18.7,12.2c11.1,0,19.6-7,19.6-21.7v-37.3h-8.7v3.5
		C15.4,404.5,11.8,402.6,6.9,402.6L6.9,402.6z M7.7,410.7c5.5,0,11.1,4.7,11.1,12.7c0,8.1-5.6,12.6-11.2,12.6
		c-6,0-11.5-4.8-11.5-12.5C-3.9,415.5,1.8,410.7,7.7,410.7L7.7,410.7z"/>
	<path id="path3011" class="st2" d="M65.6,402.5c-10.5,0-19.4,8.4-19.4,20.8c0,13.1,9.9,20.9,20.4,20.9c8.8,0,14.2-4.8,17.4-9.1
		l-7.2-4.8c-1.9,2.9-5,5.7-10.2,5.7c-5.8,0-8.5-3.2-10.2-6.3l27.9-11.6l-1.4-3.4C80.2,408.1,73.9,402.5,65.6,402.5L65.6,402.5z
		 M66,410.5c3.8,0,6.5,2,7.7,4.4L55,422.7C54.2,416.7,59.9,410.5,66,410.5L66,410.5z"/>
	<path id="path3015" class="st4" d="M32.9,442.9h9.2v-61.3h-9.2V442.9z"/>
</g>
</svg>
