<?xml version="1.0" encoding="utf-8"?>
<!-- Generator: Adobe Illustrator 19.2.1, SVG Export Plug-In . SVG Version: 6.00 Build 0)  -->
<svg version="1.1" id="Shape_x5F_Kyiv_1_" xmlns="http://www.w3.org/2000/svg" xmlns:xlink="http://www.w3.org/1999/xlink" x="0px"
	 y="0px" viewBox="0 0 322 313" style="enable-background:new 0 0 322 313;" xml:space="preserve">
<style type="text/css">
	.st0{fill:#9B1E1B;}
</style>
<g id="Shape_x5F_Kyiv">
	<g>
		<path class="st0" d="M313.8,142.7l2.5-5.8l-12.6-14.3l-17.7-5l-1.7-29.3l-8.4-3.4l0.9-11.7l9.2-7.6v-9.2l7.6-4.2l5.1,5L320.6,43
			l-0.9-11L302,16.1l-11,0.8c0,0-11.8-8.4-17.7-14.2c-5.9-5.9-12.7,3.4-16.9,8.4c-4.2,5,0.8,11.7,0.8,11.7l-6.7,4.2l-5.9-3.4
			l-11,10.1l-3.4,11.7L183.1,48l-3.4,10l-27-20.1l-18.6-13.4l-11.8-5.9l-2.5-10.1L77.7,6.9l-7.6,7.6L40.6,5.2l18.6,24.3L55,35.3
			l2.6,9.3l-4.2,2.5c0,0-6.7-8.4-11.8-8.4s-5.9,5-7.6,8.4c-1.7,3.4-10.1,13.4-16.1,16c-5.9,2.5-2.5,10.1,0,15.1
			c2.6,5-1.7,6.7-1.7,6.7L8.5,97.4L6.8,110l-6.7,26.8c0,0,8.4,2.5,13.5,1.7c5.1-0.9,0.8-7.6,0.8-7.6l5.9-6.7l32.9-5l5.9,5.9l7.6,0.8
			L78.5,146l-2.5,5.9l6.7,5.8l5.1-3.4l24.4,26l-6.7,12.5l2.6,10.9l21.9-4.2l1.7,5c0,0-2.6,7.6,1.7,10.1c4.2,2.5,4.2,6.7,10.1,5.9
			c5.9-0.9,12.6,5.8,14.3,10.1c1.7,4.2,1.7,8.4-0.8,13.4c-2.6,5,5.1,8.4,9.2,8.4c4.2,0,3.4,14.2,3.4,14.2l24.5,46.1l32.9-8.4
			l-3.4-6.7l-5.9-6.7l5.1-7.6l-5.9-11.7l10.1-4.2l-0.8-25.1c0,0,0.4-13.4,0.4-17.6c0-4.2-5.3-8.4-7-12.5c-0.6-1.5-3-4-4.9-6.4
			c-3.5-4.3-7.1-8.7-7.1-8.7l23.6-4.2l5.1,5.9l6.7-0.9l9.2,6.7l21.1-6.7l-0.9-17.6h7.6c0,0,1.7,4.2,3.4,8.4c1.7,4.2,5.1,2.5,8.4,0.8
			c3.4-1.7,0.8-10.9,0.8-10.9l11-13.4l1.7-8.4l10.1,0.8l5.9-4.2L313.8,142.7z M49.8,97.4l-7.6-5L38,82.3l5.1-4.2l12.7,2.5l3.4,8.4
			L49.8,97.4z"/>
	</g>
</g>
</svg>
