<?xml version="1.0" encoding="utf-8"?>
<!-- Generator: Adobe Illustrator 19.1.0, SVG Export Plug-In . SVG Version: 6.00 Build 0)  -->
<svg version="1.1" id="Layer_1" xmlns="http://www.w3.org/2000/svg" xmlns:xlink="http://www.w3.org/1999/xlink" x="0px" y="0px"
	 viewBox="-152 387.2 251.5 66.7" style="enable-background:new -152 387.2 251.5 66.7;" xml:space="preserve">
<style type="text/css">
	.st0{display:none;fill:#5A72B4;}
	.st1{fill:#00659D;}
	.st2{fill:#201600;}
	.st3{fill-rule:evenodd;clip-rule:evenodd;fill:#201600;}
	.st4{fill-rule:evenodd;clip-rule:evenodd;fill:#FFFFFF;}
</style>
<path class="st0" d="M2.6,419.7c-2.5,0-4.3,0.8-6.1,1.6V440c1.7,0.2,2.7,0.2,4.4,0.2c6,0,6.8-2.7,6.8-6.5v-8.9
	C7.7,422,6.7,419.7,2.6,419.7 M-36.9,418.7c-4.1,0-5.1,2.3-5.1,5.1v1.6h10.1v-1.6C-31.9,420.9-32.8,418.7-36.9,418.7 M-113.5,438.2
	c0,2.2,1,3.4,3.4,3.4c2.5,0,3.9-0.8,5.8-1.6v-4.4h-5.4C-112.4,435.5-113.5,435.9-113.5,438.2 M41.1,419.7c-4.1,0-5.6,2.3-5.6,5.1
	V435c0,2.8,1.4,5.1,5.6,5.1c4.1,0,5.6-2.3,5.6-5.1v-10.2C46.6,422,45.2,419.7,41.1,419.7 M-133.8,449.6h-12.1v-29.3h-6.1v-10.2h6.1
	V404c0-8.3,3.4-13.2,13.2-13.2h8.1v10.1h-5.1c-3.8,0-4,1.4-4,4.1v5.1h9.2l-1.1,10.1h-8.1v29.4H-133.8z M-92.2,449.7h-10.1l-0.5-2.5
	c-4.6,2.6-8.8,3-11.5,3c-7.4,0-11.4-5-11.4-11.8c0-8.1,4.6-11,12.9-11h8.4v-1.7c0-4.1-0.5-5.3-6.8-5.3h-10.4l1-10.1h11.4
	c14,0,17,4.4,17,15.6V449.7z M-57.7,421c-6.3-1.1-8.1-1.3-11.2-1.3c-5.5,0-7.1,1.2-7.1,5.8v8.7c0,4.6,1.6,5.8,7.1,5.8
	c3,0,4.8-0.2,11.2-1.3v9.9c-5.5,1.2-9.1,1.6-12.2,1.6c-13.1,0-18.3-6.9-18.3-16.8v-7.1c0-9.9,5.2-16.8,18.2-16.8
	c3,0,6.6,0.3,12.2,1.6v9.9H-57.7z M-19.7,433.4H-42v0.8c0,4.6,1.6,5.8,7.1,5.8c4.9,0,7.9-0.2,14.2-1.3v9.9
	c-6.1,1.2-9.2,1.6-15.2,1.6c-13.1,0-18.2-6.9-18.2-16.8v-8.1c0-8.7,3.9-15.8,17.2-15.8c13.4,0,17.2,7,17.2,15.8V433.4z M19.8,433.6
	c0,9.6-2.7,16.6-19.3,16.6c-6,0-9.5-0.5-16.1-1.5v-54.8l12.2-2V411c2.6-1,6-1.5,9.1-1.5c12.2,0,14.2,5.4,14.2,14.2L19.8,433.6
	L19.8,433.6z M58.8,433.8c0,8.3-3.4,16.3-17.7,16.3s-17.8-8-17.8-16.3v-8c0-8.3,3.5-16.3,17.8-16.3s17.7,8,17.7,16.3V433.8z
	 M97.7,433.8c0,8.3-3.4,16.3-17.7,16.3s-17.8-8-17.8-16.3v-8c0-8.3,3.5-16.3,17.8-16.3s17.7,8,17.7,16.3V433.8z M137.7,449.6h-13.2
	L113.4,431v18.6h-12.2v-55.7l12.2-2v35.9l11.1-17.6h13.2l-12.2,19.3L137.7,449.6z M80,419.7c-4.1,0-5.6,2.3-5.6,5.1V435
	c0,2.8,1.4,5.1,5.6,5.1c4.1,0,5.6-2.3,5.6-5.1v-10.2C85.6,422,84.1,419.7,80,419.7"/>
<g>
	<path class="st1" d="M33.3,392c0-2.6,2.2-4.8,4.9-4.8h56.4c2.7,0,4.9,2.1,4.9,4.8V449c0,2.6-2.2,4.8-4.9,4.8H38.2
		c-2.7,0-4.9-2.1-4.9-4.8V392L33.3,392z"/>
	<polygon class="st2" points="-152,443 -124.4,443 -124.4,433.9 -142,433.9 -142,400.2 -152,400.2 -152,443 	"/>
	<path class="st3" d="M-110.4,443v-30.1h-10V443H-110.4L-110.4,443z M-115.4,408.8c3.5,0,5.7-2.3,5.7-5.2c-0.1-3-2.2-5.2-5.6-5.2
		c-3.4,0-5.7,2.2-5.7,5.2C-121,406.5-118.8,408.8-115.4,408.8L-115.4,408.8L-115.4,408.8z"/>
	<path class="st3" d="M-105.7,443h10v-16.8c0-0.9,0.1-1.8,0.3-2.4c0.7-1.8,2.4-3.7,5.1-3.7c3.6,0,5.1,2.8,5.1,6.8V443h10v-17.2
		c0-9.2-4.9-13.5-11.5-13.5c-5.4,0-7.8,3-9.1,5.1h0.1v-4.4h-10C-105.6,415.7-105.7,443-105.7,443L-105.7,443z"/>
	<path class="st2" d="M-61.1,400.2h-10V443h10v-9.8l2.5-3.1l7.8,12.9h12.3l-13.2-18.7l11.5-12.7h-12c0,0-8.2,11.4-8.9,12.7V400.2
		L-61.1,400.2z"/>
	<path class="st3" d="M-11.8,430.4c0.1-0.8,0.3-2.3,0.3-3.9c0-7.8-3.9-15.7-14.3-15.7c-11.1,0-16.2,8.8-16.2,16.8
		c0,9.9,6.2,16,17.2,16c4.3,0,8.4-0.6,11.6-2l-1.3-6.6c-2.7,0.9-5.5,1.3-8.9,1.3c-4.7,0-8.7-1.9-9.1-6L-11.8,430.4L-11.8,430.4z
		 M-32.5,423.7c0.3-2.6,2-6.4,6.2-6.4c4.5,0,5.6,4,5.6,6.4H-32.5L-32.5,423.7z"/>
	<path class="st3" d="M13.3,400.2v14.2h-0.1c-1.4-2.1-4.5-3.5-8.5-3.5c-7.7,0-14.5,6.2-14.4,16.7c0,9.8,6.1,16.1,13.7,16.1
		c4.1,0,8.1-1.8,10.1-5.3h0.2l0.4,4.6h8.9c-0.1-2.1-0.3-5.8-0.3-9.4v-33.4H13.3L13.3,400.2z M13.3,429.1c0,0.8-0.1,1.5-0.2,2.2
		c-0.6,2.8-3,4.7-5.9,4.7c-4.1,0-6.8-3.3-6.8-8.6c0-4.9,2.3-8.9,6.9-8.9c3.1,0,5.3,2.1,5.9,4.7c0.1,0.6,0.1,1.2,0.1,1.8V429.1
		L13.3,429.1z"/>
	<path class="st4" d="M53.4,443v-30.1h-10V443H53.4L53.4,443z M48.4,408.8c3.5,0,5.7-2.3,5.7-5.2c-0.1-3-2.2-5.2-5.6-5.2
		c-3.4,0-5.7,2.2-5.7,5.2C42.8,406.5,45,408.8,48.4,408.8L48.4,408.8L48.4,408.8z"/>
	<path class="st4" d="M58.9,443h10v-16.8c0-0.9,0.1-1.8,0.3-2.4c0.7-1.8,2.4-3.7,5.1-3.7c3.6,0,5.1,2.8,5.1,6.8V443h10v-17.2
		c0-9.2-4.9-13.5-11.5-13.5c-5.4,0-7.8,3-9.1,5.1h0.1v-4.4h-10C59,415.7,58.9,443,58.9,443L58.9,443z"/>
</g>
</svg>
