<?xml version="1.0" encoding="utf-8"?>
<!-- Generator: Adobe Illustrator 19.2.1, SVG Export Plug-In . SVG Version: 6.00 Build 0)  -->
<svg version="1.1" id="Shape_x5F_Manila_1_" xmlns="http://www.w3.org/2000/svg" xmlns:xlink="http://www.w3.org/1999/xlink"
	 x="0px" y="0px" viewBox="0 0 210 405" style="enable-background:new 0 0 210 405;" xml:space="preserve">
<style type="text/css">
	.st0{fill:#9B1E1B;}
</style>
<g id="Shape_x5F_Manila">
	<g>
		<path class="st0" d="M210.5,8.9L210,7.7l-0.8,0.4l-0.4,0.2l-0.4-0.2L207.7,8h-0.5h-0.6h-0.5h-0.7h-0.9h-0.6h-0.5h-0.6h-0.5l-1,0.1
			h-0.7l-0.4,0.2h-0.1H200l-0.5,0.1h-0.4l-0.5,0.1h-0.7l-0.4,0.1L197,8.7h-0.6L196,8.9h-0.4h-0.7L195,9l0,0h-0.2h-0.7h-0.3h-0.6
			L193,9.1h-0.2h-0.5H192L191.7,9h-0.3l0,0h-0.1l-0.2-0.1l-0.4-0.3L190,8.3l-0.7-0.1l-1.1,0.2L188,8.5l0,0v0.1h-0.3l-0.3,0.3
			L187.2,9l-0.4,0.4l-0.4,0.3l-0.4,0.6l-0.4,0.6v0.9l0.2,0.5v0.1l-0.1,0.2l-0.4,0.4l-0.3,0.4l-0.3,0.2l-0.4,0.2l-0.8,0.4l-0.2,0.5
			l-0.2,0.4l-0.4-0.1h-0.8l-0.6,0.1h-0.4h-0.3h-0.8l-0.6,0.1l-0.5,0.3l-0.2,0.1v-0.1l-0.3-0.5l-0.3-0.3l-0.7-0.6h-0.1v-0.2l-0.2,0.2
			l-0.7,0.2l-0.5,0.8l-0.1,0.4l-0.3,0.3l-0.1,0.4h-0.1h-0.4v-0.3l-0.3-0.6l-0.4-0.7l-1-0.4l-0.9,0.2l-0.2,0.3l-0.5,0.3l-0.1,0.5
			l-0.1,0.2l-0.2,0.5l-0.2,0.4l-0.1,0.5l-0.1,0.1v0.1l0,0l-0.1-0.1V17l-0.4-0.6l-0.7-0.4l-0.6,0.1l-0.4,0.1l-0.7,0.1l-0.2,0.3h-0.1
			l0,0l-0.2,0.1l0.1-0.2l0.2-0.4l0.1-0.8l-0.3-0.5l-0.3-0.4l0.2-0.4l-0.3-0.8l-0.3-0.6l-0.9-0.5l-0.5,0.1h-0.8l-0.2,0.1l-0.3-0.7
			l-0.6-0.5L162,11l-0.7,0.5l-0.1,0.6v0.5v0.1l-0.4-0.2l-0.4-0.2l-0.5-0.1h-0.4l-0.1-0.4l-0.2-0.5L159,11l-0.1-0.2l-0.2-0.4
			l-0.1-0.3l-0.9-0.8l-0.9,0.7l-0.3,0.6l-0.1,0.3l-0.2,0.4l-0.2,0.3l0,0h-0.1l0,0l-0.2,0.1l-0.4,0.2l-0.6,0.3l-0.3,0.2l-0.1,0.1
			v-0.3v-0.5l-0.2-0.7l-0.4-0.6l-0.7-0.3l-0.6-0.2h-0.5l-0.6,0.1l-0.4,0.6l0,0l0,0h-0.1h-0.2h-0.7v-0.3l-0.1-0.4l-0.1-0.5l-0.4-0.5
			L148.5,9l-0.2-0.3l-0.5-0.3l-0.9-0.2l-0.5,0.3l-0.6,0.2l-0.2,0.4v0.1l-0.2,0.4l-0.1,0.2l-0.1,0.2l0,0l0,0l-0.1,0.1V9.8l0.1-0.4
			l-0.1-0.6l-0.2-0.6l-0.3-0.5L144,7.3l-1.1,0.1L142.2,8l-0.1,0.2L142,7.9l-0.2-1.1V6.6V5.9l-1-0.4l-0.3-0.1l-0.3-0.1l-0.5-0.1h-0.1
			l0,0l-0.1-0.3l-0.1-0.4L139,4.2l-0.4-0.6h-1.2L137,4.1l-0.1-0.2l-0.7-0.6h-1l-0.3,0.1h-0.4l-0.4-0.1h-0.4l-0.9-0.1l-0.6,0.2h-0.1
			l-0.3-0.9L131.3,2l-0.5-0.2l-0.6-0.1h-0.3l-0.3-0.1h-0.3l-0.7-0.2h-0.5l-0.7-0.1l-0.5,0.2l-0.3,0.1h-0.2l-0.7,0.1l-0.3,0.2h-0.2
			h-0.3h-0.3h-0.3l-0.2-0.1l-0.4-0.2l-0.3-0.1l-0.9-0.1L122,1.1h-0.3h-0.4l-0.6,0.1l-0.8,0.5l0,0l0,0l-0.5-0.1l-0.9,0.1L118,2.1
			l-0.3,0.2l-0.2,0.1h-0.1l-0.2-0.1h-0.1l-0.5-0.7l-1-0.2l-0.8,0.4L114.3,3v0.7V4l-0.8-0.2l-0.9,0.5L112.5,5l-0.1,0.2l-0.1,0.3h-0.5
			l-0.4,0.4h-0.1L110.9,6L110,6.4l-0.3,1.3l0.8,0.5l0.4,0.3l0.4,0.1l-0.1,0.2L111,9l-0.4,0.7v1.2l0,0l-0.5,0.3l-0.5,0.4l-0.2,0.6
			l-0.3,0.9v0.8l-0.2,0.3l-0.3,0.6v0.3l-0.2,0.2v0.8v0.1l-0.3,0.6l-0.1,0.6l-0.2,0.4l-0.1,0.6v0.4v0.1l-0.2,0.4v0.4l-0.1,0.2
			l-0.1,0.3l-0.1,0.5V21l0,0H107l-0.6,0.1l-0.4,0.3l-0.3,0.2l-0.1,0.1h-0.2l-0.5,0.1l-0.3,0.2h-0.1l-0.4,0.1l-0.5,0.3l-0.2,0.1
			l-0.2,0.1l-0.2,0.1h-0.2l-0.4,0.2L102,23l-0.6,0.2l-0.2,0.2l-0.2,0.1l-0.4,0.2h-0.2l-0.6,0.2L99.7,24l0,0h-0.3l-0.5,0.2l-0.4,0.3
			h-0.1L98,24.6l-0.5,0.1l-0.3,0.2l-0.4,0.2l-0.2,0.1l-0.7,0.2l-0.5,0.1l-0.6,0.2l-0.2,0.2L94.1,26l-0.3,0.3l-0.2,0.1L93,26.8
			l-0.3,0.1L92,27l-0.4,0.2l-0.3,0.2l-1,0.4L90,27.9l-0.3,0.2l-0.3,0.1l-0.5,0.2l-0.3,0.2l-0.3,0.1l-0.6,0.1l-0.3,0.1l-0.1-0.1h-0.1
			L87,28.6l-0.3-0.4L86,27.7l-0.8-0.4h-0.7l-1,0.2l-0.7,0.2L81.9,28l-0.3,0.3L81,28.5L80.9,29l-0.4,0.1L80,29.4h-0.1h-0.8l-0.5,1
			v0.8l-0.2,0.5l-0.1,1l0.1,0.5v0.1l-0.3,0.6l0.2,0.7l0.3,0.6l0.1,0.3l0.1,0.2l0,0l-0.1,0.1l-0.3,0.1l-0.6,0.2l-0.3,0.2L77,36.4
			h-0.2l0,0h-0.1l-0.2-0.1l-0.1-0.1l-0.4,0l-0.1-0.1L75.7,36l-0.2-0.2L75,35.6l-0.5-0.3h-0.7L73,35.4l-0.4,0.7l-0.2,0.5l-0.1,0.3V37
			l0,0L72,37.5l-0.1,0.2l-0.3,0.2l-0.3,0.7L71,39.1l-0.1,0.4l-0.2,0.2l-0.2,0.8v0.1l-0.4,0.3l-0.2,0.6l-0.1,0.3L69.5,42l-0.3,0.6
			l-0.1,0.2l-0.4,0.8l-0.2,0.7v0.6l0.1,0.9l0.1,0.3v1.5v0.3v0.2l-0.1,0.4V50v0.3l0.1,0.6v0.5L69,52l0.2,0.5l0.1,0.4l0.3,0.5l0.2,0.5
			l0.1,0.8l0.5,0.4v0.4l0,0L70,55.4h-0.7L69,56h-0.1l0,0h-0.4h-0.3h-0.1h-0.4h-0.4L67,56.1h-0.1L66.5,56h-0.2L66,55.8l-0.3-0.1
			l-0.4-0.1l-1,0.2L63.7,56l-0.3,0.2l-0.3,0.1l0,0H63h-0.4L62,56.6L61.5,57l-0.2,0.2l-0.6,0.4l-0.2,0.2L60.2,58L60,58.2l-0.2,0.1
			l0,0h-0.1l-0.2-0.1l-0.1-0.1V58l-0.1-0.5L58.7,57l-0.6-0.2h-0.5L57.1,57l-0.3,0.1l-0.6,0.3l-0.6,0.3l-0.3,0.2L55,58l-0.7,0.4
			l-0.5,0.2l-0.4,0.6l-0.2,0.2L53,59.7l-0.3,0.1L52,60.1l-0.2,0.2l-0.4,0.2l-0.1,0.1h-0.2l0,0l-0.3,0.1l0,0l-0.3-0.4L50.3,60
			l-0.5-0.6h-0.2l-0.2-0.2l-0.2-0.3l-0.3-0.3l-0.1-0.2l-0.3-0.3L48.4,58v-0.1v-0.3v-0.5l-0.1-0.5L48,56.2L47.8,56v-0.4l-0.5-0.5V55
			l-0.5-0.7l-0.1-0.2V54l-0.3-0.5l-0.2-0.2l-0.1-0.6l-0.7-0.5L45.1,52l-0.6-0.3l0,0l-0.1-0.2l-0.1-0.3v-0.4l-0.2-0.5L43.9,50
			l-0.2-0.4l-0.2-0.4l-0.3-0.5l-0.3-0.1l-0.1-0.1l-0.2-0.2l-0.4-0.4L42,47.7l-0.4-0.4l-0.8-0.1h-0.5h-0.5l-0.3,0.1l-0.4,0.1
			l-0.7,0.2h-0.1h-0.1h-0.1h-1.3h-0.1h-0.1l-0.2-0.2l-0.1-0.2l-0.2-0.3l-0.3-0.3l-0.1-0.1l-0.1-0.1l0,0v-0.7L35.3,45l-0.4-0.5
			l-0.7-0.2l-0.5-0.1h-0.4L32.7,44h-0.8h-0.5h-0.8L30,44.1l-0.3,0.3l-0.5,0.1l-0.5,0.6l-0.2,0.5L28.4,46l-0.1,0.2l-0.2,0.3V47l0,0
			L28,47.2l-0.2,0.2h-0.3l0,0h-0.3l-0.6,0.1h-0.3h-0.6l-0.3-0.1L25,47.2h-0.1L24.7,47l-0.6-0.2l-0.4-0.2l-0.3-0.2l-0.3-0.2L22.7,46
			l-0.2-0.1l-0.2-0.1L22,45.6l-1-0.2l-1,0.1l-0.6,0.9v0.4h-0.1L19,47.6V49l0.1,0.3v0.3v0.3v0.2v0.5l0.4,0.6l0.1,0.2l0.2,0.6l0.8,0.3
			h0.1l0.1,0.2l0.3,0.4l0.1,0.1v0.1l0.1,0.4l0.2,0.2v0.4l0.1,0.2l-0.1,0.5l0.4,0.5l0.1,0.2l0.1,0.6l0.2,0.4l0.2,0.4l0.2,0.1l0.1,0.4
			l0.3,0.4l0.2,0.4l0.1,0.1l0.1,0.3l0.1,0.2l0.1,0.5l0.4,0.3l0.2,0.3l0.2,0.6l0.5,0.7l0.1,0.1l0.1,0.2l0.3,0.3l0.1,0.3l0.3,0.5
			l0.2,0.1l0.1,0.2l0.3,0.5v0.2l0.1,0.5v0.3l0.1,0.4V65v0.3l0.1,0.4v0.5l0.1,0.5l0.4,0.5l0.3,0.2l0,0l0.1,0.3l0.3,0.4l0.2,0.3
			l0.4,0.4l0.2,0.6l0.3,0.3l0.2,0.3l0.7,0v0.1l0.3,0.4l-0.1,0.1l0.5,0.3l0.3,0.3l0.1,0.3l0.2,0.4l0.3,0.3l0.3,0.2l0.2,0.3l0.2,0.2
			l0.2,0.3l0.2,0.2l0.3,0.4l0.2,0.4l0.3,0.5l0.3,0.2l0.1,0.1l0.2,0.2l0.2,0.4l0.3,0.5l0.2,0.2l0.3,0.6l0.3,0.4l0.4,0.4l0.1,0.2
			l0.1,0.3l0.3,0.4l0.4,0.3l0.2,0.1l0,0l0.3,0.6l0.3,0.4l0.2,0.2l0.4,0.4l0.3,0.5l0.3,0.2l0.1,0.1l0.1,0.1l0.3,0.6l0.3,0.4l0.1,0.2
			l0.2,0.3l0.2,0.3l0.1,0.2l0.1,0.3l0.1,0.2l-0.1,0.3L40,84.4l-0.1,0.4L39.8,85l-0.2,0.4l-0.1,0.3L39.4,86l-0.2,0.3l-0.1,0.2
			l-0.2,0.1l-0.2,0.1L38.6,87l-0.4,0.3v0.3l-0.1,0.1l-0.4,0.6l-0.2,0.2l-0.4,0.3l-0.2-0.1l-0.2-0.2L36.4,88L36,87.6l-0.3-0.3
			l-0.2-0.2L35.3,87l-0.6-0.5l-0.3-0.1L34.2,86l-0.3-0.2l0,0l-0.1-0.2l-0.3-0.4L33.3,85l-0.1-0.2l-0.4-0.3l-0.2-0.3L32.4,84L32,83.9
			l-0.3-0.2l-0.3-0.3L31,83.1L30.9,83l-0.2-0.2l-0.1-0.1l-0.1-0.2l-0.3-0.2L30,82l-0.1-0.1l-0.2-0.3l-0.2-0.1v-0.1l-0.1-0.3L29,80.8
			l-0.3-0.3l-0.3-0.2L28,80.1l-0.4-0.2l-0.1-0.3l-0.3-0.2l-0.1-0.1l-0.5-0.5l-0.3-0.4L26,78.3h-0.1l-0.1-0.1l-0.2-0.3l-0.2-0.2
			l-0.1-0.3L25,77.2L24.9,77l-0.5-0.4l-0.3-0.2l-0.2-0.2l-0.1-0.1L23.7,76l-0.4-0.3L23,75.5l-0.3-0.4L22.5,75l-0.2-0.3l-0.4-0.2
			l-0.4-0.4l-0.2-0.2l-0.5-0.4l-0.2-0.3l-0.4-0.3l-0.5-0.5l-0.3-0.3l-0.3-0.4l-0.2-0.2l-0.3-0.3L18.4,71l-0.1-0.2L18,70.7l-0.1-0.1
			l-0.3-0.4L17.1,70H17l-0.2-0.2l-0.2-0.3l-0.3-0.3L16.2,69l-0.3-0.5l-0.5-0.2l-0.2-0.1L15,67.9l-0.4-0.3l-0.2-0.3l-0.5-0.4
			l-0.7-0.2l-0.8-0.1l-0.2,0.1h-0.1L12,66.9l-0.2-0.1l-0.6-0.1H9.9H9.8l0,0l0,0H9.6L9,67.1l-0.4,0.4L8.2,69l0.1,1l0.3,0.6l0.1,0.3
			V71l-0.2,0.5l-0.2,0.2L8,72l-0.1,0.2l-0.3,0.4v0.3L7.4,73l-0.3,0.3l-0.3,0.3l-0.2,0.2L6.5,74l-0.2,0.2l-0.4,0.4l-0.2,0.2L5.6,75
			H5.5l-0.3,0.1l0,0l-0.3,0.1l-0.4,0.5l-0.2,0.2L3.9,76l-0.3,0.4l-0.3,0.1L3,76.8l-0.2,0.1l-0.5,0.3L2,77.3l-0.8,0.4l0.1,0.2L1,78.1
			l1,1.2l0.5,0.3l0.3,0.3l0.6,0.5l0.7,0.2l0.1,0.1L4.6,81l0.1,0.1l0.1,0.2L5,81.8l0.7,0.7l0.1,0.1l0.4,0.9L7,84l0.7,0.4L8,84.6
			l0.4,0.3l0.2,0.2L9,85.5l0.8,0.4l0.4,0.5l0.4,0.5l0.3,0.2l0.1,0.1l0.3,0.3l0.3,0.3l0.3,0.4l0.2,0.2l0.1,0.1l0.7,1.1l0.3,0.2
			l0.2,0.2l0.2,0.3l0.5,0.6l0.6,0.2l0.2,0.3l0.5,0.4l0.2,0.2l0.2,0.3l0.4,0.4l0.3,0.3l0.3,0.4L16.6,94l0.4,1l0.5,0.5l0.3,0.4
			l0.3,0.3l0.4,0.4l0.1,0.1l0.2,1l0.4,1.3l0.4,0.3L20,100l0.4,0.3l0.3,0.4l0.6,0.3l0.5,0.4l0.3,0.2l0.3,0.2l0.4,0.5l0.3,0.2l0.3,0.6
			l0.4,0.4l0.1,0.1l0.3,0.9l0.4,0.3l0.2,0.5l0.4,0.8l1,1l0.3,0.3l0.2,0.3l0.4,0.8l0.5,0.3l0.1,0.1l0.3,0.7l0.5,0.4l0.2,0.3l0.4,0.7
			l0.4,0.4l0.1,0.2l0.3,0.6l0.4,0.7l0.4,0.5l0.2,0.2l0.4,0.6l0.2,0.2l0.3,0.7l0.5,0.5l0.2,0.2l0.3,0.6l0.4,0.5l0.5,0.4l0.2,0.1
			l0.3,0.5l0.3,0.3l0.3,0.6l0.3,0.7l0.3,0.5l0.3,0.7l0.4,0.8l0.5,0.4l0.3,0.3l0.3,0.4l0.3,0.7l0.3,0.4l0.4,0.6l0.2,0.5l0.4,0.7
			l0.1,0.1l-0.1,0.1l-0.7,0.3l-0.4,1v2.3l0.6,0.5l0.4,0.8L39,131l0.3,0.6l0.3,0.4l0.4,0.8l0.5,0.4l0.2,0.2l0.3,0.8l0.3,0.4l0.3,0.7
			l0.3,0.4l0.4,0.8l0.3,0.2l0.2,0.7l0.7,0.5l0.2,0.3H43h-5.5l-2.6-0.1l-0.3-0.2l-1.1-0.1l-1.7,0.2l0.1,1.5l0.4,0.9l0.4,0.7l0.4,0.8
			l0.2,0.3l0.3,0.6l0.4,0.6l0.4,0.4l0.5,0.7l5.6,0.3h4.7v0.1l0.4,9.1l0.3,5.1l0.3,4.6l0.3,4.6h-0.1l-2.4,0.3l-1.5,0.4l-0.9,0.4
			l-1.3,0.4l-1.4,0.3l-1.1,0.3l-1.4,0.4l-1.3,0.3l-1.9,0.6v2.3l0.4,1.4l0.3,1.6l0.8,0.8h1.4l2.6-0.4l2.6-0.3l2.6-0.4l2.6-0.3
			l2.8-0.4h0.1v0.4l0.3,1.2l0.5,1.1l1,0.7h0.7l0.3,0.1l0.1,0.1l0.2,0.1l0.1,0.1l-0.4,0.3l-0.1,0.2c0,0-0.1,0.2-0.2,0.4l-0.5,0.4
			l-0.2,0.5l0,0l-0.3,0.2l-0.3,0.3l-0.3,0.3l-0.4,0.6v0.7l0.1,0.5l0.2,0.3l0.2,0.4L51,185l0.2,0.2l0.3,0.4l0.3,0.2l0.2,0.4l0.3,0.1
			v0.1l0.4,0.4l0.4,0.3l0.3,0.2l0.4,0.5l0.4,0.4l0.2,0.1l0.2,0.3h0.1v0.1l0.5,0.3l0.2,0.3l0.2,0.3l0.3,0.4l0.5,0.9l0.6,0.3l1.2,0.6
			l0.4-0.8l0.2-0.1l0.6-0.6v-0.1c0,0,0.1-0.1,0.2-0.3l0.2-0.1l0.1,0.5l0.7,0.8l0.4,0.3l0.1,0.2l0.6,0.6l0.6,0.3l1,0.6l0.2,0.4
			l0.3,0.8l1.2,0.6l1,0.3l0.6,0.2v0.1L67,197l0.3,0.5l0.1,0.7l0.6,0.7l0.3,0.8l0.3,0.8l0.4,0.6l0.2,0.5l0.5,0.7l0.2,0.6l0.2,0.7
			l0.3,0.7l0.4,0.8l0.3,0.5l0.2,0.7v0.3l-0.1,0.1l-0.3,0.2l-0.5,0.3l-0.1,0.1l-1,0.2l-0.4,0.6l-0.2,0.2l-0.4,0.2l-0.7,0.3l-0.5,0.3
			l-0.6,0.3l-0.9,0.9l-0.1,1.6l0.1,0.8l0.4,0.9v0.8c0,0.4,0.2,1,0.2,1.2l0,0l0.2,0.6c0.2,0.4,0.4,1,0.4,1.2c0,0.3,0.1,1.4,0.1,2v0.2
			l0.3,0.4l0.2,1v0.4l-0.3,0.1l-0.6,0.4l-0.3,0.3l-0.7,0.4l-0.3,2.5v2.4l-0.1,1.4l0.2,6.4l0.1,0.6l-0.1,0.1l0.1,0.7l0.1,0.8v0.7
			l-0.4,1.3l0.2,1.1v2v1.5l-0.4,0.9l0.1,1c-0.1,0.2-0.1,0.5-0.2,0.7c0,0,0,0.1-0.1,0.1l-0.1,0.1l-0.2,0.6l-0.1,0.2l-0.3,0.2
			l-0.2,0.5l-0.4,0.6l-0.2,0.6l-0.3,0.5l-0.4,0.6l-0.3,0.7l-0.3,0.7l-0.4,1.1l-0.2,0.4l-0.1,0.1l-0.4,0.6l-0.2,0.7v1.3l1.1,0.6
			l1.2,0.4l0.8,0.3l0.6,0.4l1,0.3l0.6,0.4l1.2,0.4l1,0.2l0.6,0.3l0.9,0.4l0.7,0.4l1.6,0.5l1.2,0.1l0.8,0.4l0.3,0.1l-0.3,1.1
			l-0.3,1.3l-0.3,0.7l-0.4,0.8l-0.2,1c-0.1,0.2-0.2,0.6-0.2,0.8c0,0.2-0.1,0.4-0.1,0.5l-0.3,0.8l-0.1,0.2l-0.2,0.2l-0.4,0.4L71,269
			l-2.3,0.3l-0.4,0.4l-1.1,0.5l-0.2,1.3l-0.2,0.6v1l-0.2,0.2l-0.1,0.4l-0.4,0.6v0.1l-0.1,0.1l-0.2,0.4l-0.7,0.5l-0.1,0.8l-0.1,0.3
			l-0.3,0.3l-0.3,0.5l-0.1,0.3l-0.3,0.3l-0.2,0.4l-0.2,0.1l-0.4,0.3l-0.7,0.7l-0.1,0.2l-0.7,0.4l-0.7,0.9l-0.2,0.3l-0.8,0.5
			l-0.4,0.3l-0.7,0.4l-0.8,0.3l-0.5,0.7l-0.2,0.1c-0.2,0.1-0.5,0.3-0.6,0.4l-0.9,0.4l1.1,1.9l0.3,0.4l0.2,0.4l0.2,0.4l-0.8-0.1
			l-1,0.2l-0.5,0.7L55,289l-0.1,0.4l-0.3,0.6l0.1,1.2l0.8,0.6h0.1l-0.2,0.1l-0.4,0.3l-0.1,0.1l-0.3,0.1l-0.3,0.3l-0.6,0.5l-0.3,0.6
			l-0.2,0.8l0.1,1.1l0.4,0.2l0.1,0.4l0.3,0.5l0.2,0.2l0.1,0.4l0.2,0.5l0.1,0.2l0,0v0.8l0.1,0.6l0.4,1.1l0.2,0.4l0.2,0.4l0.2,0.3v0.1
			l0.1,0.4l0.3,0.4l0.1,0.2l0.3,0.5l0.2,0.4l0.1,0.2l0.1,0.2v0.5v0.4l-0.1,0.2l-0.3,0.5l0.1,0.2l-0.4,0.5l0.2,0.2l-0.3,0.2l0.6,0.8
			v0.2l-0.1,1.1l0,0v0.2l-0.2,0.3l0.3,0.8v0.2l-0.2,0.5l0.3,0.9l0.3,0.4v0.3l0.5,0.7l0.1,0.1v0.3l0.3,0.4l0.2,0.3l0.3,0.6l0.3,0.5
			l0.1,0.4l0.1,0.5L59,317l0.3,0.9l0.4,0.6l0.6,0.7l0.4,0.3l0.5,0.6l0.6,0.4l0.1,0.1l0.2,0.4l0.8,0.7l0.6,0.5l0.3,0.2l0.5,0.6
			l0.9,0.5l0.6,0.2l0.3,0.1l0.3,0.2l0.7,0.3l0.6,0.2l0.6,0.2l0.5,0.3l0.3,0.1l0.1,0.4l0.1,0.4v0.7l-0.1,0.6l0.2,0.8l0.2,0.6l0.3,0.8
			l0.2,0.4l0.2,0.5l0.2,0.3v0.3l0.2,1l0.5,0.5l0.5,0.4v0.9l-0.1,1.1l0.4,1l1.2,0.3l1-0.1l0,0l0.1,0.2l0.1,0.5l0.1,0.5l0.2,0.5v0.4
			l0.1,0.7l0.2,0.6v0.5l-0.1,0.1l-0.3,0.7l-0.3,1.2l1,0.4l0.3,0.3l0.6,0.3l0.4,0.2l0.2,0.4l0.6,0.8l0.3,0.6l0.5,0.7l0.3,0.5l0.2,0.4
			l0.1,0.7l0.2,0.6l0,0.2l-0.1,0.6l0.2,0.5l0.1,0.3v0.6l0.3,0.9l0.8,0.6l1.2,0.3l0.7-0.1v0.3l0.3,0.7l0.1,0.2l0.2,0.4l0.2,0.4
			l0.3,0.4l0.3,0.4l0.3,0.2L84,355l0.4,0.3l0.1,0.2l0.2,0.4l0.1,0.3l0.2,0.5l0.3,0.4l0.1,0.2l0.3,0.6l0.2,0.2l0.1,0.3v0.1l-0.1,0.3
			l-0.1,0.3l-0.1,0.2l-0.3,0.3l-0.5,0.6l-0.1,1.1l0.3,0.7l0.6,0.3l0.8,0.2l0.8,0.2l0.8,0.3l0.1,0.1l0.3,0.3l0.8,0.5l0.2,0.3l0.8,0.5
			l0,0l-0.1,0.5l-0.1,0.2l-0.3,0.6l-0.1,0.4l-0.3,0.4l0.1,0.8l0.2,0.5l0.3,1l0.3,0.6l0.1,0.3l0.2,0.5v0.8l0.6,0.4l0.2,0.2l0.1,0.4
			l0.3,0.5l0.1,0.4l0.2,0.8l0.9,0.2l0.7,0.4l0.8,0.2l0.4,0.2l0.5,0.2v0.1v0.4l-0.2,0.7l-0.1,0.9L95,378l-0.1,0.6l-0.1,0.5l-0.1,0.4
			l-0.2,0.4l-0.3,0.3l-0.2,0.6l-0.2,0.3l-0.5,0.5l-0.1,0.4l-0.3,0.3l-0.2,0.8l-0.1,0.8v0.5l-0.1,0.2l-0.2,0.5v0.8v0.4l-0.1,0.5
			l0.1,0.6v0.1l-0.1,0.2v0.8l-0.2,0.3l0.2,0.4v0.1l-0.1,1.3l-0.1,0.9l0.1,0.5v1.5v0.6l-0.2,0.5v0.5l-0.1,0.5l0.1,0.3v0.2l-0.1,0.1
			l-0.2,1.1l-0.1,0.7l-0.1,0.7l-0.1,0.4l-0.1,0.7l-0.1,0.3l-0.3,0.7v0.8l-0.2,0.6l-0.1,0.7l-0.2,0.6l-0.2,2.2l1.7-0.6h0.4l0.9-0.4
			l0.7-0.2l0.5-0.3l0.9-0.3l0.4-0.3l0.9-0.3l0.3-0.2l0.4-0.2l0.7-0.3l0.4-0.2l0.7-0.3l0.3-0.1l0.7-0.3l0.3-0.2l0.6-0.1l0.4-0.4
			l0.9-0.2l0.5-0.5l0.3-0.4l0.2-0.4l0.6-0.2l0.3-0.4l0.1-0.1l0.3-0.2l0.5-0.4l0.5-0.4l0.1-0.3l0.5-0.3l0.3-0.3l0.2-0.2l0.4-0.2
			l0.4-0.4l0.3-0.2l0.6-0.5l0.1-0.2l0.7-0.1l0.6-0.3l0.3-0.2l0.7-0.2l0.4-0.4l0.5-0.4l0.3-0.3l0.5-0.4l0.2-0.4l0.5-0.3l0.1-0.5h0.1
			l0.1-0.1l0.4-0.2l0.4-0.4l0.3-0.3l0.3-0.7l0.1-0.4l0.1-0.2l0.2-0.4l0.2-0.5l0.2-0.3l0.1-0.1l0.2-0.1l0.6-0.1l0.1-0.2l0.4,0.4
			l0.8-0.3l0.8-0.3l0.2-0.5l0.2-0.2l0.1-0.2l0.4-0.1l0.4-0.3l0.2-0.2l0.2-0.1l0.5-0.3l0.2-0.2l0.2-0.1l0.5-0.3l0.4-0.2l0.3-0.3
			l0.6-0.3l0.3-0.3l0.7-0.2l0.1-0.1l0,0l0.1,0.3l0.2,0.5l0.2,0.3l0.1,0.2l0.3,0.5l0.1,0.1v0.2l0.4,0.5l0.1,0.2l0.5,1.3l1.1-0.9h0.3
			h0.5l0.5,0.1l0.6-0.1l0.7-0.4l0.5-0.5l0.2-0.2l0.1-0.1l0,0l0.4-0.2h0.1l0.6-0.1l0.3-0.3l0.3-0.3l0.2-0.6l0.1-0.3l0.3-0.3l0.2-0.9
			l-0.1-0.4v-0.3v-0.3l0.2-0.6l0,0l0.9-0.4l0.6-0.6l0.2-0.5l0,0l0.3-0.3l0.2-0.5l0.1-0.3l0.2-0.2l0.2-0.2l0.2-0.2l0.3-0.2l-0.3-0.3
			l-0.1-0.4l-0.1-0.1l-0.3-0.4l-0.1-0.2l0,0l0,0l-0.1-0.2v-0.1l-0.3-0.3l-0.2-0.4l-0.5,0.3H133l-0.7-0.6l-0.1-0.4l-0.3-0.3V373l0,0
			l-0.2-0.1l-0.1-0.9v-0.6l-0.1-0.6l0.1-0.8l0.1-0.5l0.4-0.7l0.3-0.1v-0.1l0,0l0,0l-0.2-0.1l-0.8-0.5l-0.4-0.9v-0.6v-0.4l-0.1-0.6
			v-0.6l-0.2-0.7v-0.7l-0.2-0.8l-0.1-1v-0.4l-0.2-0.5l-0.1-1v-1v-0.5l-0.2-0.6l-0.1-1.1v-0.9l0.1-0.8l0.1-0.8l0.1-0.7l0.1-1.2V351
			l0.1-2.2l0.2-0.7V348v-0.1V346v-1.6l0.1-1.3l0.1-0.8v-0.1v-0.1v-1.8v-1.5l0.1-1.8v-0.8v-0.6l0.3-2.2v-0.1v-0.1l-0.1-1.6v-1.3v-1.9
			l-0.1-1.6V322v-1.5v-1.2l0.1-0.9l0,0v-0.2l-0.1-0.9l0.8-0.3v-0.1l0.6-0.8l0.1-0.1l0.1-0.5v-0.2l0,0v-1.1l-0.2-1.1v-1.2l0.2-0.6
			v-0.2l0,0v-0.7v-1.2v-0.8v-1v-1.1l0.1-1.3l0.1-0.7l0.4-1.5l0.3-1.1v-0.1l0,0l-0.1-0.8l0,0l0.3-0.4l0.3-0.3l0.1-0.7l0.2-1l0.6-1.4
			l0.2-1.2v-0.1l0,0l0.4-1.1l0.1-0.4h-0.2l-0.5-0.4l-0.2,0.2h-0.1l1.2-2.1l0.9-0.1l0.2-0.4l0.2-1.2l0.5-0.9l1.1-3l0.3-0.7l0.3-0.6
			l0.2-0.5l0.1-0.6l0.3-0.6l0.2-0.7l0.3-1v-1.4l0.4-0.9v-0.7v-2.2l0.2-0.5v-0.8l0.1-0.9v-0.7l0.1-1.3l0.1-0.7v-0.7l0.2-0.8l0.1-0.9
			l0.2-1.4l0.3-0.8l0.3-0.9l0.5-0.9l0.2-0.7l0.3-0.8l0.1-0.7l0.4-1l0.4-0.7l0.2-0.8l0.3-0.7l0.5-1.1l0.2-0.4l0.2-0.4l0.2-0.6
			l0.5-0.4l0.1-0.2l0.1-0.2l0.2-0.8l0.1-0.9l0.7-0.5l0.6-0.3l0.1-0.1l0.1-0.1l0.4-0.3l0.8-0.3l0.8-0.3l0.1-0.1h0.1l0.4-0.6l0.8-0.2
			l0.9-0.4l0.8,0.8l0.3,0.5l0.2,0.9v0.2l0,0l0.3,0.1l0.6,0.2l1,0.5l0.1,0.2l0.1,0.1l0.5,0.2l0.6,0.3l0.5,0.4l0.3,0.2h0.6h0.6
			l0.2-0.1l0,0l0.2-0.1l1.4-0.4l0.9-0.1l0.8-0.4l0.7-0.2l1-0.6l0.6-0.4l0.4-0.2l0,0l0.2-0.1l0.1-0.3l0.3-0.4l0.2-0.5l0.2-1l0.3-0.8
			l0.3-0.4l0.1-0.3l0.2-0.8l0.3-0.8l0.2-0.3l0.1-0.4v-0.3l-0.1-0.5v-1.5l0.3-0.6v-0.2l0.3-0.7l0.1-0.7l0.7-0.8l0.6-0.5l0.4-0.6
			l0.7-0.5l0.7-0.3l0.6-0.1l0.1-0.1h0.1l0.1-0.1l0.9-0.2l0.6-0.3l0.5-0.2l1.3-0.9l0.8-0.2l0.8,0.2l0.8,0.3l0.6,0.4l0.7,0.5l0.4,0.5
			l0.5,0.3l0.6,0.4l0.5,0.3l0.5,0.3l0.2,0.1h0.4l0.5-0.2l0.5-0.3l0.9-0.4l0.3-0.2l0.2-0.1l-0.1-0.2l1.4-0.4l0.4-0.2h-0.1l-0.2-0.2
			l-0.4-0.2l-0.6-0.2l-0.4-0.2l-0.2-0.1l-0.3-0.2l-0.4-0.3l-0.2-0.1l-0.3-0.2h-0.2l-0.1-0.4v-0.1v-0.2v-0.2v-0.6l-0.1-0.3v-0.2v-0.1
			v-0.9v-0.2l-0.1-0.4l-0.1-0.3L182,234l-0.1-0.1l-0.2-0.2l-0.2-0.4l-0.4-0.2l-0.2-0.1l-0.2-0.4l-0.3-0.1l-0.1-0.1L180,232l-0.2-0.1
			l-0.1-0.1l-0.2-0.3l-0.3-0.2l-0.2-0.1l-0.1-0.1l-0.1-0.1l-0.1-0.2l-0.1-0.1l-0.1-0.2l-0.4-0.3l-0.1-0.1l-0.1-0.3l-0.5-0.4
			l-0.1-0.1l0,0l-0.2-0.2L177,229l-0.3-0.2l-0.2-0.2l-0.3-0.2l-0.2-0.2l0,0l-0.3-0.3l-0.1-0.1l-0.1-0.1l0,0l-0.1-0.2l-0.2-0.3
			l-0.1-0.1l0,0l0.6-0.2h0.1h0.2h1l0.3-0.1l0.4-0.1h0.2h0.5l0.5-0.1l0.6-0.2h0.4l0.3-0.1h0.3l0.7-0.1l0.7-0.1l0.4-0.3l0.3-0.2
			l0.4-0.5l0.2-0.5V224v-0.4v-0.3l0.2-0.2l0.4-0.8l-0.5-1.2l-0.5-0.1l-0.2-0.2l-0.5-0.1l-0.5-0.2l-0.3-0.1l-0.1-0.1v-0.1l0.2-0.2
			l0.3-0.5l0.1-0.2l0.3-0.3l0.4-0.6v-1.1l-0.8-0.4l-0.3-0.3l-0.5-0.1h-0.1l-0.3-0.3l-0.3-0.1L180,216l-0.1-0.1l-0.1-0.1l-0.5-0.3
			l-0.6-0.3l-0.2-0.1l-0.2-0.2l-0.5-0.3l-0.6-0.2l-0.5-0.1h-0.6h-0.3l-0.1-0.2v-0.2v-0.4l-0.1-0.2v-0.2l-0.1-0.6l-0.1-0.3l-0.1-0.2
			v-2l-0.2-0.5v-0.4l-0.1-0.3v-0.4l-0.1-0.2l0,0l0,0l0.6,0.2l1-0.4l0.2-0.5l0.3-0.2l0.2-0.5l0.2-0.1l0.2-0.2l0.3,0.1l0.4,0.1
			l0.2,0.1l0.3,0.3l0.5,0.2l0.4,0.1l0.3,0.1h0.1l0.4,0.2l0.7,0.3h0.9l0.8-0.7l0.2-0.4l0.1-0.2v-0.1l0.3-0.1l0.3-0.2l0.5-0.1l0.3-0.1
			l0.6-0.2l0.7-0.4l0.2-0.3l0.4-0.3l0.3-0.9l-0.1-0.6l-0.4-0.8l-1.5-0.1l-0.3,0.1h-0.3l-0.3-0.1l-0.4-0.1h-0.2l-0.1-0.3l-0.3-0.6
			l-0.3-0.2l-0.4-0.4l-0.5-0.3l-0.3-0.5H181l0,0l-0.1-0.4l-0.2-0.9l-0.9-0.2l-0.8-0.1l-0.5,0.1l-0.5,0.3h-0.1h-0.5H177l-0.4-0.1
			h-0.1l0.1-0.1l0.2-0.5l0.2-0.2l0.3-0.6l0.2-0.2l0.5-0.4l0.4-0.5l0.3-0.5l0.1-0.2l0.2-0.2l0.1-0.1l0.5-0.3l0.2-0.6l0,0l0.4-0.2
			l0.4-0.3h0.1l0.4-0.1l0.4-0.2l0.8-0.5l0.1-0.1l0.2-0.1l0.6-0.3l0.6-0.4l0.4-0.2l0.4-0.5l0.2-0.5v-0.3l0.1-0.4l0.3-0.5V189
			l-0.2-0.4l0.1-0.2v-0.7l-0.1-0.4v-0.2l-0.1-0.4l-0.1-0.4l0,0l0.1-0.3v-0.5v-0.3v-0.1l0.2-0.6V184v-0.3l0.1-0.1l0.4-0.2l0.2-0.6
			l0.2-0.3l0.2-0.1l0.4-0.4l0.1-0.3l0.1-0.2l0.2-0.6l-0.1-0.5l-0.1-0.5v-0.8l-0.2-0.3v-0.2v-1l-0.1-0.2v-0.2v-0.8l-0.2-0.5l-0.1-0.4
			l-0.1-0.2l0,0v-1.4l-0.2-0.9l-0.1-0.5v-0.1v-0.6l-0.2-0.3v-0.1V171l-0.1-0.2v-0.1l-0.1-0.8v-0.7l-0.1-0.5l-0.2-0.3l0,0v-0.5v-0.3
			v-0.7l-0.2-0.5l-0.1-0.2V166v-0.3V165l-0.1-0.4v-0.3l-0.1-0.4v-0.1V163l-0.2-0.6l-0.3-0.4l-0.3-0.2l-0.2-0.2l-0.3-0.2l-0.1-0.1
			L183,161l-0.3-0.2l-0.3-0.3l-0.8-0.1h-0.4l-0.7-0.1h-0.3l-0.4-0.1l0,0l-0.1-0.5l-0.1-0.1l-0.1-0.3l-0.1-0.4l-0.1-0.3l-0.1-0.6
			l-0.1-0.2v-0.1l-0.1-0.5l-0.2-0.3v-0.1v-0.3v-0.2l0.2-0.1v-0.7l0.1-0.3v-0.5l0.1-0.5l0,0h0.1l0,0l0.3-0.2l0.3-0.2l0.1-0.1l0.6-0.2
			l0.5-0.3l0.3-0.3l0.3-0.4l0.1-0.4l0.1-0.4v-0.6l-0.1-0.3v-0.1V150v-0.5l-0.1-0.2V149v-0.2v-0.2v-0.1l0.2-0.4l0.1-0.6v-0.3v-0.3
			l0.1-0.1l0.2-0.6l-0.1-0.4v-1.1l0.1-0.4V144v-0.1l0.2-0.3v-0.7l0.2-0.2v-0.3h0.8h0.3h0.5h0.5h0.5h0.4l0.5,0.1l0.8-0.1l0.5-0.7
			l0.1-0.8v-0.1l0.2-0.3v-0.2l0.1-0.2l0.1-0.2l0.1-0.2l0.3-0.3l0.2-0.1l0.4-0.4l0.2-0.3l0.1-0.1h0.1l0.3-0.2l0.1-0.1h0.1h0.1h0.1
			l0,0l0.4,0.1h0.1l0.1,0.1l0.2,0.1l0.2,0.2l0.5,0.2l0.3,0.1l0.2,0.1l0.2,0.1l0.2,0.3l0.3,0.4l0.5,0.4l0.8,0.2l0.4-0.1h0.3l0.4-0.1
			l0.4-0.1l0.1-0.1l0.3-0.1l0.2-0.1h0.1l0.2-0.1h0.1l0.3-0.1l0.7-0.2l0.2-0.5l0.4,0.1l0.2,0.1l0.3,0.2l0.1,0.1l0.2,0.2l0.4,0.1
			l0.2,0.1h0.1l0.1,0.1l0.4,0.2l0.6,0.2h0.1h0.1l0.2,0.1l0.1,0.1l0.3,0.2l0.4,0.2l0.3,0.1l0.3,0.2l0.6,0.1h1.2v-1.9l-0.1-0.4
			l-0.1-0.3l-0.1-0.3l-0.2-0.4l-0.2-0.3v-0.1v-0.2v-0.3l0.2-0.5v-0.4V136l-0.1-0.2v-0.2v-0.3v-0.4l-0.1-0.2v-0.3v-0.1v-0.1v-0.1V134
			l0.1-0.3l0.1-0.5l-0.1-0.3l0.2-0.3v-0.9v-0.4v-0.5l0.1-0.2l0.1-0.3l0.1-0.2l0.1-0.2v-0.3l0.1-0.4v-0.5v-0.4l0.1-0.4v-0.4l0.1-0.3
			V127l0.1-0.4v-0.1l0.3-0.4l0.2-0.6l0.1-0.6v-0.2l0.1-0.2l0.2-0.4v-0.2h0.1l0.2-0.1l0.3-0.1h0.5l0.4-0.1l0.7-0.2l0.5-0.6l0.1-0.7
			l0.1-0.2v-0.3l0.1-0.4l0.2-0.7v-0.3v-0.1l0.1-0.4l0.1-0.3l0.1-0.3v-0.6l-0.3-0.6l-0.3-0.4l-0.2-0.2l-0.1-0.2l-0.1-0.2l-0.3-0.4
			l-0.2-0.2l-0.1-0.2l-0.2-0.3l-0.1-0.1l-0.1-0.2l-0.1-0.2l-0.2-0.3l-0.1-0.2l-0.1-0.3l-0.2-0.3l-0.2-0.2l-0.3-0.3l0,0l-0.1-0.4
			l-0.3-0.4l-0.1-0.1l0,0v-0.1v-0.3l0.2-0.3l0.1-0.5v-0.5V111l0,0v-0.3l-0.2-0.8l-0.4-0.5l-0.5-0.5l-0.6-0.2l-0.4-0.1l-0.2-0.1
			l-0.3-0.2l-0.4-0.2l-0.6-0.2l-0.4-0.2h-0.2l-0.5-0.4l-0.7,0.1l-0.7,0.2l-0.5,0.5l-0.2,0.2l-0.3,0.6v0.3v0.1l-0.1,0.3v0.5l0,0
			l-0.3,0.1l-0.1,0.1l-0.2,0.1l-0.2,0.1l-0.3-0.2l-0.3-0.1l0,0v-0.1l-0.3-0.4l-0.4-0.4l-0.1-0.1l0,0l0,0V109v-0.5l-0.1-0.5l-0.1-0.3
			l-0.2-0.6l-0.3-0.2l-0.2-0.2l-0.4-0.2l0,0l-0.1-0.7l-1.1-0.6l-0.7,0.1l-0.3,0.1l-0.1-0.3l-0.3-0.5l-0.4-0.5l-0.7-0.2h-0.9
			l-0.6,0.4l-0.3,0.6l-0.1,0.2l-0.1,0.2l0,0l-0.1,0.1l0,0l-0.1-0.1l-0.6-0.3h-0.8l-0.6,0.5l0.1-0.2l-0.7-0.7l-0.2-0.1l-0.3-0.6
			l-0.6-0.2l-0.1-0.1l-0.4-0.2l-0.1-0.1l-0.2-0.4l-0.1-0.1h0.1l0.4-0.5l0.1-0.3l0.1-0.1l0.6-0.4l0.1-0.5l0.1-0.1l0.3-0.3l0.2-0.2
			l0.1-0.2l0.1-0.1l0.3-0.4L187,99l0.2-0.3l0.1-0.3l0.1-0.3l0.1-0.3l0.1-0.3l0.1-0.2l0.2-0.3l0.2-0.3l0.1-0.4l0.2-0.2l0.4-0.9v-0.6
			v-0.5l-0.1-0.5v-0.3v-0.7l-0.1-0.6l-0.1-0.4v-0.2v-1l-0.2-0.3v-0.3l-0.1-0.2v-0.1l0.1-0.4v-1l-0.1-0.4v-1.4v-0.1l0.2-0.4v-0.4
			l0.1-0.4v-0.4v-0.2v-0.1l0.1-0.2l0.1-0.5V83v-0.5v-0.2l0.1-0.3l0.2-0.6v-0.1l0.1-0.3l0.1-0.3l0.3-0.4l0.2-0.5l0.1-0.4l0.1-0.5
			v-0.2l0.1-0.2V78l0.1-0.2v-0.5l0.1-0.5v-0.5v-0.4v-0.1l0,0l0.3-0.5l0.5-0.9l0.1-0.3l0.2-0.5l0.4-0.6l0.2-0.6l0.2-0.5l0.2-0.4
			l0.2-0.4l0.3-0.5l0.1-0.4l0.2-0.4l0.4-0.4v-0.5l0.2-0.3l0.1-0.4l0.1-0.2l0.1-0.3l0.3-0.5l0.1-0.4l0.2-0.3l0.2-0.4l0.1-0.2l0.2-0.4
			l0.1-0.3l0.5-1.1l0.2-0.5l0.1-0.5l0.1-0.3l0.2-0.5l0.1-0.1l0.2-0.5l0.1-0.3l0.4-0.6l0.2-0.7l0.1-0.3l0.4-0.6l0.3-0.9l0.1-0.3v-0.1
			l0.4-0.7l0.1-0.3l0.2-0.3l0.2-0.5l0.2-0.2l0.4-0.5L200,55l0.1-0.1l0.3-0.4l0.1-0.2L201,54l0.2-0.6l0.1-0.2l0.4-0.2l0.2-0.8L202,52
			l0.1-0.2l0.1-0.3l0.3-0.5v-0.5v-0.2l0.1-0.3l0.2-0.4v-0.3l0.1-0.2l0.2-0.6v-0.6v-1.2V46l-0.3-0.9l-0.7-0.3l-0.6-0.2l-0.4-0.3
			l-0.3-0.1l-0.1-0.1l-0.3-0.3l-0.4-0.2l-0.3-0.1l-0.2-0.1l-0.3-0.2l-0.4-0.3l-0.1-0.1l-0.4-0.3l-0.7-0.4l-0.3-0.1h-0.1l-0.2,0
			l-0.9-0.5h-0.6l-0.5,0.1h-0.1l0.1-0.2l0.1-0.5v-0.3v-0.2l0.1-0.2l0.2-0.7V39v-0.3l-0.1-0.5l-0.2-0.4l-0.1-0.2v-0.3v-0.1l0.1-0.1
			l0.4-0.7v-1.2l-0.2-0.6v-0.1l-0.2-0.5v-0.2v-0.3v-0.3l-0.1-0.3l-0.1-0.3v-0.3v-0.6v-0.1l0.2-0.1l0.4-0.3l0.2-0.1l0.4-0.3l0.4-0.6
			v-0.9l-0.2-0.3v-0.1v-0.3v-0.2v-0.2v-0.1l0,0l0.1-0.1l0.3-0.2h0.7l0.2-0.1h0.1l0.4,0.1h0.9l0.9-0.3l0.4-0.6l0.1-0.5V26v-0.3l0,0
			v-0.1l0.2-0.3l0.1-0.2h0.1l0.5-0.4l0.3-0.3l0.1-0.2L202,24l0.2-0.7v-0.5v-0.1v-1l-0.2-0.2V21l-0.1-0.4v-0.3v-0.4l-0.1-0.4v-0.1
			l0,0l0.2-0.3l0.3-0.3l0.4-0.3l0.2-0.3l0.2-0.3l0.3-0.4l0.3-0.4l0.2-0.7h0.2h0.3l0.5-0.1l0.9-0.4l0.3-0.3l0.3-0.1l0.2-0.2h0.1
			l0.5-0.2l0.4-0.3l0.1-0.1l0.3-0.1l0.4-0.5l0.2-0.3l0.2-0.2l0.4-0.4v-0.4l0,0l0.2-0.2l0.3-0.4l0.1-0.3l0.1-0.3l0.1-0.3l0.2-0.6
			l0.1-0.4V9.4L210.5,8.9z M125,297.5v-0.4V297l0.1,0.8L125,297.5z"/>
	</g>
</g>
</svg>
