<?xml version="1.0" encoding="utf-8"?>
<!-- Generator: Adobe Illustrator 19.1.0, SVG Export Plug-In . SVG Version: 6.00 Build 0)  -->
<svg version="1.1" id="Shape_x5F_Manila_1_" xmlns="http://www.w3.org/2000/svg" xmlns:xlink="http://www.w3.org/1999/xlink"
	 x="0px" y="0px" viewBox="0 0 210 405" style="enable-background:new 0 0 210 405;" xml:space="preserve">
<style type="text/css">
	.st0{fill:#505093;}
</style>
<g id="Shape_x5F_Manila">
	<g>
		<path class="st0" d="M210.5,8.9L210,7.7l-0.8,0.4l-0.4,0.2l-0.4-0.2L207.7,8h-0.5l-0.6,0h-0.5l-0.7,0l-0.9,0l-0.6,0h-0.5l-0.6,0
			l-0.5,0l-1,0.1h-0.7l-0.4,0.2l-0.1,0l-0.1,0l-0.5,0.1l-0.4,0l-0.5,0.1h-0.7l-0.4,0.1l-0.5,0.1h-0.6l-0.4,0.2l-0.4,0h-0.7L195,9h0
			L194.8,9h-0.7l-0.3,0h-0.6L193,9.1l-0.2,0h-0.5l-0.3,0L191.7,9h-0.3l0,0l-0.1,0l-0.2-0.1l-0.4-0.3L190,8.3l-0.7-0.1l-1.1,0.2
			l-0.2,0.1h0L188,8.6h-0.3l-0.3,0.3l-0.2,0.1l-0.4,0.4l-0.4,0.3l-0.4,0.6l-0.4,0.6v0.9l0.2,0.5v0.1l-0.1,0.2l-0.4,0.4l-0.3,0.4
			l-0.3,0.2l-0.4,0.2l-0.8,0.4l-0.2,0.5l-0.2,0.4l-0.4-0.1h-0.8l-0.6,0.1l-0.4,0l-0.3,0l-0.8,0l-0.6,0.1l-0.5,0.3l-0.2,0.1l0-0.1
			l-0.3-0.5l-0.3-0.3l-0.7-0.6l-0.1,0l0-0.2l-0.2,0.2l-0.7,0.2l-0.5,0.8l-0.1,0.4l-0.3,0.3l-0.1,0.4l-0.1,0h-0.4l0-0.3l-0.3-0.6
			l-0.4-0.7l-1-0.4l-0.9,0.2l-0.2,0.3l-0.5,0.3l-0.1,0.5l-0.1,0.2l-0.2,0.5l-0.2,0.4l-0.1,0.5l-0.1,0.1l0,0.1l0,0l-0.1-0.1V17
			l-0.4-0.6l-0.7-0.4l-0.6,0.1l-0.4,0.1l-0.7,0.1l-0.2,0.3l-0.1,0l0,0l-0.2,0.1l0.1-0.2l0.2-0.4l0.1-0.8l-0.3-0.5l-0.3-0.4l0.2-0.4
			l-0.3-0.8l-0.3-0.6l-0.9-0.5l-0.5,0.1h-0.8l-0.2,0.1l-0.3-0.7l-0.6-0.5l-1.3-0.1l-0.7,0.5l-0.1,0.6l0,0.5v0.1l-0.4-0.2l-0.4-0.2
			l-0.5-0.1h-0.4l-0.1-0.4l-0.2-0.5l-0.2-0.3l-0.1-0.2l-0.2-0.4l-0.1-0.3l-0.9-0.8l-0.9,0.7l-0.3,0.6l-0.1,0.3l-0.2,0.4l-0.2,0.3
			l0,0l-0.1,0l0,0l-0.2,0.1l-0.4,0.2l-0.6,0.3l-0.3,0.2l-0.1,0.1v-0.3l0-0.5l-0.2-0.7l-0.4-0.6l-0.7-0.3l-0.6-0.2h-0.5l-0.6,0.1
			l-0.4,0.6l0,0l0,0l-0.1,0l-0.2,0h-0.7v-0.3l-0.1-0.4l-0.1-0.5l-0.4-0.5L148.5,9l-0.2-0.3l-0.5-0.3l-0.9-0.2l-0.5,0.3l-0.6,0.2
			l-0.2,0.4l0,0.1l-0.2,0.4l-0.1,0.2l-0.1,0.2l0,0l0,0l-0.1,0.1l0-0.3l0.1-0.4l-0.1-0.6l-0.2-0.6l-0.3-0.5L144,7.3l-1.1,0.1
			l-0.7,0.6l-0.1,0.2L142,7.9l-0.2-1.1l0-0.2V5.9l-1-0.4l-0.3-0.1l-0.3-0.1l-0.5-0.1h-0.1l0,0l-0.1-0.3l-0.1-0.4L139,4.2l-0.4-0.6
			h-1.2L137,4.1l-0.1-0.2l-0.7-0.6h-1l-0.3,0.1l-0.4,0l-0.4-0.1h-0.4l-0.9-0.1l-0.6,0.2l-0.1,0l-0.3-0.9L131.3,2l-0.5-0.2l-0.6-0.1
			h-0.3l-0.3-0.1h-0.3l-0.7-0.2l-0.5,0l-0.7-0.1l-0.5,0.2l-0.3,0.1l-0.2,0l-0.7,0.1l-0.3,0.2l-0.2,0l-0.3,0h-0.3l-0.3,0l-0.2-0.1
			l-0.4-0.2l-0.3-0.1l-0.9-0.1L122,1.1l-0.3,0h-0.4l-0.6,0.1l-0.8,0.5l0,0l0,0l-0.5-0.1l-0.9,0.1l-0.5,0.4l-0.3,0.2l-0.2,0.1l-0.1,0
			l-0.2-0.1l-0.1,0l-0.5-0.7l-1-0.2l-0.8,0.4L114.3,3v0.7l0,0.3l-0.8-0.2l-0.9,0.5L112.5,5l-0.1,0.2l-0.1,0.3h-0.5l-0.4,0.4l-0.1,0
			L110.9,6l-0.9,0.4l-0.3,1.3l0.8,0.5l0.4,0.3l0.4,0.1l-0.1,0.2L111,9l-0.4,0.7v1.2l0,0l-0.5,0.3l-0.5,0.4l-0.2,0.6l-0.3,0.9l0,0.8
			l-0.2,0.3l-0.3,0.6v0.3l-0.2,0.2v0.8l0,0.1l-0.3,0.6l-0.1,0.6l-0.2,0.4l-0.1,0.6l0,0.4l0,0.1l-0.2,0.4v0.4l-0.1,0.2l-0.1,0.3
			l-0.1,0.5v0.3l0,0h-0.2l-0.6,0.1l-0.4,0.3l-0.3,0.2l-0.1,0.1l-0.2,0l-0.5,0.1l-0.3,0.2l-0.1,0l-0.4,0.1l-0.5,0.3l-0.2,0.1
			l-0.2,0.1l-0.2,0.1l-0.2,0l-0.4,0.2l-0.4,0.1l-0.6,0.2l-0.2,0.2l-0.2,0.1l-0.4,0.2l-0.2,0l-0.6,0.2L99.7,24l0,0L99.4,24l-0.5,0.2
			l-0.4,0.3l-0.1,0L98,24.6l-0.5,0.1l-0.3,0.2l-0.4,0.2l-0.2,0.1l-0.7,0.2l-0.5,0.1l-0.6,0.2l-0.2,0.2l-0.5,0.1l-0.3,0.3l-0.2,0.1
			L93,26.8l-0.3,0.1L92,27l-0.4,0.2l-0.3,0.2l-1,0.4L90,27.9l-0.3,0.2l-0.3,0.1l-0.5,0.2l-0.3,0.2l-0.3,0.1l-0.6,0.1l-0.3,0.1
			l-0.1-0.1l-0.1,0L87,28.6l-0.3-0.4L86,27.7l-0.8-0.4h-0.7l-1,0.2l-0.7,0.2L81.9,28l-0.3,0.3L81,28.5L80.9,29l-0.4,0.1L80,29.4
			l-0.1,0h-0.8l-0.5,1l0,0.8l-0.2,0.5l-0.1,1l0.1,0.5v0.1l-0.3,0.6l0.2,0.7l0.3,0.6l0.1,0.3l0.1,0.2l0,0l-0.1,0.1l-0.3,0.1l-0.6,0.2
			l-0.3,0.2L77,36.4l-0.2,0l0,0l-0.1,0l-0.2-0.1l-0.1-0.1L76,36.2l-0.1-0.1l-0.2-0.1l-0.2-0.2l-0.5-0.2l-0.5-0.3h-0.7L73,35.4
			l-0.4,0.7l-0.2,0.5l-0.1,0.3l0,0.1L72.3,37L72,37.5l-0.1,0.2l-0.3,0.2l-0.3,0.7L71,39.1l-0.1,0.4l-0.2,0.2l-0.2,0.8l0,0.1
			l-0.4,0.3l-0.2,0.6l-0.1,0.3L69.5,42l-0.3,0.6l-0.1,0.2l-0.4,0.8l-0.2,0.7v0.6l0.1,0.9l0.1,0.3v1.5l0,0.3l0,0.2l-0.1,0.4V50l0,0.3
			l0.1,0.6v0.5L69,52l0.2,0.5l0.1,0.4l0.3,0.5l0.2,0.5l0.1,0.8l0.5,0.4l0,0.4l0,0L70,55.4h-0.7L69,56l-0.1,0l0,0l-0.4,0l-0.3,0
			l-0.1,0h-0.4l-0.4,0l-0.3,0.1l-0.1,0L66.5,56L66.3,56L66,55.8l-0.3-0.1l-0.4-0.1l-1,0.2L63.7,56l-0.3,0.2l-0.3,0.1l0,0l-0.1,0
			l-0.4,0L62,56.6L61.5,57l-0.2,0.2l-0.6,0.4l-0.2,0.2L60.2,58L60,58.2l-0.2,0.1l0,0l-0.1,0l-0.2-0.1l-0.1-0.1l0-0.1l-0.1-0.5
			L58.7,57l-0.6-0.2h-0.5L57.1,57l-0.3,0.1l-0.6,0.3l-0.6,0.3l-0.3,0.2L55,58l-0.7,0.4l-0.5,0.2l-0.4,0.6l-0.2,0.2L53,59.7l-0.3,0.1
			L52,60.1l-0.2,0.2l-0.4,0.2l-0.1,0.1l-0.2,0l0,0l-0.3,0.1l0,0l-0.3-0.4l-0.2-0.3l-0.5-0.6l-0.2,0l-0.2-0.2l-0.2-0.3l-0.3-0.3
			l-0.1-0.2l-0.3-0.3L48.4,58l0-0.1l0-0.3v-0.5l-0.1-0.5L48,56.2l-0.2-0.2v-0.4l-0.5-0.5V55l-0.5-0.7l-0.1-0.2L46.7,54l-0.3-0.5
			l-0.2-0.2l-0.1-0.6l-0.7-0.5L45.1,52l-0.6-0.3h0l-0.1-0.2l-0.1-0.3l0-0.4l-0.2-0.5L43.9,50l-0.2-0.4l-0.2-0.4l-0.3-0.5l-0.3-0.1
			l-0.1-0.1l-0.2-0.2l-0.4-0.4l-0.2-0.2l-0.4-0.4l-0.8-0.1h-0.5l-0.5,0l-0.3,0.1l-0.4,0.1l-0.7,0.2l-0.1,0h-0.1l-0.1,0h-1.3l-0.1,0
			l-0.1,0l-0.2-0.2l-0.1-0.2l-0.2-0.3l-0.3-0.3l-0.1-0.1l-0.1-0.1l0,0v-0.7L35.3,45l-0.4-0.5l-0.7-0.2l-0.5-0.1l-0.4,0L32.7,44h-0.8
			l-0.5,0h-0.8L30,44.1l-0.3,0.3l-0.5,0.1l-0.5,0.6l-0.2,0.5L28.4,46l-0.1,0.2l-0.2,0.3l0,0.5l0,0L28,47.2l-0.2,0.2h-0.3l0,0h-0.3
			l-0.6,0.1h-0.3l-0.6,0l-0.3-0.1L25,47.2l-0.1,0L24.7,47l-0.6-0.2l-0.4-0.2l-0.3-0.2l-0.3-0.2L22.7,46l-0.2-0.1l-0.2-0.1l-0.3-0.2
			L21,45.4l-1,0.1l-0.6,0.9v0.4l-0.1,0L19,47.6V49l0.1,0.3l0,0.3l0,0.3l0,0.2v0.5l0.4,0.6l0.1,0.2l0.2,0.6l0.8,0.3l0.1,0l0.1,0.2
			l0.3,0.4l0.1,0.1l0,0.1l0.1,0.4l0.2,0.2v0.4l0.1,0.2l-0.1,0.5l0.4,0.5l0.1,0.2l0.1,0.6l0.2,0.4l0.2,0.4l0.2,0.1l0.1,0.4l0.3,0.4
			l0.2,0.4l0.1,0.1l0.1,0.3l0.1,0.2l0.1,0.5l0.4,0.3l0.2,0.3l0.2,0.6l0.5,0.7l0.1,0.1l0.1,0.2l0.3,0.3l0.1,0.3l0.3,0.5l0.2,0.1
			l0.1,0.2l0.3,0.5l0,0.2l0.1,0.5l0,0.3l0.1,0.4l0,0.2v0.3l0.1,0.4l0,0.5l0.1,0.5l0.4,0.5l0.3,0.2l0,0l0.1,0.3l0.3,0.4l0.2,0.3
			l0.4,0.4l0.2,0.6l0.3,0.3l0.2,0.3L30,70l0,0.1l0.3,0.4l-0.1,0.1l0.5,0.3l0.3,0.3l0.1,0.3l0.2,0.4l0.3,0.3l0.3,0.2l0.2,0.3l0.2,0.2
			l0.2,0.3l0.2,0.2l0.3,0.4l0.2,0.4l0.3,0.5l0.3,0.2l0.1,0.1l0.2,0.2l0.2,0.4l0.3,0.5l0.2,0.2l0.3,0.6l0.3,0.4l0.4,0.4l0.1,0.2
			l0.1,0.3l0.3,0.4l0.4,0.3l0.2,0.1l0,0l0.3,0.6l0.3,0.4l0.2,0.2l0.4,0.4l0.3,0.5l0.3,0.2l0.1,0.1l0.1,0.1l0.3,0.6l0.3,0.4l0.1,0.2
			l0.2,0.3l0.2,0.3l0.1,0.2l0.1,0.3l0.1,0.2l-0.1,0.3L40,84.4l-0.1,0.4l-0.1,0.2l-0.2,0.4l-0.1,0.3L39.4,86l-0.2,0.3l-0.1,0.2
			l-0.2,0.1l-0.2,0.1L38.6,87l-0.4,0.3l0,0.3l-0.1,0.1l-0.4,0.6l-0.2,0.2l-0.4,0.3l-0.2-0.1l-0.2-0.2L36.4,88L36,87.6l-0.3-0.3
			l-0.2-0.2L35.3,87l-0.6-0.5l-0.3-0.1L34.2,86l-0.3-0.2l0,0l-0.1-0.2l-0.3-0.4l-0.2-0.2l-0.1-0.2l-0.4-0.3l-0.2-0.3l-0.2-0.2
			L32,83.9l-0.3-0.2l-0.3-0.3l-0.4-0.3L30.9,83l-0.2-0.2l-0.1-0.1l-0.1-0.2l-0.3-0.2L30,82l-0.1-0.1l-0.2-0.3l-0.2-0.1l0-0.1
			l-0.1-0.3l-0.4-0.3l-0.3-0.3l-0.3-0.2L28,80.1l-0.4-0.2l-0.1-0.3l-0.3-0.2l-0.1-0.1l-0.5-0.5l-0.3-0.4L26,78.3l-0.1,0l-0.1-0.1
			l-0.2-0.3l-0.2-0.2l-0.1-0.3L25,77.2L24.9,77l-0.5-0.4l-0.3-0.2l-0.2-0.2l-0.1-0.1L23.7,76l-0.4-0.3L23,75.5l-0.3-0.4L22.5,75
			l-0.2-0.3l-0.4-0.2l-0.4-0.4l-0.2-0.2l-0.5-0.4l-0.2-0.3l-0.4-0.3l-0.5-0.5l-0.3-0.3l-0.3-0.4l-0.2-0.2l-0.3-0.3l-0.2-0.2
			l-0.1-0.2L18,70.7l-0.1-0.1l-0.3-0.4l-0.5-0.2l-0.1,0l-0.2-0.2l-0.2-0.3l-0.3-0.3L16.2,69l-0.3-0.5l-0.5-0.2l-0.2-0.1L15,67.9
			l-0.4-0.3l-0.2-0.3l-0.5-0.4l-0.7-0.2l-0.8-0.1l-0.2,0.1l-0.1,0L12,66.9l-0.2-0.1l-0.6-0.1H9.9l-0.1,0h0l0,0H9.6l-0.6,0.4
			l-0.4,0.4L8.2,69l0.1,1l0.3,0.6l0.1,0.3l0,0.1l-0.2,0.5l-0.2,0.2L8,72l-0.1,0.2l-0.3,0.4l0,0.3L7.4,73l-0.3,0.3l-0.3,0.3l-0.2,0.2
			L6.5,74l-0.2,0.2l-0.4,0.4l-0.2,0.2L5.6,75l-0.1,0l-0.3,0.1l0,0l-0.3,0.1l-0.4,0.5l-0.2,0.2L3.9,76l-0.3,0.4l-0.3,0.1L3,76.8
			l-0.2,0.1l-0.5,0.3l-0.3,0.1l-0.8,0.4l0.1,0.2L1,78.1l1,1.2l0.5,0.3l0.3,0.3l0.6,0.5l0.7,0.2l0.1,0.1l0.4,0.3l0.1,0.1l0.1,0.2
			l0.2,0.5l0.7,0.7l0.1,0.1l0.4,0.9L7,84l0.7,0.4L8,84.6l0.4,0.3l0.2,0.2L9,85.5l0.8,0.4l0.4,0.5l0.4,0.5l0.3,0.2l0.1,0.1l0.3,0.3
			l0.3,0.3l0.3,0.4l0.2,0.2l0.1,0.1l0.7,1.1l0.3,0.2l0.2,0.2l0.2,0.3l0.5,0.6l0.6,0.2l0.2,0.3l0.5,0.4l0.2,0.2l0.2,0.3l0.4,0.4
			l0.3,0.3l0.3,0.4l-0.2,0.6L17,95l0.5,0.5l0.3,0.4l0.3,0.3l0.4,0.4l0.1,0.1l0.2,1l0.4,1.3l0.4,0.3L20,100l0.4,0.3l0.3,0.4l0.6,0.3
			l0.5,0.4l0.3,0.2l0.3,0.2l0.4,0.5l0.3,0.2l0.3,0.6l0.4,0.4l0.1,0.1l0.3,0.9l0.4,0.3l0.2,0.5l0.4,0.8l1,1l0.3,0.3l0.2,0.3l0.4,0.8
			l0.5,0.3l0.1,0.1l0.3,0.7l0.5,0.4l0.2,0.3l0.4,0.7l0.4,0.4l0.1,0.2l0.3,0.6l0.4,0.7l0.4,0.5l0.2,0.2l0.4,0.6l0.2,0.2l0.3,0.7
			l0.5,0.5l0.2,0.2l0.3,0.6l0.4,0.5l0.5,0.4l0.2,0.1l0.3,0.5l0.3,0.3l0.3,0.6l0.3,0.7l0.3,0.5l0.3,0.7l0.4,0.8l0.5,0.4l0.3,0.3
			l0.3,0.4l0.3,0.7l0.3,0.4l0.4,0.6l0.2,0.5l0.4,0.7l0.1,0.1l-0.1,0.1l-0.7,0.3l-0.4,1l0,2.3l0.6,0.5l0.4,0.8L39,131l0.3,0.6
			l0.3,0.4l0.4,0.8l0.5,0.4l0.2,0.2l0.3,0.8l0.3,0.4l0.3,0.7l0.3,0.4l0.4,0.8l0.3,0.2l0.2,0.7l0.7,0.5l0.2,0.3l-0.7,0h-5.5l-2.6-0.1
			l-0.3-0.2l-1.1-0.1l-1.7,0.2l0.1,1.5l0.4,0.9l0.4,0.7l0.4,0.8l0.2,0.3l0.3,0.6l0.4,0.6l0.4,0.4l0.5,0.7l5.6,0.3l4.7,0l0,0.1
			l0.4,9.1l0.3,5.1l0.3,4.6l0.3,4.6l-0.1,0l-2.4,0.3l-1.5,0.4l-0.9,0.4l-1.3,0.4l-1.4,0.3l-1.1,0.3l-1.4,0.4l-1.3,0.3l-1.9,0.6
			l0,2.3l0.4,1.4l0.3,1.6l0.8,0.8l1.4,0l2.6-0.4l2.6-0.3l2.6-0.4l2.6-0.3l2.8-0.4l0.1,0v0.4l0.3,1.2l0.5,1.1l1,0.7l0.7,0l0.3,0.1
			l0.1,0.1l0.2,0.1l0.1,0.1l-0.4,0.3l-0.1,0.2c0,0-0.1,0.2-0.2,0.4l-0.5,0.4l-0.2,0.5l0,0l-0.3,0.2l-0.3,0.3l-0.3,0.3l-0.4,0.6v0.7
			l0.1,0.5l0.2,0.3l0.2,0.4L51,185l0.2,0.2l0.3,0.4l0.3,0.2l0.2,0.4l0.3,0.1l0,0.1l0.4,0.4l0.4,0.3l0.3,0.2l0.4,0.5l0.4,0.4l0.2,0.1
			l0.2,0.3l0.1,0l0,0.1l0.5,0.3l0.2,0.3l0.2,0.3l0.3,0.4l0.5,0.9l0.6,0.3l1.2,0.6l0.4-0.8l0.2-0.1l0.6-0.6l0-0.1
			c0,0,0.1-0.1,0.2-0.3l0.2-0.1l0.1,0.5l0.7,0.8l0.4,0.3l0.1,0.2l0.6,0.6l0.6,0.3l1,0.6l0.2,0.4l0.3,0.8l1.2,0.6l1,0.3l0.6,0.2
			l0,0.1l0.4,1.5l0.3,0.5l0.1,0.7l0.6,0.7l0.3,0.8l0.3,0.8l0.4,0.6l0.2,0.5l0.5,0.7l0.2,0.6l0.2,0.7l0.3,0.7l0.4,0.8l0.3,0.5
			l0.2,0.7l0,0.3l-0.1,0.1l-0.3,0.2l-0.5,0.3l-0.1,0.1l-1,0.2l-0.4,0.6l-0.2,0.2l-0.4,0.2l-0.7,0.3l-0.5,0.3l-0.6,0.3l-0.9,0.9
			l-0.1,1.6l0.1,0.8l0.4,0.9v0.8c0,0.4,0.2,1,0.2,1.2l0,0l0.2,0.6c0.2,0.4,0.4,1,0.4,1.2c0,0.3,0.1,1.4,0.1,2l0,0.2l0.3,0.4l0.2,1
			l0,0.4l-0.3,0.1l-0.6,0.4l-0.3,0.3l-0.7,0.4l-0.3,2.5v2.4l-0.1,1.4l0.2,6.4l0.1,0.6l-0.1,0.1l0.1,0.7l0.1,0.8v0.7l-0.4,1.3
			l0.2,1.1l0,2l0,1.5l-0.4,0.9l0.1,1c-0.1,0.2-0.1,0.5-0.2,0.7c0,0,0,0.1-0.1,0.1l-0.1,0.1l-0.2,0.6l-0.1,0.2l-0.3,0.2l-0.2,0.5
			l-0.4,0.6l-0.2,0.6l-0.3,0.5l-0.4,0.6l-0.3,0.7l-0.3,0.7l-0.4,1.1l-0.2,0.4l-0.1,0.1l-0.4,0.6l-0.2,0.7v1.3l1.1,0.6l1.2,0.4
			l0.8,0.3l0.6,0.4l1,0.3l0.6,0.4l1.2,0.4l1,0.2l0.6,0.3l0.9,0.4l0.7,0.4l1.6,0.5l1.2,0.1l0.8,0.4l0.3,0.1l-0.3,1.1l-0.3,1.3
			l-0.3,0.7l-0.4,0.8l-0.2,1c-0.1,0.2-0.2,0.6-0.2,0.8c0,0.2-0.1,0.4-0.1,0.5l-0.3,0.8l-0.1,0.2l-0.2,0.2l-0.4,0.4L71,269l-2.3,0.3
			l-0.4,0.4l-1.1,0.5l-0.2,1.3l-0.2,0.6l0,1l-0.2,0.2l-0.1,0.4l-0.4,0.6l0,0.1l-0.1,0.1l-0.2,0.4l-0.7,0.5l-0.1,0.8l-0.1,0.3
			l-0.3,0.3l-0.3,0.5l-0.1,0.3l-0.3,0.3l-0.2,0.4l-0.2,0.1l-0.4,0.3l-0.7,0.7l-0.1,0.2l-0.7,0.4l-0.7,0.9l-0.2,0.3l-0.8,0.5
			l-0.4,0.3l-0.7,0.4l-0.8,0.3l-0.5,0.7l-0.2,0.1c-0.2,0.1-0.5,0.3-0.6,0.4l-0.9,0.4l1.1,1.9l0.3,0.4l0.2,0.4l0.2,0.4l-0.8-0.1
			l-1,0.2l-0.5,0.7L55,289l-0.1,0.4l-0.3,0.6l0.1,1.2l0.8,0.6l0.1,0l-0.2,0.1l-0.4,0.3l-0.1,0.1l-0.3,0.1l-0.3,0.3l-0.6,0.5
			l-0.3,0.6l-0.2,0.8l0.1,1.1l0.4,0.2l0.1,0.4l0.3,0.5l0.2,0.2l0.1,0.4l0.2,0.5l0.1,0.2l0,0l0,0.8l0.1,0.6l0.4,1.1l0.2,0.4l0.2,0.4
			l0.2,0.3l0,0.1l0.1,0.4l0.3,0.4l0.1,0.2l0.3,0.5l0.2,0.4l0.1,0.2l0.1,0.2v0.5l0,0.4l-0.1,0.2l-0.3,0.5l0.1,0.2l-0.4,0.5l0.2,0.2
			l-0.3,0.2l0.6,0.8l0,0.2l-0.1,1.1l0,0v0.2l-0.2,0.3l0.3,0.8l0,0.2l-0.2,0.5l0.3,0.9l0.3,0.4l0,0.3l0.5,0.7l0.1,0.1l0,0.3l0.3,0.4
			l0.2,0.3l0.3,0.6l0.3,0.5l0.1,0.4l0.1,0.5L59,317l0.3,0.9l0.4,0.6l0.6,0.7l0.4,0.3l0.5,0.6l0.6,0.4l0.1,0.1l0.2,0.4l0.8,0.7
			l0.6,0.5l0.3,0.2l0.5,0.6l0.9,0.5l0.6,0.2l0.3,0.1l0.3,0.2l0.7,0.3l0.6,0.2l0.6,0.2l0.5,0.3l0.3,0.1l0.1,0.4l0.1,0.4l0,0.7
			l-0.1,0.6l0.2,0.8l0.2,0.6l0.3,0.8l0.2,0.4l0.2,0.5l0.2,0.3l0,0.3l0.2,1l0.5,0.5l0.5,0.4l0,0.9l-0.1,1.1l0.4,1l1.2,0.3l1-0.1l0,0
			l0.1,0.2l0.1,0.5l0.1,0.5l0.2,0.5l0,0.4l0.1,0.7l0.2,0.6l0,0.5l-0.1,0.1l-0.3,0.7l-0.3,1.2l1,0.4l0.3,0.3l0.6,0.3l0.4,0.2l0.2,0.4
			l0.6,0.8l0.3,0.6l0.5,0.7l0.3,0.5l0.2,0.4l0.1,0.7l0.2,0.6L79,348l-0.1,0.6l0.2,0.5l0.1,0.3v0.6l0.3,0.9l0.8,0.6l1.2,0.3l0.7-0.1
			v0.3l0.3,0.7l0.1,0.2l0.2,0.4l0.2,0.4l0.3,0.4l0.3,0.4l0.3,0.2L84,355l0.4,0.3l0.1,0.2l0.2,0.4l0.1,0.3l0.2,0.5l0.3,0.4l0.1,0.2
			l0.3,0.6l0.2,0.2l0.1,0.3l0,0.1l-0.1,0.3l-0.1,0.3l-0.1,0.2l-0.3,0.3l-0.5,0.6l-0.1,1.1l0.3,0.7l0.6,0.3l0.8,0.2l0.8,0.2l0.8,0.3
			l0.1,0.1l0.3,0.3l0.8,0.5l0.2,0.3l0.8,0.5l0,0l-0.1,0.5l-0.1,0.2l-0.3,0.6l-0.1,0.4l-0.3,0.4l0.1,0.8l0.2,0.5l0.3,1l0.3,0.6
			l0.1,0.3l0.2,0.5l0,0.8l0.6,0.4l0.2,0.2l0.1,0.4l0.3,0.5l0.1,0.4l0.2,0.8l0.9,0.2l0.7,0.4l0.8,0.2l0.4,0.2l0.5,0.2l0,0.1l0,0.4
			l-0.2,0.7l-0.1,0.9l-0.1,0.7l-0.1,0.6l-0.1,0.5l-0.1,0.4l-0.2,0.4l-0.3,0.3l-0.2,0.6l-0.2,0.3l-0.5,0.5l-0.1,0.4l-0.3,0.3
			l-0.2,0.8l-0.1,0.8l0,0.5l-0.1,0.2l-0.2,0.5l0,0.8l0,0.4l-0.1,0.5l0.1,0.6l0,0.1l-0.1,0.2v0.8l-0.2,0.3l0.2,0.4l0,0.1l-0.1,1.3
			l-0.1,0.9l0.1,0.5l0,1.5l0,0.6l-0.2,0.5l0,0.5l-0.1,0.5l0.1,0.3l0,0.2l-0.1,0.1l-0.2,1.1l-0.1,0.7l-0.1,0.7l-0.1,0.4l-0.1,0.7
			l-0.1,0.3l-0.3,0.7v0.8l-0.2,0.6l-0.1,0.7l-0.2,0.6l-0.2,2.2l1.7-0.6l0.4,0l0.9-0.4l0.7-0.2l0.5-0.3l0.9-0.3l0.4-0.3l0.9-0.3
			l0.3-0.2l0.4-0.2l0.7-0.3l0.4-0.2l0.7-0.3l0.3-0.1l0.7-0.3l0.3-0.2l0.6-0.1l0.4-0.4l0.9-0.2l0.5-0.5l0.3-0.4l0.2-0.4l0.6-0.2
			l0.3-0.4l0.1-0.1l0.3-0.2l0.5-0.4l0.5-0.4l0.1-0.3l0.5-0.3l0.3-0.3l0.2-0.2l0.4-0.2l0.4-0.4l0.3-0.2l0.6-0.5l0.1-0.2l0.7-0.1
			l0.6-0.3l0.3-0.2l0.7-0.2l0.4-0.4l0.5-0.4l0.3-0.3l0.5-0.4l0.2-0.4l0.5-0.3l0.1-0.5l0.1,0l0.1-0.1l0.4-0.2l0.4-0.4l0.3-0.3
			l0.3-0.7l0.1-0.4l0.1-0.2l0.2-0.4l0.2-0.5l0.2-0.3l0.1-0.1l0.2-0.1l0.6-0.1l0.1-0.2l0.4,0.4l0.8-0.3l0.8-0.3l0.2-0.5l0.2-0.2
			l0.1-0.2l0.4-0.1l0.4-0.3l0.2-0.2l0.2-0.1l0.5-0.3l0.2-0.2l0.2-0.1l0.5-0.3l0.4-0.2l0.3-0.3l0.6-0.3l0.3-0.3l0.7-0.2l0.1-0.1l0,0
			l0.1,0.3l0.2,0.5l0.2,0.3l0.1,0.2l0.3,0.5l0.1,0.1l0,0.2l0.4,0.5l0.1,0.2l0.5,1.3l1.1-0.9h0.3l0.5,0l0.5,0.1l0.6-0.1l0.7-0.4
			l0.5-0.5l0.2-0.2l0.1-0.1l0,0l0.4-0.2l0.1,0l0.6-0.1l0.3-0.3l0.3-0.3l0.2-0.6l0.1-0.3l0.3-0.3l0.2-0.9l-0.1-0.4l0-0.3l0-0.3
			l0.2-0.6l0,0l0.9-0.4l0.6-0.6l0.2-0.5l0,0l0.3-0.3l0.2-0.5l0.1-0.3l0.2-0.2l0.2-0.2l0.2-0.2l0.3-0.2l-0.3-0.3l-0.1-0.4l-0.1-0.1
			l-0.3-0.4l-0.1-0.2l0,0l0,0l-0.1-0.2l0-0.1l-0.3-0.3l-0.2-0.4l-0.5,0.3h-1.4l-0.7-0.6l-0.1-0.4l-0.3-0.3V373l0,0l-0.2-0.1
			l-0.1-0.9l0-0.6l-0.1-0.6l0.1-0.8l0.1-0.5l0.4-0.7l0.3-0.1l0-0.1l0,0l0,0l-0.2-0.1l-0.8-0.5l-0.4-0.9v-0.6l0-0.4l-0.1-0.6v-0.6
			l-0.2-0.7v-0.7l-0.2-0.8l-0.1-1v-0.4l-0.2-0.5l-0.1-1v-1l0-0.5l-0.2-0.6l-0.1-1.1v-0.9l0.1-0.8l0.1-0.8l0.1-0.7l0.1-1.2l0-1.2
			l0.1-2.2l0.2-0.7l0-0.1l0-0.1l0-1.9l0-1.6l0.1-1.3l0.1-0.8l0-0.1l0-0.1l0-1.8l0-1.5l0.1-1.8v-0.8l0-0.6l0.3-2.2l0-0.1l0-0.1
			l-0.1-1.6v-1.3l0-1.9l-0.1-1.6V322l0-1.5l0-1.2l0.1-0.9l0,0l0-0.2l-0.1-0.9l0.8-0.3l0-0.1l0.6-0.8l0.1-0.1l0.1-0.5l0-0.2l0,0
			l0-1.1l-0.2-1.1l0-1.2l0.2-0.6l0-0.2l0,0l0-0.7l0-1.2l0-0.8l0-1v-1.1l0.1-1.3l0.1-0.7l0.4-1.5l0.3-1.1l0-0.1v0l-0.1-0.8l0,0
			l0.3-0.4l0.3-0.3l0.1-0.7l0.2-1l0.6-1.4l0.2-1.2l0-0.1h0l0.4-1.1l0.1-0.4l-0.2,0l-0.5-0.4l-0.2,0.2l-0.1,0l1.2-2.1l0.9-0.1
			l0.2-0.4l0.2-1.2l0.5-0.9l1.1-3l0.3-0.7l0.3-0.6l0.2-0.5l0.1-0.6l0.3-0.6l0.2-0.7l0.3-1v-1.4l0.4-0.9l0-0.7v-2.2l0.2-0.5l0-0.8
			l0.1-0.9l0-0.7l0.1-1.3l0.1-0.7l0-0.7l0.2-0.8l0.1-0.9l0.2-1.4l0.3-0.8l0.3-0.9l0.5-0.9l0.2-0.7l0.3-0.8l0.1-0.7l0.4-1l0.4-0.7
			l0.2-0.8l0.3-0.7l0.5-1.1l0.2-0.4l0.2-0.4l0.2-0.6l0.5-0.4l0.1-0.2l0.1-0.2l0.2-0.8l0.1-0.9l0.7-0.5l0.6-0.3l0.1-0.1l0.1-0.1
			l0.4-0.3l0.8-0.3l0.8-0.3l0.1-0.1l0.1,0l0.4-0.6l0.8-0.2l0.9-0.4l0.8,0.8l0.3,0.5l0.2,0.9l0,0.2l0,0l0.3,0.1l0.6,0.2l1,0.5
			l0.1,0.2l0.1,0.1l0.5,0.2l0.6,0.3l0.5,0.4l0.3,0.2l0.6,0l0.6,0l0.2-0.1h0l0.2-0.1l1.4-0.4l0.9-0.1l0.8-0.4l0.7-0.2l1-0.6l0.6-0.4
			l0.4-0.2l0,0l0.2-0.1l0.1-0.3l0.3-0.4l0.2-0.5l0.2-1l0.3-0.8l0.3-0.4l0.1-0.3l0.2-0.8l0.3-0.8l0.2-0.3l0.1-0.4l0-0.3l-0.1-0.5
			v-1.5l0.3-0.6v-0.2l0.3-0.7l0.1-0.7l0.7-0.8l0.6-0.5l0.4-0.6l0.7-0.5l0.7-0.3l0.6-0.1l0.1-0.1l0.1,0l0.1-0.1l0.9-0.2l0.6-0.3
			l0.5-0.2l1.3-0.9l0.8-0.2l0.8,0.2l0.8,0.3l0.6,0.4l0.7,0.5l0.4,0.5l0.5,0.3l0.6,0.4l0.5,0.3l0.5,0.3l0.2,0.1h0.4l0.5-0.2l0.5-0.3
			l0.9-0.4l0.3-0.2l0.2-0.1l-0.1-0.2l1.4-0.4l0.4-0.2l-0.1,0l-0.2-0.2l-0.4-0.2l-0.6-0.2l-0.4-0.2l-0.2-0.1l-0.3-0.2l-0.4-0.3
			l-0.2-0.1l-0.3-0.2l-0.2,0l-0.1-0.4v-0.1l0-0.2l0-0.2v-0.6l-0.1-0.3l0-0.2l0-0.1v-0.9l0-0.2l-0.1-0.4l-0.1-0.3L182,234l-0.1-0.1
			l-0.2-0.2l-0.2-0.4l-0.4-0.2l-0.2-0.1l-0.2-0.4l-0.3-0.1l-0.1-0.1L180,232l-0.2-0.1l-0.1-0.1l-0.2-0.3l-0.3-0.2l-0.2-0.1l-0.1-0.1
			l-0.1-0.1l-0.1-0.2l-0.1-0.1l-0.1-0.2l-0.4-0.3l-0.1-0.1l-0.1-0.3l-0.5-0.4l-0.1-0.1l0,0l-0.2-0.2l-0.1-0.1l-0.3-0.2l-0.2-0.2
			l-0.3-0.2l-0.2-0.2l0,0l-0.3-0.3l-0.1-0.1l-0.1-0.1l0,0l-0.1-0.2l-0.2-0.3l-0.1-0.1l0,0l0.6-0.2l0.1,0l0.2,0h1l0.3-0.1l0.4-0.1
			l0.2,0h0.5l0.5-0.1l0.6-0.2l0.4,0l0.3-0.1h0.3l0.7-0.1l0.7-0.1l0.4-0.3l0.3-0.2l0.4-0.5l0.2-0.5V224l0-0.4v-0.3l0.2-0.2l0.4-0.8
			l-0.5-1.2l-0.5-0.1l-0.2-0.2l-0.5-0.1l-0.5-0.2l-0.3-0.1l-0.1-0.1l0-0.1l0.2-0.2l0.3-0.5l0.1-0.2l0.3-0.3l0.4-0.6v-1.1l-0.8-0.4
			l-0.3-0.3l-0.5-0.1l-0.1,0l-0.3-0.3l-0.3-0.1l-0.2-0.1l-0.1-0.1l-0.1-0.1l-0.5-0.3l-0.6-0.3l-0.2-0.1l-0.2-0.2l-0.5-0.3l-0.6-0.2
			l-0.5-0.1l-0.6,0l-0.3,0l-0.1-0.2l0-0.2l0-0.4l-0.1-0.2l0-0.2l-0.1-0.6l-0.1-0.3l-0.1-0.2V210l-0.2-0.5l0-0.4l-0.1-0.3l0-0.4
			l-0.1-0.2l0,0l0,0l0.6,0.2l1-0.4l0.2-0.5l0.3-0.2l0.2-0.5l0.2-0.1l0.2-0.2l0.3,0.1l0.4,0.1l0.2,0.1l0.3,0.3l0.5,0.2l0.4,0.1
			l0.3,0.1l0.1,0l0.4,0.2l0.7,0.3h0.9l0.8-0.7l0.2-0.4l0.1-0.2l0-0.1l0.3-0.1l0.3-0.2l0.5-0.1l0.3-0.1l0.6-0.2l0.7-0.4l0.2-0.3
			l0.4-0.3l0.3-0.9l-0.1-0.6l-0.4-0.8l-1.5-0.1l-0.3,0.1h-0.3l-0.3-0.1l-0.4-0.1l-0.2,0l-0.1-0.3l-0.3-0.6l-0.3-0.2l-0.4-0.4
			l-0.5-0.3l-0.3-0.5l-0.4,0l0,0l-0.1-0.4l-0.2-0.9l-0.9-0.2l-0.8-0.1l-0.5,0.1l-0.5,0.3l-0.1,0h-0.5l-0.4,0l-0.4-0.1h-0.1l0.1-0.1
			l0.2-0.5l0.2-0.2l0.3-0.6l0.2-0.2l0.5-0.4l0.4-0.5l0.3-0.5l0.1-0.2l0.2-0.2l0.1-0.1l0.5-0.3l0.2-0.6l0,0l0.4-0.2l0.4-0.3l0.1,0
			l0.4-0.1l0.4-0.2l0.8-0.5l0.1-0.1l0.2-0.1l0.6-0.3l0.6-0.4l0.4-0.2l0.4-0.5l0.2-0.5l0-0.3l0.1-0.4l0.3-0.5V189l-0.2-0.4l0.1-0.2
			v-0.7l-0.1-0.4l0-0.2l-0.1-0.4l-0.1-0.4v0l0.1-0.3l0-0.5v-0.3l0-0.1l0.2-0.6l0-0.5v-0.3l0.1-0.1l0.4-0.2l0.2-0.6l0.2-0.3l0.2-0.1
			l0.4-0.4l0.1-0.3l0.1-0.2l0.2-0.6l-0.1-0.5l-0.1-0.5v-0.8l-0.2-0.3l0-0.2v-1l-0.1-0.2l0-0.2v-0.8l-0.2-0.5l-0.1-0.4l-0.1-0.2l0,0
			v-1.4l-0.2-0.9l-0.1-0.5l0-0.1l0-0.6l-0.2-0.3l0-0.1l0-0.4l-0.1-0.2l0-0.1l-0.1-0.8v-0.7l-0.1-0.5l-0.2-0.3l0,0v-0.5l0-0.3v-0.7
			l-0.2-0.5l-0.1-0.2l0-0.2l0-0.3V165l-0.1-0.4l0-0.3l-0.1-0.4l0-0.1v-0.8l-0.2-0.6l-0.3-0.4l-0.3-0.2l-0.2-0.2l-0.3-0.2l-0.1-0.1
			l-0.2-0.3l-0.3-0.2l-0.3-0.3l-0.8-0.1h-0.4l-0.7-0.1h-0.3l-0.4-0.1l0,0l-0.1-0.5l-0.1-0.1l-0.1-0.3l-0.1-0.4l-0.1-0.3l-0.1-0.6
			l-0.1-0.2v-0.1l-0.1-0.5l-0.2-0.3l0-0.1v-0.3l0-0.2l0.2-0.1v-0.7l0.1-0.3l0-0.5l0.1-0.5l0,0l0.1,0l0,0l0.3-0.2l0.3-0.2l0.1-0.1
			l0.6-0.2l0.5-0.3l0.3-0.3l0.3-0.4l0.1-0.4l0.1-0.4l0-0.6l-0.1-0.3l0-0.1V150l0-0.5l-0.1-0.2l0-0.3v-0.2l0-0.2l0-0.1l0.2-0.4
			l0.1-0.6l0-0.3l0-0.3l0.1-0.1l0.2-0.6l-0.1-0.4v-1.1l0.1-0.4l0-0.3l0-0.1l0.2-0.3v-0.7l0.2-0.2l0-0.3h0.8l0.3,0l0.5,0h0.5l0.5,0
			l0.4,0l0.5,0.1l0.8-0.1l0.5-0.7l0.1-0.8l0-0.1l0.2-0.3l0-0.2l0.1-0.2l0.1-0.2l0.1-0.2l0.3-0.3l0.2-0.1l0.4-0.4l0.2-0.3l0.1-0.1
			l0.1,0l0.3-0.2l0.1-0.1l0.1,0l0.1,0h0.1l0,0l0.4,0.1l0.1,0l0.1,0.1l0.2,0.1l0.2,0.2l0.5,0.2l0.3,0.1l0.2,0.1l0.2,0.1l0.2,0.3
			l0.3,0.4l0.5,0.4l0.8,0.2l0.4-0.1h0.3l0.4-0.1l0.4-0.1l0.1-0.1l0.3-0.1l0.2-0.1l0.1,0l0.2-0.1h0.1l0.3-0.1l0.7-0.2l0.2-0.5
			l0.4,0.1l0.2,0.1l0.3,0.2l0.1,0.1l0.2,0.2l0.4,0.1l0.2,0.1l0.1,0l0.1,0.1l0.4,0.2l0.6,0.2l0.1,0l0.1,0l0.2,0.1l0.1,0.1l0.3,0.2
			l0.4,0.2l0.3,0.1l0.3,0.2l0.6,0.1h1.2v-1.9l-0.1-0.4l-0.1-0.3l-0.1-0.3l-0.2-0.4l-0.2-0.3l0-0.1l0-0.2v-0.3l0.2-0.5l0-0.4v-0.3
			l-0.1-0.2v-0.2l0-0.3v-0.4l-0.1-0.2v-0.3l0-0.1l0-0.1l0-0.1l0-0.1l0.1-0.3l0.1-0.5l-0.1-0.3l0.2-0.3v-0.9l0-0.4v-0.5l0.1-0.2
			l0.1-0.3l0.1-0.2l0.1-0.2l0-0.3l0.1-0.4l0-0.5v-0.4l0.1-0.4v-0.4l0.1-0.3l0-0.2l0.1-0.4v-0.1l0.3-0.4l0.2-0.6l0.1-0.6v-0.2
			l0.1-0.2l0.2-0.4l0-0.2l0.1,0l0.2-0.1l0.3-0.1l0.5,0l0.4-0.1l0.7-0.2l0.5-0.6l0.1-0.7l0.1-0.2l0-0.3l0.1-0.4l0.2-0.7v-0.3l0-0.1
			l0.1-0.4l0.1-0.3l0.1-0.3v-0.6l-0.3-0.6l-0.3-0.4l-0.2-0.2l-0.1-0.2l-0.1-0.2l-0.3-0.4l-0.2-0.2l-0.1-0.2l-0.2-0.3l-0.1-0.1
			l-0.1-0.2l-0.1-0.2l-0.2-0.3l-0.1-0.2l-0.1-0.3l-0.2-0.3l-0.2-0.2l-0.3-0.3l0,0l-0.1-0.4l-0.3-0.4l-0.1-0.1v0l0-0.1v-0.3l0.2-0.3
			l0.1-0.5l0-0.5l0-0.1v0l0-0.3l-0.2-0.8l-0.4-0.5l-0.5-0.5l-0.6-0.2l-0.4-0.1l-0.2-0.1l-0.3-0.2l-0.4-0.2l-0.6-0.2l-0.4-0.2l-0.2,0
			l-0.5-0.4l-0.7,0.1l-0.7,0.2l-0.5,0.5l-0.2,0.2l-0.3,0.6l0,0.3l0,0.1l-0.1,0.3l0,0.5l0,0l-0.3,0.1l-0.1,0.1l-0.2,0.1l-0.2,0.1
			l-0.3-0.2l-0.3-0.1l0,0l0-0.1l-0.3-0.4l-0.4-0.4l-0.1-0.1l0,0l0,0l0-0.2v-0.5l-0.1-0.5l-0.1-0.3l-0.2-0.6l-0.3-0.2l-0.2-0.2
			l-0.4-0.2l0,0l-0.1-0.7l-1.1-0.6l-0.7,0.1l-0.3,0.1l-0.1-0.3l-0.3-0.5l-0.4-0.5l-0.7-0.2l-0.9,0l-0.6,0.4l-0.3,0.6l-0.1,0.2
			l-0.1,0.2l0,0l-0.1,0.1l0,0l-0.1-0.1l-0.6-0.3h-0.8l-0.6,0.5l0.1-0.2l-0.7-0.7l-0.2-0.1l-0.3-0.6l-0.6-0.2l-0.1-0.1l-0.4-0.2
			l-0.1-0.1l-0.2-0.4l-0.1-0.1l0.1,0l0.4-0.5l0.1-0.3l0.1-0.1l0.6-0.4l0.1-0.5l0.1-0.1l0.3-0.3l0.2-0.2l0.1-0.2l0.1-0.1l0.3-0.4
			L187,99l0.2-0.3l0.1-0.3l0.1-0.3l0.1-0.3l0.1-0.3l0.1-0.2l0.2-0.3l0.2-0.3l0.1-0.4l0.2-0.2l0.4-0.9l0-0.6v-0.5l-0.1-0.5l0-0.3
			v-0.7l-0.1-0.6l-0.1-0.4l0-0.2v-1l-0.2-0.3l0-0.3l-0.1-0.2v-0.1l0.1-0.4v-1l-0.1-0.4v-1.4l0-0.1l0.2-0.4v-0.4l0.1-0.4v-0.4l0-0.2
			v-0.1l0.1-0.2l0.1-0.5V83l0-0.5v-0.2l0.1-0.3l0.2-0.6l0-0.1l0.1-0.3l0.1-0.3l0.3-0.4l0.2-0.5l0.1-0.4l0.1-0.5l0-0.2l0.1-0.2v-0.5
			l0.1-0.2l0-0.5l0.1-0.5l0-0.5v-0.4l0-0.1l0,0l0.3-0.5l0.5-0.9l0.1-0.3l0.2-0.5l0.4-0.6l0.2-0.6l0.2-0.5l0.2-0.4l0.2-0.4l0.3-0.5
			l0.1-0.4l0.2-0.4l0.4-0.4l0-0.5l0.2-0.3l0.1-0.4l0.1-0.2l0.1-0.3l0.3-0.5l0.1-0.4l0.2-0.3l0.2-0.4l0.1-0.2l0.2-0.4l0.1-0.3
			l0.5-1.1l0.2-0.5l0.1-0.5l0.1-0.3l0.2-0.5l0.1-0.1l0.2-0.5l0.1-0.3l0.4-0.6l0.2-0.7l0.1-0.3l0.4-0.6l0.3-0.9l0.1-0.3l0-0.1
			l0.4-0.7l0.1-0.3l0.2-0.3l0.2-0.5l0.2-0.2l0.4-0.5L200,55l0.1-0.1l0.3-0.4l0.1-0.2L201,54l0.2-0.6l0.1-0.2l0.4-0.2l0.2-0.8L202,52
			l0.1-0.2l0.1-0.3l0.3-0.5v-0.5l0-0.2l0.1-0.3l0.2-0.4v-0.3l0.1-0.2l0.2-0.6l0-0.6v-1.2l0-0.7l-0.3-0.9l-0.7-0.3l-0.6-0.2l-0.4-0.3
			l-0.3-0.1l-0.1-0.1l-0.3-0.3l-0.4-0.2l-0.3-0.1l-0.2-0.1l-0.3-0.2l-0.4-0.3l-0.1-0.1l-0.4-0.3l-0.7-0.4l-0.3-0.1l-0.1,0L197,42
			l-0.9-0.5h-0.6l-0.5,0.1l-0.1,0l0.1-0.2l0.1-0.5v-0.3l0-0.2l0.1-0.2l0.2-0.7V39l0-0.3l-0.1-0.5l-0.2-0.4l-0.1-0.2l0-0.3l0-0.1
			l0.1-0.1l0.4-0.7v-1.2l-0.2-0.6v-0.1l-0.2-0.5l0-0.2l0-0.3l0-0.3l-0.1-0.3l-0.1-0.3l0-0.3l0-0.6l0-0.1l0.2-0.1l0.4-0.3l0.2-0.1
			l0.4-0.3l0.4-0.6v-0.9l-0.2-0.3l0-0.1l0-0.3l0-0.2l0-0.2l0-0.1l0,0l0.1-0.1l0.3-0.2h0.7l0.2-0.1h0.1l0.4,0.1h0.9l0.9-0.3l0.4-0.6
			l0.1-0.5V26l0-0.3l0,0l0-0.1l0.2-0.3l0.1-0.2l0.1,0l0.5-0.4l0.3-0.3l0.1-0.2l0.3-0.2l0.2-0.7v-0.5l0-0.1v-1l-0.2-0.2V21l-0.1-0.4
			l0-0.3v-0.4l-0.1-0.4v-0.1l0,0l0.2-0.3l0.3-0.3l0.4-0.3l0.2-0.3l0.2-0.3l0.3-0.4l0.3-0.4l0.2-0.7l0.2,0l0.3,0l0.5-0.1l0.9-0.4
			l0.3-0.3l0.3-0.1l0.2-0.2l0.1,0l0.5-0.2l0.4-0.3l0.1-0.1l0.3-0.1l0.4-0.5l0.2-0.3l0.2-0.2l0.4-0.4l0-0.4l0,0l0.2-0.2l0.3-0.4
			l0.1-0.3l0.1-0.3l0.1-0.3l0.2-0.6l0.1-0.4V9.4L210.5,8.9z M125,297.5v-0.4l0-0.1l0.1,0.8L125,297.5z"/>
	</g>
</g>
</svg>
