<?xml version="1.0" encoding="utf-8"?>
<!-- Generator: Adobe Illustrator 19.2.1, SVG Export Plug-In . SVG Version: 6.00 Build 0)  -->
<svg version="1.1" id="Shape_x5F_Stanford_1_" xmlns="http://www.w3.org/2000/svg" xmlns:xlink="http://www.w3.org/1999/xlink"
	 x="0px" y="0px" viewBox="0 0 329 367" style="enable-background:new 0 0 329 367;" xml:space="preserve">
<style type="text/css">
	.st0{fill:#9B1E1B;}
</style>
<g id="Shape_x5F_Stanford">
	<g>
		<path class="st0" d="M328.2,160.9L245,63.2l-2.8,2.8l-3.8-3.8l3.2-3.2l-26.1-28.8c0,0-13.9-7.2-15.5-8.9l2.6-2.6l-7.4-10.8l-8-7.9
			l-11.5,11.4L190.4,26l-8.3,16.6l-16.9-18.3l-4.3,11.4l4.5,2.6l-1.9,5.2L159,41l-12.5,31h-2l-15.8,53.3l-27.7-6.7l5.4-14.5
			c0,0-20.1-2.9-22.9-9.4l-9.7-5.6l-63.6,55.8l3.6,17l-12.4,17c0,0-1.9,4.5,1.5,13l-2,1.2H13l26,17.7c0,0,9,6.1,28.6,3l32,10.1
			c0,0,22.1,6.4,30.8,32.5s49.1,41.6,49.1,41.6s44.2,7.2,82.5,53.6c17.1,14.7,17.1,14.7,17.1,14.7s35.2-44.8,49.2-72.5L266,258.1
			L328.2,160.9z"/>
	</g>
</g>
</svg>
