<?xml version="1.0" encoding="utf-8"?>
<!-- Generator: Adobe Illustrator 19.2.1, SVG Export Plug-In . SVG Version: 6.00 Build 0)  -->
<svg version="1.1" id="Layer_1" xmlns="http://www.w3.org/2000/svg" xmlns:xlink="http://www.w3.org/1999/xlink" x="0px" y="0px"
	 viewBox="0 0 228 108" style="enable-background:new 0 0 228 108;" xml:space="preserve">
<style type="text/css">
	.st0{display:none;}
	.st1{fill:#9B1D20;}
	.st2{fill:#050505;}
</style>
<g id="Background_xA0_Image_1_" class="st0">
	
		<image style="display:inline;overflow:visible;enable-background:new    ;" width="360" height="360" id="Background_xA0_Image" xlink:href="DAD8DBEE.jpeg"  transform="matrix(1 0 0 1 -66 -126)">
	</image>
</g>
<g id="logo_xA0_Image_1_">
</g>
<g id="Page-1">
	<g id="Artboard-1">
		<path id="Path-1" class="st1" d="M72.8,29.7V5.3c0,0-23.5-9.5-41-3.1S0.9,29.7,14.4,46.3c5.6,6.9,18.2,13.5,25.9,16.8
			c5.4,2.3,11.7,6.4,10,13.4c-1.7,7-9.1,9.6-15.1,9.7C22.9,86.3,8.9,75,8.9,75v26c0,0,20.6,11.1,44.2,5.2
			c23.6-5.9,30.3-32.8,23.2-46.8c-7-14-44.2-19.3-38.9-32.6S72.8,29.7,72.8,29.7z"/>
		<polygon id="Path-2" class="st2" points="86.5,0 115.3,0 129.4,70.9 131.5,70.9 145.9,0 176.6,0 144.3,108 116.5,108 		"/>
		<polygon id="Path-3" class="st2" points="184.1,0 211,0 211,108 184.2,108 		"/>
	</g>
</g>
</svg>
