<?xml version="1.0" encoding="utf-8"?>
<!-- Generator: Adobe Illustrator 19.1.0, SVG Export Plug-In . SVG Version: 6.00 Build 0)  -->
<svg version="1.1" id="Layer_1" xmlns="http://www.w3.org/2000/svg" xmlns:xlink="http://www.w3.org/1999/xlink" x="0px" y="0px"
	 viewBox="-5 379.9 585 83" style="enable-background:new -5 379.9 585 83;" xml:space="preserve">
<style type="text/css">
	.st0{fill:#FFFFFF;}
</style>
<g>
	<path class="st0" d="M11.8,426.3v-22l-6.6,3c0,0-1.7,3.8-1.4,9.3c0.2,4.3,2.6,9.4,4.5,11.6L11.8,426.3 M31.2,381
		c1.6,0.1,4.2,0.9,6.1,2.6c2.1,2,2.5,5,1.8,7.8c-0.6,2.4-1.4,3.7-3.9,5.4c-2.5,1.7-5.6,1.6-5.6,1.6V409l5.2,4.2l-5.2,4.2v14.5
		c0,0,5.2-3,8.4-9.6c0,0,0.1-0.4,0.4-1c0.3,1.8,0.1,5.4-1.9,10c-1.5,3.5-4.3,6.8-7.7,8.7c-6.1,3.4-10.7,3.7-15.7,2.7
		c-5.8-1.2-11-4.4-14.6-10.1c-2.4-4.1-3.5-8.7-3.4-13.7c0.2-9.8,7.5-18.2,15.9-21.4c1-0.4,1.4-0.6,2.9-0.8c-0.7,0.5-1.4,1-2.4,1.7
		c-2.7,1.8-5,5.3-6,8l16.3-7.3v22.8l-13.2,6.6c1.5,2.1,6.1,5.2,9.9,5.7C25.1,434.9,29,432,29,432v-14.8l-5.1-4.2l5.1-4.2v-10.4
		c-2.8-0.3-6.2-1.2-8.2-1.7c-2.8-0.8-12.6-3.5-14.1-3.8c-1.5-0.2-3.4-0.2-4.6,0.9c-1.1,1-1.9,2.8-1.4,4.5c0.3,0.9,0.9,1.5,1.4,2
		c0,0-0.6,0-1.6-0.7c-1.8-1.1-3.2-3.3-3.4-5.9c-0.2-3.5,1.3-6.7,4.2-8.8c2.5-1.6,5.3-2.6,8.6-2.2c4.8,0.7,11.3,3.4,17,4.8
		c2.2,0.5,4,0.7,5.5-0.2c0.7-0.5,2-1.9,1-3.7c-1.2-2.1-3.6-2.1-5.6-2.4C29.5,380.9,29.9,380.9,31.2,381z"/>
	<path class="st0" d="M94.6,420.6l-7.4,5.4v-18.1L94.6,420.6 M94.4,403.2c0,0-5,3-8.4,5s-7.9,4.2-7.9,4.2v21l-3,2.4l0.4,0.5l2.9-2.4
		l9.2,8.3l16-12.7l-0.4-0.5l-8.8,6.9l-7.3-6.8v-2.5l14.6-10.7L94.4,403.2z"/>
	<path class="st0" d="M52.6,450.2c2.1,0.5,5.8,0.8,10.3-1.4c4.9-2.5,7.4-7.7,7.4-13.1l0.2-7.6v-16.7l3.2-2.4l-0.4-0.5l-3.1,2.3
		l-7.2-8l-9.2,7.9v-26.8l-11.5,8.9c0.5,0.3,2.1,0.6,2.2,2.9v37.6l-4.9,3.6l0.3,0.5l2.4-1.8l6.5,6.1l10.3-8.2l-0.4-0.5l-2.4,1.9
		l-2.6-2.5v-20.9l3-2.6l4.5,5.6c0,0,0,13.6,0,18.1c0,4.8,0,10.8-2.6,13.7C56.2,449.2,55.1,449.4,52.6,450.2"/>
	<path class="st0" d="M124.1,448.3c-4.1-0.5-5.8-3-5.8-4.9c0-1.3,1.2-3.7,3.7-4.1c2.5-0.3,5.1,0.8,7.2,3.4l9.5-10.5l-0.5-0.4
		l-2.6,2.9c-2.6-3-6.3-4.8-9.9-5.4v-32l24.7,45c0,0,0.2,0.5,1.3,0.5c0.9,0,0.7-0.7,0.7-0.7v-45.3c2-0.1,5.1-1.2,6.6-2.7
		c4.8-4.9,2.8-10.2,2.3-10.7c-0.3,2.3-2.1,4.7-5.1,4.7c-3.9,0-6.3-2.9-6.3-2.9l-9.6,10.7l0.5,0.4l2.7-3.1c3.3,3.1,5.8,3.3,8.3,3.5
		V423l-18.4-33.3c-1.7-2.7-4.2-5.2-8.1-5.2c-4.6,0-7.8,4-8.2,7.4c-0.4,3.9,0,4.8,0,4.8s0.7-4.3,3.4-4.3c2.4,0,3.7,2.3,4.6,3.9v9.6
		c-2.5,0.2-9,0.5-9.4,7.2c0,2.5,1.5,5.1,2.9,6c1.8,1.2,3.1,1.1,3.1,1.1s-2.1-1.1-1.5-3.3c0.6-2,4.7-2.3,4.8-1.5V429
		c-2,0-8.3,0.2-11.2,5.6c-1.7,3.3-1.6,7,0.2,9.6C115.7,446.5,118.8,449.2,124.1,448.3"/>
	<path class="st0" d="M176.4,420.6L169,426v-18.1L176.4,420.6 M176.2,403.2c0,0-5,3-8.4,5s-7.9,4.2-7.9,4.2v21l-3,2.4l0.4,0.5
		l2.9-2.4l9.2,8.3l16-12.7L185,429l-8.8,6.9l-7.3-6.8v-2.5l14.6-10.7L176.2,403.2z"/>
	<path class="st0" d="M198.6,442.4l-7.8-6.5l-3.4,2.5l-0.3-0.5l3.5-2.6v-18.1c0.2-7.5-6.9-5.6-6.5-13.6c0.2-3.5,3.5-6.1,5.3-7
		s3.8-0.9,3.8-0.9s-3.2,2-2.4,4.9c1.2,4.4,8.8,4.8,8.9,10.8v20.5l5.6,4.5l1.5-1.2v-22.3l-3-3l7.8-6.9l7.1,6.3l-2.7,2.9V432l6.7,5.5
		l1.2-0.8V413l-3-2.8l7.8-7.1l7.3,6l2.9-2.6l0.1,0.4l-6.6,5.8v19.4l-16.8,10.3l-8.6-6.8L198.6,442.4"/>
	<path class="st0" d="M541.9,420.6l-7.4,5.4v-18.1L541.9,420.6 M541.7,403.2c0,0-5,3-8.4,5s-7.9,4.2-7.9,4.2v21l-3,2.4l0.4,0.5
		l2.9-2.4l9.2,8.3l16-12.7l-0.4-0.5l-8.8,6.9l-7.3-6.8v-2.5l14.6-10.7L541.7,403.2z"/>
	<polyline class="st0" points="466.7,412 467.1,412.5 470.1,409.9 474.6,414.9 474.6,432.3 472.4,434.3 479.4,442.1 486.5,435.1 
		483.6,432.1 483.6,411.1 485.4,409.6 490.3,415.4 490.3,432.7 488.4,434.6 495,441.9 502,434.9 499.4,432.2 499.4,411.1 
		501.3,409.6 506.4,415.3 506.4,432.5 504.7,434.2 511.9,442.1 521.7,433.1 521.2,432.7 518.9,434.8 515.3,430.8 515.3,411.2 
		518.8,408.5 518.4,408 514.9,410.7 508.3,403.3 498.8,410.7 492.2,403.5 483.1,410.7 476.4,403.6 466.7,412 	"/>
	<polyline class="st0" points="447,411.5 447.4,411.9 449.9,409.7 453.9,414.4 453.9,434.3 451.1,436.7 451.5,437.2 454.4,434.7 
		460.8,442.1 470.1,433.8 469.7,433.3 467,435.7 463.1,431.3 463.1,411.9 466.4,409.1 466,408.7 462.9,411.3 456.2,403.4 447,411.5 
			"/>
	<polyline class="st0" points="449.6,395 456.6,388.6 462.3,394.9 455.3,401.3 449.6,395 	"/>
	<path class="st0" d="M420.9,426.3v-22l-6.6,3c0,0-1.7,3.8-1.4,9.3c0.2,4.3,2.6,9.4,4.5,11.6L420.9,426.3 M440.3,381
		c1.6,0.1,4.2,0.9,6.1,2.6c2.1,2,2.5,5,1.8,7.8c-0.6,2.4-1.4,3.7-3.9,5.4c-2.5,1.7-5.6,1.6-5.6,1.6V409l5.2,4.2l-5.2,4.2v14.5
		c0,0,5.2-3,8.4-9.6c0,0,0.1-0.4,0.4-1c0.3,1.8,0.1,5.4-1.9,10c-1.5,3.5-4.3,6.8-7.7,8.7c-6.1,3.4-10.7,3.7-15.6,2.7
		c-5.8-1.2-11-4.4-14.6-10.1c-2.5-4-3.6-8.6-3.5-13.6c0.2-9.8,7.5-18.2,15.9-21.4c1-0.4,1.4-0.6,2.9-0.8c-0.7,0.5-1.4,1-2.4,1.7
		c-2.7,1.8-5,5.3-6,8l16.3-7.3V422l-13.1,6.6c1.5,2.1,6.1,5.2,9.9,5.7c6.6,0.7,10.5-2.2,10.5-2.2v-14.8l-5.1-4.2l5.1-4.2v-10.5
		c-2.8-0.3-6.2-1.2-8.2-1.7c-2.9-0.7-12.7-3.5-14.2-3.7c-1.5-0.2-3.4-0.2-4.6,0.9c-1.1,1-1.9,2.8-1.4,4.5c0.3,0.9,0.9,1.5,1.4,2
		c0,0-0.6,0-1.6-0.7c-1.8-1.1-3.2-3.3-3.4-5.9c-0.2-3.5,1.2-6.6,4.1-8.8c2.5-1.6,5.3-2.6,8.6-2.2c4.8,0.7,11.3,3.4,17,4.8
		c2.2,0.5,4,0.7,5.5-0.2c0.7-0.5,2-1.9,1-3.7c-1.2-2.1-3.6-2.1-5.6-2.4C438.6,380.9,439,380.9,440.3,381z"/>
	<path class="st0" d="M562.5,407.3v10.4l3.5,3c0,0,7.5-6,10.3-11.6c0,0-3.4,4.6-8,3.2C564.5,411.1,562.5,407.3,562.5,407.3
		 M554.1,434.9c0,0,3.3-5.5,9-4.3c5.4,1.1,7.3,6.9,7.3,6.9v-13.2l-3.8-3.3C562.4,425.2,555,431.2,554.1,434.9z M559.5,445
		c-1.1,0.3-5.7-0.8-6.8-5.6c-1.1-4.6,2.2-7.8,7-12.7l-5.8-5.3v-10c0,0,4.2-2.1,7.5-4.2s6.7-4.3,6.7-4.3s2.5,3.1,5.3,2.9
		c4.4-0.4,4.2-3.8,4-4.6c0.7,1.3,2.7,5.3-4.9,14.2l6.3,5.1v13c0,0-7.3,3.8-14.1,8.8c0,0-3.8-4.8-7.2-2.5
		C555.3,441.2,556.3,443.8,559.5,445z"/>
	<path class="st0" d="M308,430.2l8.1,7.3v-22.4l-8.1-7.5V430.2 M324.6,411.9l2.8-2.6l0.4,0.5l-2.7,2.5V433c0,0-5.2,2.8-8.9,4.8
		c-3.6,2.1-7.5,4.5-7.5,4.5l-9.6-8.1l-2.5,2.2l-0.4-0.5l2.7-2.3v-22.2l0,0c0,0,4.5-2,8.3-4.2c3.4-1.9,7.2-4.1,7.2-4.1L324.6,411.9z"
		/>
	<path class="st0" d="M343.4,409.8l6.1-6.2c0,0,0.8,0.7,1.6,1.1c0.4,0.2,2.3,1.2,4,0.2c0.9-0.5,1-0.6,2-1.6c0.2,4.8-2.1,8.2-5,9.6
		c-1.2,0.6-4.6,1.7-8.3-2.7v22.3l3.8,3.4l3.2-2.7l0.4,0.5l-10.1,8.4l-7.6-7l-2.8,2.6l-0.5-0.5l4.2-3.8v-19.3l-3.2-4.3l-2.8,2.4
		l-0.4-0.4l9.7-8.8L343.4,409.8"/>
	<path class="st0" d="M369,419.1l11.2-16.3c0,0,1.5,1.8,4.1,2.4c3.5,0.9,6.6-2.5,6.6-2.5c-0.6,4.4-2.8,9.3-7.4,10.1
		c-4,0.7-7.8-2.5-7.8-2.5l-0.7,1.1l15.6,23.6l3.1-2.7l0.4,0.5l-10.7,9.4L369,419.1"/>
	<path class="st0" d="M359.8,397.3c0-3.5-1.4-5.7-3.3-5.5l12.3-8.6v48.7l0,0l3.2,3.4l2.5-2.1l0.4,0.5l-9.9,8.6l-6.7-6.3l-2.7,2.4
		l-0.4-0.5l4.7-4.1v-36.5"/>
	<path class="st0" d="M281.1,411c0,0-1.4,1.5-3.5,1.5s-3.5-1.5-3.5-1.5v6.7c0,0,1.4-1.5,3.5-1.5s3.5,1.5,3.5,1.5V411 M281.1,396.7
		l-4.7-4.2l-2.3,1.8v15.6c0,0,1.4,1.8,3.5,1.8s3.5-1.7,3.5-1.7V396.7z M274.1,441c0,0,2.9,0.8,4.9-0.9c2.3-1.9,2.1-4.6,2.1-4.6
		v-16.9c0,0-1.3-1.7-3.5-1.7c-2.1,0-3.5,1.8-3.5,1.8V441z M257.3,396.5c0-3.3-1.3-5.1-3.5-5.2c-3.1-0.1-3.9,4.3-3.9,4.3
		s-0.6-3.4,2.3-6.5c1.6-1.7,4.6-4.1,9.2-3c4.8,1.2,6.2,4.9,6.2,8.2v45.3c0,0,1.8,0.2,3.1,0.5c1.4,0.3,2.8,0.7,2.8,0.7v-54.6h0.6v7.4
		l9.8-7.9l7.2,6.4l3.4-2.9l0.4,0.5l-3.5,3v42.1c-0.2,2.7-0.6,5.5-3.2,7.2c-5.8,3.4-12.8-0.5-19-1.4c-4.6-0.7-11.9-1.6-13.7,2.7
		c-0.6,1.4-0.6,3.5,1.5,4.9c4.2,2.8,22.9-4.7,29.3-1.7c5.9,2.7,5.8,7,4.9,10c-1.5,5.6-8.5,6.5-8.5,6.5s3.4-2,2.5-5.3
		c-0.5-1.7-1.6-2.1-5.3-1.7c-8,0.9-17.6,4.8-24.1,2.1c-3.3-1.4-5.7-5.5-5.4-9.6c0.2-5.9,6.9-8.2,6.9-8.2v-21.7
		c-0.2-0.9-3.8-0.6-4.6,1c-1.2,2.4,1.5,3.5,1.5,3.5s-2.2,0.3-4.1-1.8c-0.9-1.1-2.8-4.8-0.3-8.2c2-2.8,4.5-3.3,7.6-3.6L257.3,396.5
		L257.3,396.5z"/>
</g>
</svg>
