<?xml version="1.0" encoding="utf-8"?>
<!-- Generator: Adobe Illustrator 19.1.0, SVG Export Plug-In . SVG Version: 6.00 Build 0)  -->
<svg version="1.1" id="_xF243__1_" xmlns="http://www.w3.org/2000/svg" xmlns:xlink="http://www.w3.org/1999/xlink" x="0px" y="0px"
	 viewBox="0 0 37 37" style="enable-background:new 0 0 37 37;" xml:space="preserve">
<style type="text/css">
	.st0{fill:#FFFFFF;}
</style>
<g id="_xF243_">
	<g>
		<path class="st0" d="M32.6,8.8c1.7-1,2.8-2.4,3.4-4.2c-1.7,1-3.3,1.6-4.9,1.9C29.6,4.8,27.8,4,25.6,4c-2.1,0-3.9,0.7-5.4,2.2
			C18.8,7.7,18,9.4,18,11.6c0,0.8,0.1,1.4,0.2,1.7C11.8,13,6.6,10.4,2.6,5.4c-0.7,1.2-1,2.4-1,3.7c0,2.8,1.1,4.9,3.4,6.3
			c-1.2,0-2.3-0.3-3.5-0.9v0.1c0,1.8,0.6,3.4,1.8,4.8c1.2,1.4,2.6,2.3,4.4,2.6c-0.8,0.2-1.5,0.3-2,0.3c-0.3,0-0.8-0.1-1.4-0.2
			c0.5,1.5,1.4,2.7,2.7,3.7c1.3,1,2.8,1.5,4.4,1.5c-2.8,2.2-5.9,3.3-9.4,3.3c-0.4,0-1-0.1-1.8-0.2C3.5,32.8,7.4,34,11.6,34
			c6.5,0,11.8-2.2,15.7-6.7c3.9-4.5,5.9-9.4,5.9-14.9v-0.9c1.6-1.1,2.8-2.4,3.8-3.9C35.7,8.2,34.2,8.6,32.6,8.8z"/>
	</g>
</g>
</svg>
