<?xml version="1.0" encoding="utf-8"?>
<!-- Generator: Adobe Illustrator 19.1.0, SVG Export Plug-In . SVG Version: 6.00 Build 0)  -->
<svg version="1.1" id="Layer_1" xmlns="http://www.w3.org/2000/svg" xmlns:xlink="http://www.w3.org/1999/xlink" x="0px" y="0px"
	 viewBox="0 0 81.9 66.7" style="enable-background:new 0 0 81.9 66.7;" xml:space="preserve">
<style type="text/css">
	.st0{fill:#45A2CF;}
</style>
<g>
	<path class="st0" d="M81.9,8c-2.1,3.2-4.9,6.1-8.3,8.7v2.1c0,12.2-4.4,23.2-13.1,33.1c-8.7,9.9-20.3,14.8-34.8,14.8
		C16.4,66.7,7.9,64.1,0,59c1.8,0.2,3.2,0.3,4,0.3c7.8,0,14.7-2.4,20.8-7.3c-3.6-0.1-6.8-1.2-9.7-3.4c-2.9-2.1-4.9-4.9-5.9-8.2
		c1.4,0.2,2.4,0.3,3.1,0.3c1.2,0,2.7-0.2,4.5-0.7c-3.8-0.8-7-2.7-9.6-5.8c-2.6-3.1-3.9-6.6-3.9-10.7v-0.2c2.5,1.4,5.1,2.1,7.6,2.1
		c-5-3.2-7.5-7.9-7.5-14.1c0-2.9,0.8-5.7,2.3-8.3c8.9,11,20.4,16.8,34.5,17.5c-0.2-0.8-0.3-2.1-0.3-3.8c0-4.7,1.6-8.7,4.9-12
		C48,1.6,52,0,56.8,0c4.7,0,8.8,1.8,12.2,5.4c3.5-0.6,7.1-2,10.8-4.2c-1.2,4.1-3.6,7.2-7.5,9.4C75.8,10.2,79,9.4,81.9,8z"/>
</g>
</svg>
