<?xml version="1.0" encoding="utf-8"?>
<!-- Generator: Adobe Illustrator 19.1.0, SVG Export Plug-In . SVG Version: 6.00 Build 0)  -->
<svg version="1.1" id="Layer_1" xmlns="http://www.w3.org/2000/svg" xmlns:xlink="http://www.w3.org/1999/xlink" x="0px" y="0px"
	 viewBox="91 341.9 415 160.1" style="enable-background:new 91 341.9 415 160.1;" xml:space="preserve">
<style type="text/css">
	.st0{display:none;fill:#BFBFBF;}
	.st1{fill:#BFBFBF;}
</style>
<g>
	<path class="st0" d="M253,501.9c-32.7,0-65.3,0-98,0c0-2.4,2.1-2.3,3.5-2.8c8.5-3.1,14.1-9.2,17.8-17.2c4.4-9.5,5.7-19.8,7.9-29.9
		c4-18,7.8-36.1,11.5-54.2c0.4-1.8,0.7-3.6,1.3-5.3c3.5-10.7,10.7-15.1,21.9-13.5c12.5,1.8,12.5,1.8,16.4-9.9
		c0.4-1.3,0.8-2.5,1.3-3.8c2.2-6.6,2-7.1-4.6-8.4c-7.7-1.5-15.3-3.4-23.2-2.2c-19.2,3-30.9,14.9-35.4,35.7c-4.8,22.3-9.3,44.7-14,67
		c-1,4.9-2,9.8-4.2,14.3c-1.5,3.1-3.4,6-7.3,6c-3.7,0-5.4-3-6.8-5.8c-2.4-4.8-3.4-10.1-4.4-15.3c-6.2-31-13-61.9-19.4-92.9
		c-1.8-8.8-1.9-8.8-10.8-6.8c-3.4,0.8-6.8,1.5-10.2,2.3c-1.8,0.4-3.6,1.1-5.2-0.3c0-5,0.1-10-0.1-15c-0.1-1.7,0.3-2.3,2.1-2
		c0.8,0.1,1.7,0,2.5,0c102.2,0,204.3,0,306.5,0c2.1,2.6,1.5,5.7,1.5,8.6c0,41.3,0,82.5,0,123.8c0,11.9,2.1,14.9,13.2,19.5
		c5.6,2.3,11.3,3.9,17.2,5.1c1.9,0.4,4.5,0.1,5.1,3c-57,0-114,0-171,0c0.9-3.2,3.9-2.7,6.1-3.2c7.6-1.7,14.5-4.6,20.4-9.9
		c9.8-8.7,13.7-20,13.9-32.6c0.3-25,0.1-50,0.1-75c0-5.4-0.5-5.8-6.1-5.9c-2.8,0-5.7,0-8.5,0c-7.2,0-7.4,0.2-7.4,7.2
		c0,22.2,0,44.3,0,66.5c0,4.4-0.4,8.7-1.6,12.9c-2,7.3-6.5,12.4-13.9,14.3c-7.6,1.9-15.2,2.2-22.5-1.1c-6.8-3-10.6-8.2-11.8-15.6
		c-0.9-5.8-1.2-11.6-1.1-17.4c0.1-11.2,0.1-22.3,0-33.5c0-5.7-0.5-6.2-6.3-6.2c-3.7,0-7.3,0-11,0c-3,0-4.7,1.1-4.7,4.4
		c0.4,18.8-1.3,37.7,1,56.4c2.3,18.5,13.9,31,32,35.2C248.9,499,252,498.5,253,501.9z"/>
	<path class="st1" d="M91,358.9c6.8-1.5,13.7-2.7,20.5-4.5c3.6-1,5.1-0.6,6,3.6c7,34.2,14.3,68.4,21.6,102.5c0.7,3.4,1.8,6.8,3,10
		c1.1,3,2.5,6.3,6.3,6.1c3.4-0.1,4.8-3.2,6-6c2.4-5.4,3.3-11.2,4.5-16.8c4.5-21.3,8.6-42.7,13.4-64c3.9-17.3,12.7-30.8,31-35.6
		c11.9-3.1,23.4-0.2,35,2.6c2.1,0.5,2.2,1.7,1.6,3.4c-2.3,6.8-4.7,13.5-7,20.3c-0.6,1.7-1.4,2.2-3.4,1.7c-3.5-0.9-7.2-1.4-10.8-1.9
		c-11.3-1.7-18.1,2.7-20.6,13.8c-5.5,24.8-10.7,49.7-16,74.6c-1.3,5.9-3.2,11.5-6,16.9c-4.5,8.6-11.9,13.6-21,16.2
		c-4.3,0-8.7,0-13,0c-15.2-1-22-11.5-26.6-24.1c-3.6-10-5-20.7-7.3-31c-4.9-22.4-9.4-44.9-14.4-67.3c-1.3-5.8-1.5-11.8-2.8-17.6
		C91,360.9,91,359.9,91,358.9z"/>
	<path class="st1" d="M439,501.9c-3.5-2.1-7.6-1.8-11.3-2.8c-5.8-1.6-11.4-3.7-16.8-6.3c-6.2-3-9-7.7-9-14.7
		c0.1-45.4,0.1-90.8,0.1-136.2c8.3,0,16.7,0,25,0c1.9,2.3,1.4,5.1,1.4,7.7c0,37.8,0,75.6,0,113.5c0,8.2,0.3,8.8,8.1,10.5
		c7.7,1.7,15.6,1.9,23.3-0.4c9.4-2.8,16.1-8.6,18.2-18.6c2.1-9.7-1-17.8-8.1-24.4c-7.8-7.4-17.7-11.2-27.7-14.3
		c-7.9-2.5-8.3-3.1-5.3-10.9c1.6-4.2,2.9-8.5,4.5-12.7c1.2-3.2,3.2-4.4,6.6-3.5c15.8,4.1,30.8,10.1,43,21.3c8.7,8,14.1,18,14.9,30
		c0,4.3,0,8.7,0,13c-1,1.6-0.3,3.4-0.5,5.1c-0.3,14.6-8.3,24.8-19.1,33.1c-8.8,6.8-18.9,10.1-30,10.2c-0.8,0-1.7-0.1-2.3,0.5
		c-1,0-2,0-3,0c-3-0.8-6-0.8-9,0C441,501.9,440,501.9,439,501.9z"/>
	<path class="st0" d="M506,439.9c-2.5-8.2-5-16.4-10.6-23.3c-9.4-11.5-21.9-18.2-35.6-22.9c-4.2-1.5-8.6-2.5-12.8-4
		c-2.6-0.9-3.5-0.1-4.2,2.3c-1.8,5.7-3.7,11.4-5.9,17c-1.1,2.9-0.1,3.7,2.4,4.4c8.2,2.3,16.2,5,23.5,9.5
		c9.7,5.9,17.1,13.4,17.2,25.7c0.1,14.4-9.4,25-24.8,27.1c-8,1.1-15.9,0.5-23.7-1.9c-3.4-1.1-4.6-2.7-4.6-6.4
		c0.1-41.8,0-83.6,0-125.5c25.3,0,50.7,0,76-0.1c2.5,0,3.1,0.6,3.1,3.1C506,376.6,506,408.2,506,439.9z"/>
	<path class="st1" d="M253,501.9c-0.9-1.7-2.7-1.1-4-1.4c-23.7-5.3-36.2-20.1-36.7-44.3c-0.3-17.2,0-34.3-0.2-51.5
		c0-3.2,1.1-4,4.1-3.9c5.7,0.2,11.3,0.2,17,0c3.3-0.1,4.2,1,4.2,4.2c-0.2,14.2-0.1,28.3,0,42.5c0,3.5,0.2,7,0.6,10.5
		c0.9,9,5.7,14.6,14.4,17.1c5.6,1.6,11.3,1.5,16.8,0.2c10.7-2.6,15.7-9.9,15.7-22.9c0.1-24.2,0.2-48.3-0.1-72.5
		c-0.1-4.9,1.3-6.4,6.1-6c5.1,0.4,10.3,0.2,15.5,0.1c2.4,0,3.7,0.4,3.6,3.3c-0.1,27.3,0.6,54.7-0.4,82c-0.8,22.9-15,37.4-38,41.5
		c-1.2,0.2-2.8-0.4-3.6,1.1c-1,0-2,0-3,0c-3-0.8-6-0.8-9,0C255,501.9,254,501.9,253,501.9z"/>
	<path class="st0" d="M91,361.9c3.4,9.9,4.7,20.3,6.9,30.5c5.8,26.3,11.3,52.7,17,79c1,4.7,2.8,9.2,5,13.5
		c4.6,9.4,12.3,14.5,22.1,17c-15.5,0-30.9-0.2-46.4,0.1c-4.3,0.1-4.7-1.2-4.7-5C91.1,452,91,406.9,91,361.9z"/>
	<path class="st0" d="M454,501.9c4.2-2,8.9-1.8,13.3-3c20.5-5.6,35.4-21.6,37.8-40.9c0.2-0.6,0.5-0.6,0.9-0.1
		c0,13.7-0.1,27.3,0.1,41c0,2.5-0.6,3.1-3.1,3.1C486.7,501.8,470.3,501.9,454,501.9z"/>
	<path class="st1" d="M256,501.9c3-1.6,6-1.6,9,0C262,501.9,259,501.9,256,501.9z"/>
	<path class="st1" d="M442,501.9c3-1.6,6-1.6,9,0C448,501.9,445,501.9,442,501.9z"/>
	<path class="st1" d="M506,457.9c-0.3,0-0.6,0.1-0.9,0.1c-0.1-1.8-0.7-3.6,0.9-5.1C506,454.6,506,456.2,506,457.9z"/>
	<path class="st1" d="M327.9,451.4c0-12.7,0.3-25.3-0.1-38c-0.7-27.3,18.3-41.7,44.6-40.1c5.6,0.3,11.2,1.3,16.7,2.7
		c2.8,0.7,4.4,1.5,3,5c-2.2,5.4-4.1,10.9-5.7,16.5c-0.8,2.9-2.2,3-4.7,2.5c-3.2-0.7-6.6-1.1-9.9-1.3c-12.3-0.6-18.8,5.5-18.8,17.8
		c-0.1,23.7,0,47.3,0,71c0,2.7-0.2,5.4,0.1,8c0.4,3.5-0.8,4.7-4.4,4.5c-5.5-0.3-11-0.3-16.5,0c-3.7,0.2-4.3-1.3-4.3-4.6
		C328,480.7,327.9,466.1,327.9,451.4z"/>
</g>
</svg>
