<?xml version="1.0" encoding="utf-8"?>
<!-- Generator: Adobe Illustrator 19.0.1, SVG Export Plug-In . SVG Version: 6.00 Build 0)  -->
<svg version="1.1" id="Слой_1" xmlns="http://www.w3.org/2000/svg" xmlns:xlink="http://www.w3.org/1999/xlink" x="0px" y="0px"
	 viewBox="0 0 101.9 98.2" enable-background="new 0 0 101.9 98.2" xml:space="preserve">
<g>
	<path fill="#4F5194" d="M9.2,37l1,2.4l1.8,1.2l2.2-2l-0.8-2L10.4,36L9.2,37z M3.9,37.6c0,0,1-0.4,0.4-1.6c-0.6-1.2-1.4-3.1,0-3.7
		c1.4-0.6,3.5-3.1,3.9-3.9c0.4-0.8,0.6-2,1.8-2s2.9,2,2.9,2l1-0.6l-0.6-2.2l1-1.4l-4.5-5.9l7.1,2.2l1.8-1.8l10.2,0.4l0.6,2.4
		l2.9,1.4l4.5,3.2l6.5,4.9l0.8-2.4l11.4-0.6l0.8-2.8l2.7-2.4l1.4,0.8l1.6-1c0,0-1.2-1.6-0.2-2.8c1-1.2,2.6-3.5,4.1-2
		c1.4,1.4,4.3,3.4,4.3,3.4l2.7-0.2l4.3,3.9l0.2,2.6l-5.3,3.4l-1.2-1.2l-1.8,1v2.2l-2.2,1.8l-0.2,2.8l2,0.8l0.4,7.1l4.3,1.2l3,3.5
		l-0.6,1.4l1.8,2.6l-1.4,1l-2.4-0.2l-0.4,2l-2.7,3.2c0,0,0.6,2.2-0.2,2.6c-0.8,0.4-1.6,0.8-2-0.2c-0.4-1-0.8-2-0.8-2h-1.8L66,65
		l-5.1,1.6L58.6,65L57,65.2l-1.2-1.4l-5.7,1c0,0,0.9,1.1,1.7,2.1c0.5,0.6,1,1.2,1.2,1.5c0.4,1,1.7,2,1.7,3c0,1-0.1,4.3-0.1,4.3
		l0.2,6.1l-2.4,1l1.4,2.8l-1.2,1.8l1.4,1.6l0.8,1.6l-7.9,2l-5.9-11.2c0,0,0.2-3.4-0.8-3.4c-1,0-2.9-0.8-2.2-2
		c0.6-1.2,0.6-2.2,0.2-3.2c-0.4-1-2-2.6-3.5-2.4c-1.4,0.2-1.4-0.8-2.4-1.4c-1-0.6-0.4-2.4-0.4-2.4l-0.4-1.2l-5.3,1l-0.6-2.6l1.6-3
		l-5.9-6.3L20,55.3l-1.6-1.4l0.6-1.4l-2.9-4.9l-1.8-0.2l-1.4-1.4l-7.9,1.2l-1.4,1.6c0,0,1,1.6-0.2,1.8C2,50.8,0,50.2,0,50.2l1.6-6.5
		L2,40.6L3.9,37.6z"/>
	<g>
		<g>
			<path fill="#FFFFFF" d="M44.7,40.4h-4L37,44.4v-3.9h-3.5v12H37v-3.9l0.8-0.9l3.1,4.8h4.1l-4.7-7.2L44.7,40.4z M48.6,43.9h-3.2
				v8.6h3.2V43.9z M48.6,40.4h-3.2v2.4h3.2V40.4z M54.1,52.7c1.1,0,1.9-0.2,2.7-0.7c0.8-0.5,1.4-1.3,1.6-2.1h-3.1
				c-0.2,0.4-0.6,0.6-1.2,0.6c-1,0-1.5-0.6-1.7-1.6h6.1c0-1.7-0.5-3.2-1.5-4.2c-0.8-0.7-1.8-1.2-3.2-1.2c-2.7,0-4.6,2-4.6,4.6
				C49.4,50.8,51.3,52.7,54.1,52.7z M54,45.7c0.8,0,1.3,0.6,1.4,1.5h-3C52.7,46.3,53.2,45.7,54,45.7z M68,43.9h-3.2l-1,3.3
				c-0.3,0.9-0.6,2.1-0.6,2.1h0c0,0-0.3-1.2-0.6-2.1l-1-3.3h-3.3l2.9,8.6H65L68,43.9z M67.5,52.4h3.3v-3.2h-3.3V52.4z M40.6,64.8
				c0,1.1-0.6,1.9-1.8,1.9c-1.3,0-1.9-0.7-1.9-1.8v-7.6h-3.5v7.4c0,3,1.7,4.8,5.4,4.8c3.6,0,5.4-1.8,5.4-4.8v-7.4h-3.5V64.8z
				 M54.1,60.7h-3.6l-2.1,2.6v-6h-3.1v12h3.1v-2.4l0.7-0.7l1.7,3.1h3.6l-3.2-5.4L54.1,60.7z M58.1,62L58.1,62L58,60.7h-3v8.6h3.2
				v-3.5c0-1.9,1.1-2.8,3-2.5h0.1v-2.7c-0.1-0.1-0.3-0.1-0.5-0.1C59.6,60.5,58.8,60.9,58.1,62z M70,63.5c0-1.1-0.4-2-1.3-2.6
				c-0.7-0.4-1.5-0.6-2.8-0.6c-2.7,0-4,1.4-4.1,3.1h3c0.1-0.6,0.4-1,1.1-1c0.7,0,0.9,0.4,0.9,0.8c0,0.5-0.5,0.8-2.3,1
				c-1.6,0.2-3.1,0.7-3.1,2.6c0,1.7,1.2,2.6,2.9,2.6c1.1,0,2-0.4,2.6-1.2h0c0.1,0.5,0.2,0.7,0.3,0.9h3.1v-0.1
				C70,68.9,70,68.6,70,67.8V63.5z M66.9,66.1c0,1-0.7,1.4-1.4,1.4c-0.5,0-1-0.3-1-0.8c0-0.5,0.3-0.8,1.2-1c0.5-0.1,0.9-0.3,1.2-0.4
				V66.1z M71.2,69.2h3.2v-8.6h-3.2V69.2z M71.2,59.6h3.2v-2.4h-3.2V59.6z M81.3,60.4c-1.2,0-2.1,0.5-2.8,1.4h-0.1v-1.2h-3v8.6h3.2
				v-4.6c0-0.9,0.5-1.6,1.3-1.6c0.8,0,1.2,0.6,1.2,1.5v4.8h3.2v-5.5C84.3,61.7,83.3,60.4,81.3,60.4z M89.8,67.3
				c-1,0-1.5-0.6-1.7-1.6h6.1c0-1.7-0.5-3.2-1.5-4.2c-0.8-0.7-1.8-1.2-3.2-1.2c-2.7,0-4.6,2-4.6,4.6c0,2.6,1.9,4.5,4.7,4.5
				c1.1,0,1.9-0.2,2.7-0.7c0.8-0.5,1.4-1.3,1.6-2.1H91C90.8,67.1,90.4,67.3,89.8,67.3z M89.7,62.5c0.8,0,1.3,0.6,1.4,1.5h-3
				C88.3,63.1,88.8,62.5,89.7,62.5z"/>
		</g>
	</g>
</g>
</svg>
