<?xml version="1.0" encoding="utf-8"?>
<!-- Generator: Adobe Illustrator 19.0.1, SVG Export Plug-In . SVG Version: 6.00 Build 0)  -->
<svg version="1.1" id="Слой_1" xmlns="http://www.w3.org/2000/svg" xmlns:xlink="http://www.w3.org/1999/xlink" x="0px" y="0px"
	 viewBox="0 0 101.9 98.2" enable-background="new 0 0 101.9 98.2" xml:space="preserve">
<g>
	<path fill="#4F5194" d="M51.3,1.9l-0.1-0.3l-0.2,0.1l-0.1,0l-0.1,0l-0.1,0h-0.1l-0.2,0h-0.1l-0.2,0l-0.2,0l-0.1,0h-0.1l-0.1,0
		l-0.1,0l-0.2,0h-0.2l-0.1,0.1l0,0l0,0l-0.1,0l-0.1,0l-0.1,0h-0.2l-0.1,0l-0.1,0h-0.1l-0.1,0l-0.1,0h-0.2l0,0h0l0,0h-0.2l-0.1,0
		h-0.1l-0.1,0l0,0h-0.1l-0.1,0l-0.1,0h-0.1l0,0l0,0l0,0l-0.1-0.1l-0.2-0.1l-0.2,0l-0.3,0l0,0h0l0,0h-0.1l-0.1,0.1l-0.1,0L45.5,2
		l-0.1,0.1l-0.1,0.1l-0.1,0.1v0.2l0.1,0.1v0l0,0.1l-0.1,0.1L45.1,3l-0.1,0l-0.1,0l-0.2,0.1l0,0.1l-0.1,0.1l-0.1,0h-0.2l-0.2,0
		l-0.1,0l-0.1,0l-0.2,0l-0.2,0l-0.1,0.1l-0.1,0l0,0l-0.1-0.1l-0.1-0.1l-0.2-0.1l0,0l0,0l0,0.1l-0.2,0.1l-0.1,0.2l0,0.1l-0.1,0.1
		l0,0.1l0,0h-0.1l0-0.1l-0.1-0.1l-0.1-0.2l-0.2-0.1l-0.2,0.1l0,0.1l-0.1,0.1l0,0.1l0,0l-0.1,0.1l0,0.1l0,0.1l0,0l0,0l0,0l0,0V3.9
		l-0.1-0.1l-0.2-0.1l-0.2,0l-0.1,0l-0.2,0l0,0.1l0,0l0,0l-0.1,0l0-0.1l0.1-0.1l0-0.2l-0.1-0.1l-0.1-0.1l0-0.1L40.6,3l-0.1-0.1
		l-0.2-0.1l-0.1,0H40l-0.1,0l-0.1-0.2l-0.1-0.1l-0.3,0l-0.2,0.1l0,0.1l0,0.1v0l-0.1,0l-0.1-0.1l-0.1,0h-0.1l0-0.1l-0.1-0.1l0-0.1
		l0-0.1l-0.1-0.1l0-0.1L38.4,2l-0.2,0.2l-0.1,0.2l0,0.1l0,0.1L38,2.6l0,0l0,0l0,0l-0.1,0l-0.1,0.1l-0.1,0.1l-0.1,0.1l0,0V2.8l0-0.1
		l-0.1-0.2l-0.1-0.2l-0.2-0.1l-0.2,0H37l-0.2,0l-0.1,0.2l0,0l0,0l0,0l0,0h-0.2V2.3l0-0.1l0-0.1L36.3,2l-0.1-0.1l-0.1-0.1l-0.1-0.1
		l-0.2,0l-0.1,0.1l-0.1,0.1L35.6,2l0,0l-0.1,0.1l0,0.1l0,0.1l0,0l0,0l0,0l0-0.1l0-0.1l0-0.2l0-0.1l-0.1-0.1l-0.1-0.1l-0.3,0
		l-0.2,0.1l0,0.1l0-0.1l0-0.3l0,0V1.2l-0.2-0.1l-0.1,0l-0.1,0l-0.1,0h0l0,0l0-0.1l0-0.1L34,0.8l-0.1-0.1h-0.3l-0.1,0.1l0,0l-0.2-0.1
		h-0.2l-0.1,0l-0.1,0l-0.1,0h-0.1l-0.2,0l-0.1,0.1l0,0l-0.1-0.2l-0.1-0.1L32,0.2l-0.2,0h-0.1l-0.1,0h-0.1l-0.2,0l-0.1,0l-0.2,0
		l-0.1,0l-0.1,0l-0.1,0l-0.2,0l-0.1,0l0,0l-0.1,0h-0.1l-0.1,0l0,0l-0.1,0l-0.1,0L30,0l-0.1,0l-0.1,0h-0.1l-0.1,0l-0.2,0.1l0,0l0,0
		l-0.1,0l-0.2,0l-0.1,0.1l-0.1,0.1l0,0l0,0l0,0l0,0l-0.1-0.2l-0.3,0l-0.2,0.1L28,0.5v0.2l0,0.1l-0.2,0l-0.2,0.1l0,0.2l0,0.1l0,0.1
		h-0.1l-0.1,0.1l0,0l-0.1,0l-0.2,0.1l-0.1,0.3l0.2,0.1l0.1,0.1l0.1,0l0,0l0,0l-0.1,0.2v0.3l0,0L27,2.4l-0.1,0.1l-0.1,0.2l-0.1,0.2
		l0,0.2l0,0.1l-0.1,0.1v0.1l0,0.1v0.2l0,0l-0.1,0.1l0,0.1l0,0.1l0,0.1l0,0.1l0,0l-0.1,0.1v0.1l0,0l0,0.1l0,0.1v0.1l0,0h0l-0.2,0
		L26,4.9l-0.1,0l0,0l-0.1,0l-0.1,0l-0.1,0.1l0,0l-0.1,0l-0.1,0.1l0,0l-0.1,0l0,0l-0.1,0l-0.1,0l-0.1,0l-0.1,0l0,0l-0.1,0l-0.1,0
		l-0.1,0l-0.2,0l0,0l0,0l-0.1,0l-0.1,0l-0.1,0.1l0,0l-0.1,0l-0.1,0l-0.1,0l-0.1,0.1l0,0l-0.2,0.1l-0.1,0L23.3,6l0,0l-0.1,0L23,6.2
		l-0.1,0l-0.1,0l-0.1,0l-0.1,0l-0.1,0l-0.1,0l-0.2,0.1l-0.1,0.1l-0.1,0l-0.1,0l-0.1,0.1l-0.1,0l-0.1,0l-0.1,0l-0.1,0l0,0l0,0l0-0.1
		l-0.1-0.1l-0.2-0.1L21,6.4h-0.2l-0.2,0l-0.2,0.1l-0.2,0.1l-0.1,0.1L20,6.7l0,0.1l-0.1,0l-0.1,0.1l0,0h-0.2l-0.1,0.2l0,0.2l0,0.1
		l0,0.2l0,0.1v0L19.2,8l0,0.2l0.1,0.1l0,0.1l0,0.1l0,0l0,0l-0.1,0l-0.1,0.1l-0.1,0l-0.1,0l0,0l0,0l0,0l-0.1,0l0,0l-0.1,0l0,0l-0.1,0
		l-0.1-0.1l-0.1,0l-0.1-0.1h-0.2l-0.2,0l-0.1,0.2l0,0.1l0,0.1l0,0l0,0l-0.1,0.1l0,0l-0.1,0.1l-0.1,0.2l-0.1,0.1l0,0.1l-0.1,0.1
		l-0.1,0.2l0,0l-0.1,0.1l0,0.2l0,0.1l-0.1,0.1l-0.1,0.1l0,0L17,10.3l0,0.2v0.1l0,0.2l0,0.1v0.4l0,0.1l0,0.1l0,0.1v0.4l0,0.1l0,0.1
		v0.1l0,0.1l0,0.1l0,0.1l0.1,0.1l0,0.1l0,0.2l0.1,0.1l0,0.1l0,0l-0.1,0h-0.2L17,13.3l0,0l0,0l-0.1,0l-0.1,0l0,0h-0.1l-0.1,0l-0.1,0
		l0,0l-0.1,0l-0.1,0l-0.1,0l-0.1,0l-0.1,0l-0.2,0l-0.1,0.1l-0.1,0l-0.1,0l0,0l0,0l-0.1,0l-0.1,0l-0.1,0.1l-0.1,0L15,13.7l0,0.1
		l-0.1,0.1l-0.1,0l-0.1,0l0,0l0,0l0,0l0,0l0,0l0-0.1l-0.1-0.1l-0.1-0.1h-0.1l-0.1,0l-0.1,0l-0.2,0.1l-0.1,0.1l-0.1,0l-0.1,0
		l-0.2,0.1L13.3,14l-0.1,0.1l0,0.1l0,0.1l-0.1,0l-0.2,0.1l-0.1,0l-0.1,0.1l0,0l0,0l0,0l-0.1,0l0,0l-0.1-0.1l0-0.1l-0.1-0.1l-0.1,0
		l-0.1-0.1l0-0.1L12.2,14l0,0l-0.1-0.1l0,0l0,0l0-0.1v-0.1l0-0.1L12,13.4l0-0.1v-0.1l-0.1-0.1v0l-0.1-0.2l0,0l0,0l-0.1-0.1l-0.1,0
		l0-0.1l-0.2-0.1l-0.1-0.1l-0.1-0.1h0l0,0l0-0.1l0-0.1L11,12l0-0.1l0-0.1l-0.1-0.1l-0.1-0.1l-0.1,0l0,0l0-0.1l-0.1-0.1l0-0.1
		l-0.1-0.1l-0.2,0h-0.1l-0.1,0l-0.1,0l-0.1,0l-0.2,0.1l0,0h0l0,0H9.3l0,0l0,0l-0.1,0l0-0.1l-0.1-0.1L9,11.1l0,0l0,0l0,0v-0.2
		l-0.1-0.2l-0.1-0.1l-0.2-0.1l-0.1,0l-0.1,0l-0.1,0H8.1l-0.1,0H7.8l-0.1,0l-0.1,0.1l-0.1,0l-0.1,0.1l0,0.1l0,0.1l0,0.1l-0.1,0.1
		l0,0.1l0,0l0,0l-0.1,0H7l0,0H6.9l-0.1,0H6.7l-0.1,0l-0.1,0l-0.1,0l0,0l0,0l-0.1-0.1l-0.1,0L6,11l-0.1,0l-0.1,0l-0.1,0l0,0l-0.1-0.1
		l-0.2-0.1l-0.2,0L5.1,11v0.1l0,0L5,11.3v0.4l0,0.1l0,0.1l0,0.1l0,0V12l0.1,0.1l0,0l0,0.2l0.2,0.1l0,0l0,0.1l0.1,0.1l0,0l0,0l0,0.1
		l0,0.1v0.1l0,0l0,0.1l0.1,0.1l0,0l0,0.2l0.1,0.1l0.1,0.1l0,0l0,0.1L6,13.8L6,13.9l0,0l0,0.1l0,0l0,0.1l0.1,0.1l0,0.1l0,0.1l0.1,0.2
		l0,0l0,0.1l0.1,0.1l0,0.1l0.1,0.1l0,0l0,0l0.1,0.1l0,0.1l0,0.1l0,0.1l0,0.1l0,0v0.1l0,0.1l0,0.1l0,0.1L7.1,16l0.1,0l0,0l0,0.1
		l0.1,0.1l0.1,0.1l0.1,0.1l0.1,0.1l0.1,0.1l0.1,0.1l0.1,0l0,0l0.1,0.1l0,0L7.8,17L7.9,17l0,0.1l0.1,0.1L8,17.3l0.1,0.1l0,0.1l0,0.1
		l0.1,0.1l0.1,0.1l0.1,0.1l0,0.1l0.1,0.1l0.1,0l0,0l0,0.1l0.1,0.1l0.1,0.1l0,0l0.1,0.1l0.1,0.1L9,18.6l0,0.1l0,0.1l0.1,0.1l0.1,0.1
		l0,0l0,0L9.3,19l0.1,0.1l0,0.1l0.1,0.1l0.1,0.1l0.1,0l0,0l0,0l0.1,0.2l0.1,0.1l0,0l0,0.1l0.1,0.1l0,0l0,0.1l0,0l0,0.1l0,0.1l0,0.1
		l0,0l0,0.1l0,0.1l0,0.1l0,0.1l0,0l0,0l-0.1,0l0,0.1l-0.1,0.1l0,0.1l0,0l-0.1,0.1l-0.1,0l-0.1,0.1l0,0l0-0.1l0-0.1L9.1,21L9,20.9
		l-0.1,0l0,0l-0.1-0.1l-0.1,0l-0.1-0.1l-0.1,0l0,0l0,0l-0.1-0.1l-0.1,0l0,0l-0.1-0.1l-0.1-0.1l-0.1,0l-0.1-0.1l-0.1,0L8,20l-0.1-0.1
		l0,0l0-0.1l0,0l0,0l-0.1-0.1l-0.1-0.1l0,0l-0.1-0.1l0,0l0,0l0-0.1l-0.1-0.1l-0.1-0.1l-0.1,0l-0.1-0.1l-0.1,0l0-0.1l-0.1,0l0,0
		l-0.1-0.1l-0.1-0.1l-0.1,0l0,0l0,0l-0.1-0.1l0,0l0-0.1l-0.1-0.1l0,0l-0.1-0.1l-0.1,0l0,0l0,0l0-0.1L6,18.1l-0.1-0.1L5.9,18l-0.1,0
		l0-0.1l-0.1-0.1l-0.1-0.1l0-0.1l-0.1-0.1l-0.1-0.1l-0.1-0.1l-0.1-0.1L5,17.2L5,17.1l-0.1,0L4.9,17l-0.1,0l0,0l-0.1-0.1l0,0
		l-0.1-0.1l-0.1-0.1l0,0l0,0l-0.1-0.1l-0.1-0.1l0,0l-0.1-0.1l-0.1-0.1l0,0L4,16.2l-0.1-0.1l-0.1-0.1L3.7,16l-0.2,0l-0.2,0l0,0l0,0
		l-0.1,0l-0.1,0l-0.1,0H2.8l0,0h0l0,0h0l-0.1,0.1l-0.1,0.1l-0.1,0.3l0,0.2l0.1,0.1l0,0.1l0,0l0,0.1l-0.1,0.1l-0.1,0.1l0,0.1
		l-0.1,0.1l0,0.1l0,0l-0.1,0.1L2,17.6l0,0.1l0,0l0,0.1l-0.1,0.1l-0.1,0.1l0,0l0,0l-0.1,0l0,0l-0.1,0l-0.1,0.1l-0.1,0l-0.1,0
		l-0.1,0.1l-0.1,0l-0.1,0.1l0,0l-0.1,0.1l-0.1,0l-0.2,0.1l0,0l-0.1,0.1L0.9,19L1,19.1L1,19.1l0.2,0.1l0.2,0.1l0,0l0.1,0.1l0,0l0,0
		l0.1,0.1l0.2,0.2l0,0L1.9,20L2,20.1l0.2,0.1l0.1,0.1l0.1,0.1l0.1,0l0.1,0.1l0.2,0.1l0.1,0.1l0.1,0.1L3,20.9l0,0L3.1,21l0.1,0.1
		l0.1,0.1l0.1,0l0,0l0.2,0.3l0.1,0l0.1,0l0.1,0.1l0.1,0.2L4,21.9l0,0.1L4.1,22l0.1,0l0,0.1l0.1,0.1l0.1,0.1l0.1,0.1l-0.1,0.1l0,0.3
		l0.1,0.1L4.7,23l0.1,0.1l0.1,0.1l0,0l0.1,0.2L5,23.8l0.1,0.1L5.2,24l0.1,0.1l0.1,0.1l0.1,0.1l0.1,0.1l0.1,0.1l0.1,0.1l0.1,0.1
		l0.1,0L6,24.8l0.1,0.1l0,0l0.1,0.2l0.1,0.1l0.1,0.1l0.1,0.2l0.2,0.2l0.1,0.1l0,0.1l0.1,0.2L7,26.2l0,0l0.1,0.2l0.1,0.1l0.1,0.1
		l0.1,0.2l0.1,0.1l0,0L7.6,27l0.1,0.2l0.1,0.1l0,0.1l0.1,0.2L8,27.5l0.1,0.2l0.1,0.1l0,0L8.3,28l0.1,0.1l0.1,0.1l0,0l0.1,0.1
		l0.1,0.1l0.1,0.2l0.1,0.2l0.1,0.1L9,29.1l0.1,0.2l0.1,0.1l0.1,0.1l0.1,0.1l0.1,0.2l0.1,0.1L9.6,30l0.1,0.1l0.1,0.2l0,0l0,0
		l-0.2,0.1l-0.1,0.2l0,0.6l0.1,0.1l0.1,0.2l0.1,0.1l0.1,0.1l0.1,0.1L10,32l0.1,0.1l0.1,0l0.1,0.2l0.1,0.1l0.1,0.2l0.1,0.1l0.1,0.2
		l0.1,0.1l0.1,0.2l0.2,0.1l0.1,0.1l-0.2,0H9.4l-0.6,0l-0.1-0.1l-0.3,0l-0.4,0.1l0,0.4l0.1,0.2l0.1,0.2l0.1,0.2l0.1,0.1l0.1,0.2
		l0.1,0.2l0.1,0.1l0.1,0.2l1.4,0.1l1.1,0l0,0l0.1,2.2l0.1,1.2l0.1,1.1l0.1,1.1l0,0l-0.6,0.1l-0.4,0.1l-0.2,0.1l-0.3,0.1L9.8,41
		L9.5,41l-0.3,0.1l-0.3,0.1l-0.5,0.1l0,0.6l0.1,0.3l0.1,0.4l0.2,0.2l0.3,0l0.6-0.1l0.6-0.1l0.6-0.1l0.6-0.1l0.7-0.1l0,0v0.1l0.1,0.3
		l0.1,0.3l0.2,0.2l0.2,0l0.1,0l0,0l0.1,0l0,0L13,43.4l0,0c0,0,0,0-0.1,0.1l-0.1,0.1l0,0.1l0,0l-0.1,0l-0.1,0.1l-0.1,0.1l-0.1,0.2
		v0.2l0,0.1l0.1,0.1l0.1,0.1l0.1,0.1l0,0l0.1,0.1l0.1,0l0,0.1l0.1,0l0,0l0.1,0.1l0.1,0.1l0.1,0l0.1,0.1l0.1,0.1l0,0l0.1,0.1l0,0l0,0
		l0.1,0.1l0,0.1l0.1,0.1l0.1,0.1l0.1,0.2l0.2,0.1l0.3,0.1l0.1-0.2l0,0l0.2-0.2l0,0c0,0,0,0,0-0.1l0,0l0,0.1l0.2,0.2l0.1,0.1l0,0
		l0.1,0.1l0.1,0.1l0.2,0.1l0.1,0.1l0.1,0.2l0.3,0.1l0.2,0.1l0.1,0l0,0l0.1,0.4l0.1,0.1l0,0.2l0.1,0.2l0.1,0.2l0.1,0.2l0.1,0.2l0,0.1
		l0.1,0.2l0.1,0.1l0,0.2l0.1,0.2l0.1,0.2l0.1,0.1l0,0.2l0,0.1l0,0L17.4,50l-0.1,0.1l0,0l-0.2,0L17,50.3l-0.1,0l-0.1,0.1l-0.2,0.1
		l-0.1,0.1l-0.1,0.1l-0.2,0.2l0,0.4l0,0.2l0.1,0.2v0.2c0,0.1,0,0.2,0.1,0.3l0,0l0.1,0.1c0,0.1,0.1,0.2,0.1,0.3c0,0.1,0,0.3,0,0.5
		l0,0.1l0.1,0.1l0.1,0.2l0,0.1l-0.1,0l-0.1,0.1l-0.1,0.1l-0.2,0.1l-0.1,0.6V55l0,0.3l0.1,1.6l0,0.1l0,0l0,0.2l0,0.2v0.2l-0.1,0.3
		l0,0.3l0,0.5l0,0.4L16,59.2l0,0.2c0,0,0,0.1,0,0.2c0,0,0,0,0,0l0,0l-0.1,0.2l0,0.1l-0.1,0.1l0,0.1l-0.1,0.1l-0.1,0.1l-0.1,0.1
		l-0.1,0.1l-0.1,0.2l-0.1,0.2l-0.1,0.3l0,0.1l0,0L15,61.4L15,61.6v0.3l0.3,0.2l0.3,0.1l0.2,0.1l0.1,0.1l0.2,0.1l0.1,0.1l0.3,0.1
		l0.2,0l0.1,0.1l0.2,0.1l0.2,0.1l0.4,0.1l0.3,0l0.2,0.1l0.1,0l-0.1,0.3l-0.1,0.3L18,63.9l-0.1,0.2l-0.1,0.2c0,0,0,0.1-0.1,0.2
		c0,0,0,0.1,0,0.1l-0.1,0.2l0,0.1l-0.1,0L17.6,65l0,0.1L17,65.1l-0.1,0.1l-0.3,0.1l0,0.3l-0.1,0.2l0,0.2l0,0.1l0,0.1l-0.1,0.1l0,0
		l0,0l-0.1,0.1l-0.2,0.1l0,0.2l0,0.1L16,67l-0.1,0.1l0,0.1l-0.1,0.1l0,0.1l0,0l-0.1,0.1l-0.2,0.2l0,0.1l-0.2,0.1L15,67.9l0,0.1
		l-0.2,0.1l-0.1,0.1l-0.2,0.1l-0.2,0.1l-0.1,0.2l0,0c0,0-0.1,0.1-0.1,0.1l-0.2,0.1l0.3,0.5l0.1,0.1l0.1,0.1l0.1,0.1l-0.2,0l-0.2,0.1
		l-0.1,0.2l-0.1,0.1l0,0.1l-0.1,0.1l0,0.3l0.2,0.1l0,0l0,0l-0.1,0.1l0,0l-0.1,0l-0.1,0.1l-0.2,0.1l-0.1,0.2l0,0.2l0,0.3l0.1,0.1
		l0,0.1l0.1,0.1l0,0.1l0,0.1l0.1,0.1l0,0l0,0l0,0.2l0,0.1l0.1,0.3l0.1,0.1l0.1,0.1l0,0.1l0,0l0,0.1l0.1,0.1l0,0.1l0.1,0.1l0.1,0.1
		l0,0l0,0.1v0.1l0,0.1l0,0.1L14,74l0,0.1L14,74.2l0,0l-0.1,0.1l0.2,0.2l0,0l0,0.3l0,0v0L14,74.9l0.1,0.2l0,0l0,0.1l0.1,0.2l0.1,0.1
		l0,0.1l0.1,0.2l0,0l0,0.1l0.1,0.1l0,0.1l0.1,0.1l0.1,0.1l0,0.1l0,0.1l0,0.1l0.1,0.2l0.1,0.1l0.1,0.2l0.1,0.1l0.1,0.1l0.2,0.1l0,0
		l0,0.1l0.2,0.2l0.2,0.1l0.1,0.1l0.1,0.1l0.2,0.1l0.2,0l0.1,0l0.1,0.1l0.2,0.1l0.2,0l0.1,0.1l0.1,0.1l0.1,0l0,0.1l0,0.1l0,0.2l0,0.2
		l0.1,0.2l0.1,0.1l0.1,0.2l0.1,0.1l0,0.1l0,0.1l0,0.1l0,0.3l0.1,0.1l0.1,0.1l0,0.2l0,0.3l0.1,0.2l0.3,0.1l0.2,0l0,0l0,0l0,0.1l0,0.1
		l0,0.1l0,0.1l0,0.2l0,0.1l0,0.1l0,0l-0.1,0.2l-0.1,0.3l0.2,0.1l0.1,0.1l0.2,0.1l0.1,0.1l0,0.1l0.1,0.2l0.1,0.1l0.1,0.2l0.1,0.1
		l0,0.1l0,0.2l0,0.2l0,0.2l0,0.2l0.1,0.1l0,0.1v0.1l0.1,0.2l0.2,0.1l0.3,0.1l0.2,0v0.1l0.1,0.2l0,0.1l0,0.1l0,0.1l0.1,0.1l0.1,0.1
		l0.1,0l0,0.1l0.1,0.1l0,0l0,0.1l0,0.1l0,0.1l0.1,0.1l0,0.1l0.1,0.1l0,0.1l0,0.1l0,0l0,0.1l0,0.1l0,0.1L21,87.1l-0.1,0.1l0,0.3
		l0.1,0.2l0.1,0.1l0.2,0.1l0.2,0.1l0.2,0.1l0,0l0.1,0.1l0.2,0.1l0.1,0.1l0.2,0.1l0,0l0,0.1l0,0l-0.1,0.1l0,0.1L22,88.8l0,0.2l0,0.1
		l0.1,0.2l0.1,0.1l0,0.1l0,0.1l0,0.2l0.1,0.1l0,0.1l0,0.1l0.1,0.1l0,0.1l0,0.2l0.2,0.1l0.2,0.1l0.2,0l0.1,0.1l0.1,0l0,0l0,0.1l0,0.2
		l0,0.2l0,0.2l0,0.2l0,0.1l0,0.1l0,0.1l-0.1,0.1L23,92.2L23,92.3l-0.1,0.1l0,0.1l-0.1,0.1l0,0.2l0,0.2l0,0.1l0,0l0,0.1l0,0.2l0,0.1
		l0,0.1l0,0.1l0,0l0,0v0.2l-0.1,0.1l0,0.1l0,0l0,0.3l0,0.2l0,0.1l0,0.4l0,0.1l0,0.1l0,0.1l0,0.1l0,0.1l0,0.1l0,0l0,0.3l0,0.2l0,0.2
		l0,0.1l0,0.2l0,0.1l-0.1,0.2v0.2l0,0.1l0,0.2l0,0.2l-0.1,0.5l0.4-0.2l0.1,0l0.2-0.1l0.2-0.1l0.1-0.1l0.2-0.1l0.1-0.1l0.2-0.1
		l0.1-0.1l0.1,0l0.2-0.1l0.1-0.1l0.2-0.1l0.1,0l0.2-0.1l0.1,0l0.1,0l0.1-0.1l0.2,0l0.1-0.1l0.1-0.1l0-0.1l0.1,0l0.1-0.1l0,0l0.1,0
		l0.1-0.1l0.1-0.1l0-0.1l0.1-0.1l0.1-0.1l0,0l0.1,0l0.1-0.1l0.1-0.1l0.1-0.1l0,0l0.2,0l0.1-0.1l0.1,0l0.2-0.1l0.1-0.1l0.1-0.1
		l0.1-0.1l0.1-0.1l0.1-0.1l0.1-0.1l0-0.1l0,0l0,0l0.1,0l0.1-0.1l0.1-0.1l0.1-0.2l0-0.1l0,0l0.1-0.1l0.1-0.1l0-0.1l0,0l0,0l0.2,0l0,0
		l0.1,0.1l0.2-0.1l0.2-0.1l0-0.1l0-0.1l0-0.1l0.1,0l0.1-0.1l0,0l0,0l0.1-0.1l0.1,0l0.1,0l0.1-0.1l0.1-0.1l0.1-0.1l0.1-0.1l0.1-0.1
		l0.2-0.1l0,0l0,0l0,0.1l0,0.1l0.1,0.1l0,0l0.1,0.1l0,0l0,0l0.1,0.1l0,0.1l0.1,0.3l0.3-0.2H31l0.1,0l0.1,0l0.2,0l0.2-0.1l0.1-0.1
		l0.1-0.1l0,0l0,0l0.1,0l0,0l0.1,0l0.1-0.1l0.1-0.1l0.1-0.1l0-0.1l0.1-0.1l0.1-0.2l0-0.1l0-0.1l0-0.1l0-0.2l0,0l0.2-0.1l0.1-0.2
		l0-0.1l0,0l0.1-0.1l0.1-0.1l0-0.1l0-0.1l0.1,0l0,0l0.1-0.1l-0.1-0.1l0-0.1l0,0L33,91l0,0l0,0l0,0l0-0.1l0,0l-0.1-0.1l0-0.1
		l-0.1,0.1h-0.3l-0.2-0.1l0-0.1l-0.1-0.1v-0.2l0,0l0,0l0-0.2l0-0.1l0-0.2l0-0.2l0-0.1l0.1-0.2l0.1,0l0,0l0,0l0,0l-0.1,0L32,89.1
		l-0.1-0.2v-0.2l0-0.1l0-0.1v-0.1l0-0.2V88l-0.1-0.2l0-0.2v-0.1l-0.1-0.1l0-0.2v-0.2l0-0.1l-0.1-0.1l0-0.3v-0.2l0-0.2l0-0.2l0-0.2
		l0-0.3l0-0.3l0-0.5l0-0.2l0,0l0,0l0-0.5l0-0.4l0-0.3l0-0.2l0,0l0,0l0-0.4l0-0.4l0-0.4v-0.2l0-0.1l0.1-0.5l0,0l0,0l0-0.4v-0.3l0-0.5
		l0-0.4v-1.1l0-0.4l0-0.3l0-0.2l0,0l0,0l0-0.2l0.2-0.1l0,0l0.1-0.2l0,0l0-0.1l0,0l0,0l0-0.3l-0.1-0.3l0-0.3l0-0.1l0,0l0,0l0-0.2
		l0-0.3l0-0.2l0-0.2v-0.3l0-0.3l0-0.2l0.1-0.4l0.1-0.3l0,0v0l0-0.2l0,0l0,0l0.1-0.1l0.1-0.1l0-0.2l0-0.2l0.1-0.3l0.1-0.3l0,0h0
		l0.1-0.3l0-0.1l-0.1,0l-0.1-0.1l0,0l0,0l0.3-0.5l0.2,0l0-0.1l0.1-0.3l0.1-0.2l0.3-0.7l0.1-0.2l0.1-0.1l0-0.1l0-0.1l0.1-0.1l0-0.2
		l0.1-0.2v-0.3l0.1-0.2l0-0.2v-0.5l0.1-0.1l0-0.2l0-0.2l0-0.2l0-0.3l0-0.2l0-0.2l0-0.2l0-0.2l0-0.3l0.1-0.2l0.1-0.2l0.1-0.2l0-0.2
		l0.1-0.2l0-0.2l0.1-0.2l0.1-0.2l0-0.2l0.1-0.2l0.1-0.3l0.1-0.1l0.1-0.1l0-0.2l0.1-0.1l0-0.1l0-0.1l0.1-0.2l0-0.2l0.2-0.1l0.1-0.1
		l0,0l0,0l0.1-0.1l0.2-0.1l0.2-0.1l0,0l0,0l0.1-0.1l0.2,0l0.2-0.1l0.2,0.2l0.1,0.1l0,0.2l0,0.1l0,0l0.1,0l0.1,0.1l0.2,0.1l0,0.1l0,0
		l0.1,0l0.1,0.1l0.1,0.1l0.1,0l0.1,0l0.1,0l0,0h0l0,0l0.3-0.1l0.2,0l0.2-0.1l0.2,0l0.2-0.1l0.1-0.1l0.1,0l0,0l0,0l0-0.1l0.1-0.1
		l0-0.1l0.1-0.3l0.1-0.2l0.1-0.1l0-0.1l0.1-0.2l0.1-0.2l0-0.1l0-0.1l0-0.1l0-0.1v-0.4l0.1-0.1v0L41,59l0-0.2l0.2-0.2l0.1-0.1
		l0.1-0.1l0.2-0.1l0.2-0.1l0.1,0l0,0l0,0l0,0l0.2,0l0.1-0.1l0.1,0l0.3-0.2l0.2,0l0.2,0.1l0.2,0.1l0.1,0.1l0.2,0.1l0.1,0.1l0.1,0.1
		l0.1,0.1l0.1,0.1l0.1,0.1l0,0h0.1l0.1-0.1l0.1-0.1l0.2-0.1l0.1,0l0,0l0,0l0.3-0.1l0.1,0l0,0l-0.1,0l-0.1-0.1L45,57.8l-0.1-0.1
		l-0.1,0l-0.1,0l-0.1-0.1l-0.1,0l-0.1,0l0,0l0-0.1v0l0,0l0-0.1v-0.1l0-0.1l0,0l0,0v-0.2l0-0.1l0-0.1l0-0.1l0-0.1l0,0l0,0l0-0.1
		l-0.1-0.1l0,0l0-0.1l-0.1,0l0,0l-0.1-0.1l0,0l0,0L43.8,56l-0.1,0l0,0l0,0l0,0l0,0l0,0l0-0.1l-0.1-0.1l0,0l0-0.1l-0.1-0.1l0,0l0,0
		l0,0l0,0l-0.1-0.1l0,0L43,55.2l-0.1,0l0,0l-0.1-0.1l0,0l0,0l0,0l0,0l-0.1-0.1l0,0l0,0l0.1-0.1l0,0l0,0h0.2l0.1,0l0.1,0l0.1,0h0.1
		l0.1,0l0.1,0l0.1,0l0.1,0H44l0.2,0l0.2,0l0.1-0.1l0.1-0.1l0.1-0.1l0-0.1v-0.1l0-0.1V54l0.1,0l0.1-0.2l-0.1-0.3l-0.1,0l0-0.1l-0.1,0
		l-0.1,0l-0.1,0l0,0l0,0l0.1,0l0.1-0.1l0,0l0.1-0.1l0.1-0.2v-0.3l-0.2-0.1l-0.1-0.1l-0.1,0l0,0L44,52.2l-0.1,0l-0.1,0l0,0l0,0
		L43.7,52L43.5,52l-0.1,0l0-0.1l-0.1-0.1l-0.2-0.1l-0.1,0l-0.1,0l-0.1,0l0,0l0-0.1l0-0.1l0-0.1l0-0.1l0-0.2l0-0.1l0-0.1v-0.4l0-0.1
		l0-0.1l0-0.1l0-0.1l0-0.1l0,0l0,0l0.1,0.1l0.2-0.1l0-0.1l0.1,0l0.1-0.1l0,0l0.1-0.1l0.1,0l0.1,0l0.1,0l0.1,0.1l0.1,0l0.1,0l0.1,0
		l0,0l0.1,0.1l0.2,0.1h0.2l0.2-0.2l0.1-0.1l0,0l0,0l0.1,0l0.1,0l0.1,0l0.1,0l0.1-0.1l0.2-0.1l0-0.1l0.1-0.1l0.1-0.2l0-0.2L45.4,49
		L45,49L45,49h-0.1l-0.1,0l-0.1,0l0,0l0-0.1l-0.1-0.1l-0.1,0l-0.1-0.1l-0.1-0.1l-0.1-0.1l-0.1,0l0,0l0-0.1l0-0.2L43.8,48l-0.2,0
		l-0.1,0l-0.1,0.1l0,0h-0.1l-0.1,0l-0.1,0h0l0,0l0.1-0.1l0.1,0l0.1-0.1l0,0l0.1-0.1l0.1-0.1l0.1-0.1l0,0l0.1-0.1l0,0l0.1-0.1
		l0.1-0.2l0,0l0.1,0l0.1-0.1l0,0l0.1,0l0.1-0.1l0.2-0.1l0,0l0,0l0.1-0.1l0.1-0.1l0.1-0.1l0.1-0.1l0.1-0.1l0-0.1l0-0.1l0.1-0.1v-0.3
		l0-0.1l0,0v-0.2l0-0.1l0,0l0-0.1l0-0.1v0l0-0.1l0-0.1v-0.1l0,0l0-0.2l0-0.1v-0.1l0,0l0.1,0l0.1-0.1l0.1-0.1l0,0l0.1-0.1l0-0.1
		l0-0.1l0.1-0.2l0-0.1l0-0.1v-0.2l0-0.1l0-0.1v-0.2l0,0l0-0.1v-0.2l0-0.1l0-0.1l0,0l0,0v-0.3l-0.1-0.2l0-0.1l0,0l0-0.1l0-0.1l0,0
		l0-0.1l0,0l0,0l0-0.2v-0.2l0-0.1l0-0.1l0,0v-0.1l0-0.1v-0.2l0-0.1l0-0.1l0,0l0-0.1v-0.1l0-0.1l0-0.1l0-0.1l0,0v-0.2l0-0.1L44.9,39
		L44.8,39l-0.1-0.1l-0.1-0.1l0,0l0-0.1l-0.1-0.1l-0.1-0.1l-0.2,0h-0.1l-0.2,0h-0.1l-0.1,0l0,0l0-0.1l0,0l0-0.1l0-0.1l0-0.1l0-0.1
		l0-0.1v0l0-0.1l0-0.1l0,0v-0.1l0,0l0,0v-0.2l0-0.1l0-0.1l0-0.1l0,0l0,0l0,0l0.1,0l0.1-0.1l0,0l0.1,0l0.1-0.1l0.1-0.1l0.1-0.1l0-0.1
		l0-0.1l0-0.1l0-0.1l0,0v-0.1l0-0.1l0-0.1l0-0.1v0l0-0.1l0,0l0-0.1l0-0.1l0-0.1l0-0.1l0,0l0-0.1l0-0.1v-0.3l0-0.1l0-0.1l0,0l0.1-0.1
		v-0.2l0,0l0-0.1h0.2l0.1,0l0.1,0H45l0.1,0l0.1,0l0.1,0l0.2,0l0.1-0.2l0-0.2l0,0l0-0.1l0-0.1l0,0l0-0.1l0-0.1l0.1-0.1l0.1,0l0.1-0.1
		l0-0.1l0,0l0,0l0.1,0l0,0l0,0l0,0h0l0,0l0.1,0l0,0l0,0l0.1,0l0.1,0.1l0.1,0.1l0.1,0l0.1,0l0,0l0,0.1l0.1,0.1l0.1,0.1l0.2,0l0.1,0
		h0.1l0.1,0l0.1,0l0,0l0.1,0l0.1,0l0,0l0,0h0l0.1,0l0.2,0l0-0.1l0.1,0l0.1,0l0.1,0l0,0l0.1,0l0.1,0l0,0l0,0l0,0l0.1,0l0.1,0l0,0l0,0
		l0.1,0l0,0l0.1,0l0.1,0l0.1,0l0.1,0l0.2,0h0.3v-0.5l0-0.1l0-0.1l0-0.1l0-0.1l0-0.1l0,0l0,0V33l0-0.1l0-0.1v-0.1l0,0v0l0-0.1v-0.1
		l0,0v-0.1l0,0l0,0l0,0l0,0l0-0.1l0-0.1l0-0.1l0-0.1v-0.2l0-0.1v-0.1l0,0l0-0.1l0,0l0-0.1l0-0.1l0-0.1l0-0.1v-0.1l0-0.1v-0.1l0-0.1
		l0,0l0-0.1v0l0.1-0.1l0.1-0.1l0-0.1V30l0-0.1l0-0.1l0-0.1l0,0l0,0l0.1,0l0.1,0l0.1,0l0.2,0l0.1-0.2l0-0.2l0-0.1l0-0.1l0-0.1l0-0.2
		v-0.1l0,0l0-0.1l0-0.1l0-0.1v-0.1l-0.1-0.2l-0.1-0.1l0,0l0,0l0,0l-0.1-0.1l0,0l0,0l-0.1-0.1l0,0l0-0.1l0,0l0-0.1l0,0l0-0.1
		l-0.1-0.1l0-0.1l-0.1-0.1l0,0l0-0.1l-0.1-0.1l0,0v0l0,0V27l0-0.1l0-0.1l0-0.1l0,0v0l0-0.1l-0.1-0.2L50,26.2l-0.1-0.1l-0.1,0l-0.1,0
		l-0.1,0l-0.1,0l-0.1-0.1l-0.1,0l-0.1,0l0,0L49,25.7l-0.2,0l-0.2,0l-0.1,0.1l-0.1,0l-0.1,0.2l0,0.1l0,0l0,0.1l0,0.1l0,0l-0.1,0l0,0
		l-0.1,0l0,0l-0.1-0.1l-0.1,0l0,0l0,0l-0.1-0.1l-0.1-0.1l0,0l0,0l0,0l0-0.1v-0.1l0-0.1l0-0.1l0-0.1l-0.1,0l0-0.1l-0.1-0.1l0,0l0-0.2
		l-0.3-0.1l-0.2,0l-0.1,0l0-0.1L46.9,25l-0.1-0.1l-0.2,0l-0.2,0L46.3,25l-0.1,0.2l0,0l0,0.1l0,0l0,0l0,0l0,0L46,25.1h-0.2l-0.2,0.1
		l0,0L45.4,25l0,0l-0.1-0.1l-0.2-0.1l0,0l-0.1,0l0,0L45,24.7l0,0l0,0l0.1-0.1l0-0.1l0,0l0.1-0.1l0-0.1l0,0l0.1-0.1l0-0.1l0-0.1l0,0
		l0.1-0.1l0-0.1l0-0.1l0-0.1l0-0.1l0-0.1l0-0.1l0-0.1l0-0.1l0-0.1l0-0.1l0-0.1l0.1-0.2l0-0.2v-0.1l0-0.1l0-0.1v-0.2l0-0.1l0-0.1
		l0-0.1v-0.3l0-0.1l0-0.1l0-0.1v0l0-0.1v-0.3l0-0.1v-0.3l0,0l0-0.1v-0.1l0-0.1v-0.1l0-0.1v0l0,0l0-0.1v-0.2l0-0.1v-0.1l0-0.1l0-0.1
		l0,0l0-0.1l0-0.1l0.1-0.1l0-0.1l0-0.1l0-0.1l0,0l0,0v-0.1l0-0.1l0-0.1l0-0.1l0-0.1v-0.1l0,0l0,0l0.1-0.1l0.1-0.2l0-0.1l0-0.1
		l0.1-0.1l0-0.1l0-0.1l0-0.1l0-0.1l0.1-0.1l0-0.1l0-0.1l0.1-0.1l0-0.1l0.1-0.1l0-0.1l0,0l0-0.1l0.1-0.1l0-0.1l0-0.1l0-0.1l0-0.1
		l0.1-0.1l0-0.1l0.1-0.3l0.1-0.1l0-0.1l0-0.1l0.1-0.1l0,0l0-0.1l0-0.1l0.1-0.1l0.1-0.2l0-0.1l0.1-0.1l0.1-0.2l0-0.1l0,0l0.1-0.2
		l0-0.1l0-0.1l0-0.1l0.1,0l0.1-0.1l0.1-0.1l0,0l0.1-0.1l0-0.1l0.1-0.1l0.1-0.2l0,0l0.1,0l0.1-0.2l0,0l0-0.1l0-0.1l0.1-0.1V12l0,0
		l0-0.1l0.1-0.1v-0.1l0,0l0.1-0.2l0-0.2v-0.3l0-0.2l-0.1-0.2l-0.2-0.1l-0.1-0.1L49,10.5l-0.1,0l0,0l-0.1-0.1l-0.1,0l-0.1,0l0,0
		l-0.1-0.1l-0.1-0.1l0,0l-0.1-0.1L48.1,10l-0.1,0l0,0l0,0l-0.2-0.1h-0.1l-0.1,0l0,0l0,0l0-0.1V9.6l0,0l0,0l0-0.2V9.2l0-0.1l0-0.1
		l0-0.1l0-0.1l0-0.1l0,0l0,0l0.1-0.2V8.3l-0.1-0.1v0l0-0.1l0-0.1l0-0.1l0-0.1l0-0.1l0-0.1l0-0.1l0-0.1l0,0l0,0l0.1-0.1l0.1,0
		l0.1-0.1l0.1-0.1V6.9l-0.1-0.1l0,0l0-0.1l0-0.1l0,0l0,0l0,0l0,0l0.1,0h0.2l0.1,0h0l0.1,0h0.2l0.2-0.1l0.1-0.1l0-0.1V6.1l0-0.1l0,0
		l0,0l0.1-0.1l0,0l0,0l0.1-0.1l0.1-0.1l0,0l0.1-0.1l0-0.2V5.3l0,0V5l0-0.1V4.8l0-0.1l0-0.1V4.6l0-0.1v0l0,0l0.1-0.1l0.1-0.1l0.1-0.1
		l0-0.1l0.1-0.1L49.6,4l0.1-0.1l0-0.2l0,0l0.1,0l0.1,0l0.2-0.1l0.1-0.1l0.1,0l0-0.1l0,0l0.1,0l0.1-0.1l0,0l0.1,0l0.1-0.1l0.1-0.1
		l0-0.1L51,2.9l0-0.1l0,0l0-0.1l0.1-0.1l0-0.1l0-0.1l0-0.1l0-0.2l0-0.1V2L51.3,1.9z M30.6,71.9L30.6,71.9l0,0.2L30.6,71.9L30.6,71.9
		z"/>
	<g>
		<g>
			<g>
				<path fill="#FFFFFF" d="M4.4,37.6L4.4,37.6l2,7.5H9l2-7.5h0v7.5h3.2v-12H9.6l-1.8,6.7h0l-1.8-6.7H1.3v12h3.1V37.6z M18.2,40.1
					c-1.6,0.2-3.1,0.7-3.1,2.6c0,1.7,1.2,2.6,2.9,2.6c1.1,0,2-0.4,2.6-1.2h0c0.1,0.5,0.2,0.7,0.3,0.9H24V45
					c-0.3-0.2-0.3-0.6-0.3-1.3v-4.3c0-1.1-0.4-2-1.3-2.6c-0.7-0.4-1.5-0.6-2.8-0.6c-2.7,0-4,1.4-4.1,3.1h3c0.1-0.6,0.4-1,1.1-1
					c0.7,0,0.9,0.4,0.9,0.8C20.5,39.7,20.1,39.9,18.2,40.1z M20.6,41.3V42c0,1-0.7,1.4-1.4,1.4c-0.5,0-1-0.3-1-0.8
					c0-0.5,0.3-0.8,1.2-1C19.9,41.6,20.3,41.4,20.6,41.3z M33.7,45.1v-5.5c0-2-1-3.3-3-3.3c-1.2,0-2.1,0.5-2.8,1.4h-0.1v-1.2h-3v8.6
					h3.2v-4.6c0-0.9,0.5-1.6,1.3-1.6c0.8,0,1.2,0.6,1.2,1.5v4.8H33.7z M38,33.1h-3.2v2.4H38V33.1z M38,36.6h-3.2v8.6H38V36.6z
					 M42.4,33.1h-3.3v12h3.3V33.1z M46.3,40.1c-1.6,0.2-3.1,0.7-3.1,2.6c0,1.7,1.2,2.6,2.9,2.6c1.1,0,2-0.4,2.6-1.2h0
					c0.1,0.5,0.2,0.7,0.3,0.9H52V45c-0.3-0.2-0.3-0.6-0.3-1.3v-4.3c0-1.1-0.4-2-1.3-2.6c-0.7-0.4-1.5-0.6-2.8-0.6
					c-2.7,0-4,1.4-4.1,3.1h3c0.1-0.6,0.4-1,1.1-1c0.7,0,0.9,0.4,0.9,0.8C48.6,39.7,48.1,39.9,46.3,40.1z M48.7,41.3V42
					c0,1-0.7,1.4-1.4,1.4c-0.5,0-1-0.3-1-0.8c0-0.5,0.3-0.8,1.2-1C48,41.6,48.3,41.4,48.7,41.3z M56.3,41.9H53v3.2h3.3V41.9z
					 M6.9,49.9H1.3v12h3.5v-3.7h2.7c2.4,0,4.1-1.7,4.1-4.1c0-1.3-0.5-2.4-1.3-3.2C9.5,50.3,8.4,49.9,6.9,49.9z M6.7,55.6H4.8v-2.7
					h1.9c0.9,0,1.4,0.5,1.4,1.3C8.1,55,7.6,55.6,6.7,55.6z M18.2,53.1c-1.2,0-2,0.5-2.6,1.2h-0.1v-4.4h-3.2v12h3.2v-4.6
					c0-0.9,0.5-1.6,1.3-1.6c0.8,0,1.2,0.6,1.2,1.5v4.8h3.2v-5.5C21.2,54.4,20.2,53.1,18.2,53.1z M22.3,61.9h3.2v-8.6h-3.2V61.9z
					 M22.3,52.3h3.2v-2.4h-3.2V52.3z M26.6,61.9h3.3v-12h-3.3V61.9z M31,52.3h3.2v-2.4H31V52.3z M31,61.9h3.2v-8.6H31V61.9z
					 M41.1,53.1c-1.2,0-2,0.5-2.7,1.3h-0.1v-1h-3v11.4h3.2v-3.6h0.1c0.6,0.7,1.4,1.1,2.4,1.1c2.3,0,3.8-1.8,3.8-4.6
					C44.7,55.1,43.4,53.1,41.1,53.1z M40,59.9c-1,0-1.6-0.9-1.6-2.1c0-1.2,0.6-2.1,1.6-2.1c0.9,0,1.5,0.8,1.5,2.1
					C41.5,59.1,40.9,59.9,40,59.9z M51.2,53.1c-1.2,0-2,0.5-2.7,1.3h-0.1v-1h-3v11.4h3.2v-3.6h0.1c0.6,0.7,1.4,1.1,2.4,1.1
					c2.3,0,3.8-1.8,3.8-4.6C54.8,55.1,53.5,53.1,51.2,53.1z M50.1,59.9c-1,0-1.6-0.9-1.6-2.1c0-1.2,0.6-2.1,1.6-2.1
					c0.9,0,1.5,0.8,1.5,2.1C51.6,59.1,51.1,59.9,50.1,59.9z M55.6,52.3h3.2v-2.4h-3.2V52.3z M55.6,61.9h3.2v-8.6h-3.2V61.9z
					 M65.8,53.1c-1.2,0-2.1,0.5-2.8,1.4H63v-1.2h-3v8.6h3.2v-4.6c0-0.9,0.5-1.6,1.3-1.6c0.8,0,1.2,0.6,1.2,1.5v4.8h3.2v-5.5
					C68.8,54.4,67.8,53.1,65.8,53.1z M77.2,54.2c-0.8-0.7-1.8-1.2-3.2-1.2c-2.7,0-4.6,2-4.6,4.6c0,2.6,1.9,4.5,4.7,4.5
					c1.1,0,1.9-0.2,2.7-0.7c0.8-0.5,1.4-1.3,1.6-2.1h-3.1c-0.2,0.4-0.6,0.6-1.2,0.6c-1,0-1.5-0.6-1.7-1.6h6.1
					C78.8,56.7,78.3,55.2,77.2,54.2z M72.6,56.7c0.2-0.9,0.7-1.5,1.5-1.5c0.8,0,1.3,0.6,1.4,1.5H72.6z M84,56.3
					c-1-0.1-1.8-0.2-1.8-0.7c0-0.4,0.4-0.6,0.9-0.6c0.5,0,1,0.1,1.1,0.8h3c-0.1-1.7-1.5-2.7-4.1-2.7c-2.1,0-3.9,1-3.9,2.7
					c0,2.2,1.7,2.5,3.1,2.8c1.1,0.2,2.1,0.3,2.1,1c0,0.5-0.5,0.7-1.1,0.7c-0.8,0-1.2-0.4-1.3-1.1h-3c0,2,1.8,3.1,4.3,3.1
					c2.4,0,4.2-0.9,4.2-2.9C87.6,56.9,85.6,56.5,84,56.3z"/>
			</g>
		</g>
	</g>
</g>
</svg>
