<?xml version="1.0" encoding="utf-8"?>
<!-- Generator: Adobe Illustrator 19.0.1, SVG Export Plug-In . SVG Version: 6.00 Build 0)  -->
<svg version="1.1" id="Слой_1" xmlns="http://www.w3.org/2000/svg" xmlns:xlink="http://www.w3.org/1999/xlink" x="0px" y="0px"
	 viewBox="0 0 101.9 98.2" enable-background="new 0 0 101.9 98.2" xml:space="preserve">
<g>
	<path fill="#4F5194" d="M67.9,93.7c0,0,8.5-10.9,11.9-17.7l-15.1-8.7l15.1-23.7L59.7,19.8L59,20.5l-0.9-0.9l0.8-0.8l-6.3-7
		c0,0-3.4-1.8-3.8-2.2L49.5,9l-1.8-2.6l-1.9-1.9L43,7.2l3.6,3.5l-2,4l-4.1-4.5l-1,2.8l1.1,0.6L40,15l-1.1-0.6l-3,7.6h-0.5l-3.8,13
		l-6.7-1.6l1.3-3.5c0,0-4.9-0.7-5.6-2.3l-2.4-1.4L2.9,39.7l0.9,4.1l-3,4.1c0,0-0.5,1.1,0.4,3.2l-0.5,0.3h3l6.3,4.3
		c0,0,2.2,1.5,6.9,0.7l7.7,2.5c0,0,5.3,1.6,7.4,7.9c2.1,6.4,11.9,10.1,11.9,10.1s10.7,1.8,20,13.1C67.9,93.7,67.9,93.7,67.9,93.7z"
		/>
	<g>
		<g>
			<path fill="#FFFFFF" d="M30.8,44.1c-1.2,0-1.9-0.5-2-1.4h-3.6c0.1,2.8,2.4,4.1,5.5,4.1c2.8,0,5.2-1.4,5.2-4c0-2.6-2-3.3-4-3.8
				C30,38.6,29,38.5,29,37.8c0-0.5,0.5-0.8,1.3-0.8c1,0,1.4,0.4,1.5,1.1h3.5c-0.1-2.6-2.3-3.7-4.8-3.7c-2.7,0-5,1-5,3.8
				c0,2.6,2.4,3.2,4.5,3.7c1.5,0.4,2.3,0.6,2.3,1.3S31.4,44.1,30.8,44.1z M40.3,46.7c0.6,0,1.1-0.1,1.6-0.2v-2.3
				c-1,0.1-1.6,0.1-1.6-0.8v-3.5h1.6V38h-1.6v-2.8h-3.1V38H36v1.9h1.1v4.2C37.2,46.1,38.2,46.7,40.3,46.7z M51.1,40.9
				c0-1.1-0.4-2-1.3-2.6c-0.7-0.4-1.5-0.6-2.8-0.6c-2.7,0-4,1.4-4.1,3.1h3c0.1-0.6,0.4-1,1.1-1c0.7,0,0.9,0.4,0.9,0.8
				c0,0.5-0.5,0.8-2.3,1c-1.6,0.2-3.1,0.7-3.1,2.6c0,1.7,1.2,2.6,2.9,2.6c1.1,0,2-0.4,2.6-1.2h0c0.1,0.5,0.2,0.7,0.3,0.9h3.1v-0.1
				c-0.3-0.2-0.3-0.6-0.3-1.3V40.9z M48,43.5c0,1-0.7,1.4-1.4,1.4c-0.5,0-1-0.3-1-0.8c0-0.5,0.3-0.8,1.2-1c0.5-0.1,0.9-0.3,1.2-0.4
				V43.5z M55.5,41.9c0-0.9,0.5-1.6,1.3-1.6c0.8,0,1.2,0.6,1.2,1.5v4.8h3.2V41c0-2-1-3.3-3-3.3c-1.2,0-2.1,0.5-2.8,1.4h-0.1V38h-3
				v8.6h3.2V41.9z M62.6,46.6h3.2v-6.7h1.7V38h-1.7v-0.2c0-1,0.7-1,1.7-1v-2.1c-1.6-0.2-3.3-0.1-4.1,0.7c-0.5,0.5-0.7,1.2-0.7,2.2
				V38h-1.1v1.9h1.1V46.6z M72.4,46.8c2.9,0,4.7-1.9,4.7-4.5s-1.8-4.6-4.7-4.6c-2.9,0-4.7,1.9-4.7,4.6S69.5,46.8,72.4,46.8z
				 M72.4,39.9c1,0,1.5,1,1.5,2.4c0,1.4-0.5,2.4-1.5,2.4s-1.4-1-1.4-2.4C70.9,40.9,71.4,39.9,72.4,39.9z M81,43.1
				c0-1.9,1.1-2.8,3-2.5h0.1v-2.7c-0.1-0.1-0.3-0.1-0.5-0.1c-1.1,0-1.9,0.4-2.6,1.5h-0.1V38h-3v8.6H81V43.1z M90.8,45.4L90.8,45.4
				l0,1.2h3v-12h-3.2v4.4h-0.1c-0.6-0.7-1.2-1.2-2.4-1.2c-2.3,0-3.8,1.8-3.8,4.5c0,3,1.6,4.6,3.9,4.6C89.3,46.9,90.2,46.3,90.8,45.4
				z M89.2,44.5c-0.9,0-1.5-0.9-1.5-2.2c0-1.3,0.6-2.2,1.5-2.2c0.9,0,1.6,1,1.6,2.2C90.7,43.5,90.1,44.5,89.2,44.5z M98.2,43.4h-3.3
				v3.2h3.3V43.4z M31.4,60.8c-1.6,0-2.5-1.4-2.5-3.4c0-2,0.8-3.4,2.5-3.4c1.1,0,1.9,0.8,2,1.8h3.5c-0.2-1.5-0.9-2.9-2.1-3.7
				c-0.9-0.6-2.1-0.9-3.4-0.9c-3.6,0-6.1,2.7-6.1,6.3c0,3.6,2.4,6.2,6.1,6.2c1.7,0,3-0.4,4.1-1.4c0.9-0.8,1.5-2,1.6-3.3h-3.5
				C33.3,60,32.6,60.8,31.4,60.8z M45.9,57.7c0-1.1-0.4-2-1.3-2.6c-0.7-0.4-1.5-0.6-2.8-0.6c-2.7,0-4,1.4-4.1,3.1h3
				c0.1-0.6,0.4-1,1.1-1c0.7,0,0.9,0.4,0.9,0.8c0,0.5-0.5,0.8-2.3,1c-1.6,0.2-3.1,0.7-3.1,2.6c0,1.7,1.2,2.6,2.9,2.6
				c1.1,0,2-0.4,2.6-1.2h0c0.1,0.5,0.2,0.7,0.3,0.9h3.1v-0.1c-0.3-0.2-0.3-0.6-0.3-1.3V57.7z M42.8,60.3c0,1-0.7,1.4-1.4,1.4
				c-0.5,0-1-0.3-1-0.8c0-0.5,0.3-0.8,1.2-1c0.5-0.1,0.9-0.3,1.2-0.4V60.3z M47.1,63.4h3.3v-12h-3.3V63.4z M51.5,63.4h3.2v-8.6h-3.2
				V63.4z M51.5,53.8h3.2v-2.4h-3.2V53.8z M57.2,52.2c-0.5,0.5-0.7,1.2-0.7,2.2v0.5h-1.1v1.9h1.1v6.7h3.2v-6.7h1.7v-1.9h-1.7v-0.2
				c0-1,0.7-1,1.7-1v-2.1C59.7,51.3,58,51.4,57.2,52.2z M66.2,54.5c-2.9,0-4.7,1.9-4.7,4.6s1.8,4.5,4.7,4.5c2.9,0,4.7-1.9,4.7-4.5
				S69,54.5,66.2,54.5z M66.2,61.5c-1,0-1.4-1-1.4-2.4c0-1.4,0.5-2.4,1.4-2.4c1,0,1.5,1,1.5,2.4C67.6,60.5,67.1,61.5,66.2,61.5z
				 M74.7,56.1L74.7,56.1l-0.1-1.3h-3v8.6h3.2v-3.5c0-1.9,1.1-2.8,3-2.5h0.1v-2.7c-0.1-0.1-0.3-0.1-0.5-0.1
				C76.2,54.6,75.4,55,74.7,56.1z M84.4,54.5c-1.2,0-2.1,0.5-2.8,1.4h-0.1v-1.2h-3v8.6h3.2v-4.6c0-0.9,0.5-1.6,1.3-1.6
				c0.8,0,1.2,0.6,1.2,1.5v4.8h3.2v-5.5C87.4,55.9,86.4,54.5,84.4,54.5z M88.5,63.4h3.2v-8.6h-3.2V63.4z M88.5,53.8h3.2v-2.4h-3.2
				V53.8z M101,62v-4.3c0-1.1-0.4-2-1.3-2.6c-0.7-0.4-1.5-0.6-2.8-0.6c-2.7,0-4,1.4-4.1,3.1h3c0.1-0.6,0.4-1,1.1-1
				c0.7,0,0.9,0.4,0.9,0.8c0,0.5-0.5,0.8-2.3,1c-1.6,0.2-3.1,0.7-3.1,2.6c0,1.7,1.2,2.6,2.9,2.6c1.1,0,2-0.4,2.6-1.2h0
				c0.1,0.5,0.2,0.7,0.3,0.9h3.1v-0.1C101.1,63.1,101,62.7,101,62z M97.9,60.3c0,1-0.7,1.4-1.4,1.4c-0.5,0-1-0.3-1-0.8
				c0-0.5,0.3-0.8,1.2-1c0.5-0.1,0.9-0.3,1.2-0.4V60.3z"/>
		</g>
	</g>
</g>
</svg>
